{"glyphs":{"0":{"ha":779,"x_min":87,"x_max":692,"o":"m 374 -12 q 225 34 290 -12 q 123 166 160 79 q 87 372 87 253 q 122 605 87 503 q 229 764 157 706 q 410 822 302 822 q 551 776 487 822 q 654 644 616 730 q 692 442 692 558 q 656 208 692 311 q 550 46 621 105 q 374 -12 479 -12 m 241 243 q 276 153 251 195 q 336 85 300 111 q 410 60 371 60 q 485 78 467 60 q 536 190 517 109 q 555 357 555 271 q 507 652 555 556 q 447 723 485 694 q 363 751 410 751 q 321 746 340 751 q 293 732 302 741 q 258 671 274 713 q 233 574 242 629 q 224 463 224 519 q 229 339 224 399 q 241 243 233 279 z "},"1":{"ha":555,"x_min":66,"x_max":479,"o":"m 66 688 l 78 741 l 359 817 l 359 92 l 479 62 l 465 0 l 81 0 l 90 50 l 233 91 l 233 688 l 66 688 z "},"2":{"ha":776,"x_min":87,"x_max":688,"o":"m 115 595 l 112 750 q 207 792 154 777 q 305 815 260 808 q 376 822 351 822 q 518 796 457 822 q 613 723 579 770 q 646 610 646 675 q 589 450 646 534 q 452 291 532 366 q 249 109 373 215 l 209 75 l 551 102 l 630 222 l 688 208 l 639 0 l 111 0 l 87 64 q 234 218 135 116 q 313 300 248 231 q 414 408 379 368 q 480 505 451 450 q 509 610 509 560 q 492 673 509 644 q 425 722 472 703 q 314 740 378 740 q 231 732 278 740 l 178 582 l 115 595 z "},"3":{"ha":696,"x_min":79,"x_max":621,"o":"m 365 471 q 490 445 435 471 q 574 369 544 419 q 604 248 604 319 q 519 65 604 134 q 320 -30 434 -3 q 100 -60 206 -57 l 90 -10 l 103 -7 q 288 46 213 20 q 418 123 362 73 q 473 248 473 172 q 399 376 473 338 q 221 414 326 414 l 236 476 l 498 724 q 352 716 451 720 q 175 713 252 713 l 138 614 l 79 625 l 85 812 l 185 805 l 594 809 l 621 739 l 365 471 z "},"4":{"ha":730,"x_min":29,"x_max":661,"o":"m 642 186 l 537 186 l 537 -38 l 421 -80 l 421 186 l 60 186 l 29 241 l 397 822 l 512 774 l 172 270 l 421 279 l 421 420 l 537 461 l 537 283 l 661 288 l 642 186 z "},"5":{"ha":678,"x_min":70,"x_max":589,"o":"m 70 -10 q 248 41 170 13 q 384 120 327 70 q 441 242 441 170 q 379 372 441 332 q 215 412 316 412 q 122 408 167 412 l 132 805 l 589 805 l 545 705 l 234 718 l 225 467 q 319 473 279 473 q 508 418 442 473 q 574 251 574 363 q 493 72 574 140 q 298 -27 411 3 q 81 -60 185 -57 l 70 -10 z "},"6":{"ha":733,"x_min":71,"x_max":654,"o":"m 254 146 q 320 87 279 111 q 405 64 360 64 q 498 98 475 64 q 519 155 511 117 q 526 232 526 193 q 476 371 526 317 q 313 430 425 425 l 321 468 q 422 487 372 487 q 592 428 530 487 q 654 258 654 369 q 615 116 654 178 q 508 19 577 54 q 351 -16 439 -16 q 205 22 269 -16 q 106 134 142 61 q 71 304 71 206 q 123 535 71 425 q 274 727 176 644 q 508 851 373 810 l 530 806 q 288 595 373 706 q 203 341 203 484 q 215 229 203 277 q 254 146 227 182 z "},"7":{"ha":709,"x_min":70,"x_max":664,"o":"m 544 711 l 176 701 l 136 589 l 70 605 l 75 812 l 179 805 l 637 808 l 664 732 l 260 -45 l 140 0 l 544 711 z "},"8":{"ha":713,"x_min":85,"x_max":628,"o":"m 85 188 q 127 313 85 260 q 243 407 170 365 q 141 494 177 445 q 106 617 106 543 q 137 720 106 673 q 226 794 169 767 q 355 822 283 822 q 479 799 422 822 q 570 732 536 775 q 604 630 604 688 q 568 512 604 562 q 472 422 532 463 q 587 328 546 382 q 628 195 628 275 q 593 83 628 131 q 499 10 559 35 q 365 -16 439 -16 q 229 5 292 -16 q 125 72 165 26 q 85 188 85 117 m 429 447 q 470 522 452 483 q 488 599 488 562 q 465 683 488 647 q 404 738 442 719 q 319 757 365 757 q 247 736 270 757 q 226 700 233 724 q 219 650 219 676 q 257 553 219 592 q 328 501 279 530 q 429 447 377 472 m 208 219 q 233 137 208 174 q 298 78 257 100 q 385 57 338 57 q 448 63 422 57 q 495 87 475 68 q 517 154 517 107 q 481 254 517 214 q 394 324 453 288 q 284 384 336 360 q 245 330 260 353 q 219 279 231 308 q 208 219 208 250 z "},"9":{"ha":723,"x_min":71,"x_max":637,"o":"m 111 -14 q 346 118 259 42 q 468 285 432 195 q 503 484 503 375 q 483 607 503 543 q 420 709 462 671 q 311 749 376 749 q 222 715 249 749 q 201 667 208 699 q 194 594 194 635 q 202 519 194 551 q 233 460 210 487 q 301 415 258 431 q 411 395 345 399 l 420 362 q 351 345 389 350 q 281 339 313 339 q 194 355 233 339 q 130 397 154 371 q 85 470 100 431 q 71 565 71 509 q 105 699 71 641 q 200 790 139 758 q 342 822 262 822 q 500 780 434 822 q 602 660 567 737 q 637 479 637 582 q 605 281 637 370 q 503 115 574 192 q 390 25 455 64 q 255 -36 326 -14 q 120 -58 184 -58 l 111 -14 z "},"\r":{"ha":258,"x_min":0,"x_max":0,"o":""}," ":{"ha":373,"x_min":0,"x_max":0,"o":""},"A":{"ha":906,"x_min":-19,"x_max":921,"o":"m 921 67 l 907 0 l 555 0 l 566 58 l 677 90 l 595 306 q 289 296 439 296 l 260 296 l 191 94 l 330 56 l 318 0 l -19 0 l -7 64 l 98 96 l 404 939 l 485 962 l 819 90 l 921 67 m 566 385 l 416 783 q 290 385 409 737 l 566 385 z "},"Á":{"ha":906,"x_min":-19,"x_max":921,"o":"m 921 67 l 907 0 l 555 0 l 566 58 l 677 90 l 595 306 q 289 296 439 296 l 260 296 l 191 94 l 330 56 l 318 0 l -19 0 l -7 64 l 98 96 l 404 939 l 485 962 l 819 90 l 921 67 m 566 385 l 416 783 q 290 385 409 737 l 566 385 m 319 1084 l 569 1211 l 610 1211 l 629 1109 l 332 1013 l 319 1084 z "},"Ă":{"ha":906,"x_min":-19,"x_max":921,"o":"m 921 67 l 907 0 l 555 0 l 566 58 l 677 90 l 595 306 q 289 296 439 296 l 260 296 l 191 94 l 330 56 l 318 0 l -19 0 l -7 64 l 98 96 l 404 939 l 485 962 l 819 90 l 921 67 m 566 385 l 416 783 q 290 385 409 737 l 566 385 m 440 1012 q 346 1033 385 1012 q 287 1087 307 1055 q 267 1154 267 1120 q 281 1198 267 1189 l 350 1197 q 366 1137 351 1162 q 400 1099 380 1112 q 440 1087 421 1087 q 480 1099 460 1087 q 515 1137 500 1112 q 531 1198 530 1162 l 601 1198 q 614 1155 614 1185 q 594 1087 614 1120 q 534 1033 574 1055 q 440 1012 495 1012 z "},"Â":{"ha":906,"x_min":-19,"x_max":921,"o":"m 921 67 l 907 0 l 555 0 l 566 58 l 677 90 l 595 306 q 289 296 439 296 l 260 296 l 191 94 l 330 56 l 318 0 l -19 0 l -7 64 l 98 96 l 404 939 l 485 962 l 819 90 l 921 67 m 566 385 l 416 783 q 290 385 409 737 l 566 385 m 233 1065 l 407 1211 l 473 1211 l 648 1065 l 605 1020 l 440 1108 l 275 1020 l 233 1065 z "},"Ä":{"ha":906,"x_min":-19,"x_max":921,"o":"m 921 67 l 907 0 l 555 0 l 566 58 l 677 90 l 595 306 q 289 296 439 296 l 260 296 l 191 94 l 330 56 l 318 0 l -19 0 l -7 64 l 98 96 l 404 939 l 485 962 l 819 90 l 921 67 m 566 385 l 416 783 q 290 385 409 737 l 566 385 m 509 1046 q 503 1081 503 1055 q 508 1127 503 1105 q 523 1155 513 1149 q 555 1162 530 1162 q 601 1156 578 1162 q 631 1141 624 1150 q 637 1107 637 1133 q 631 1062 637 1084 q 617 1031 626 1039 q 585 1026 608 1026 q 538 1031 561 1026 q 509 1046 516 1037 m 250 1046 q 243 1080 243 1053 q 249 1126 243 1103 q 263 1155 254 1148 q 295 1161 271 1161 q 341 1155 318 1161 q 372 1141 364 1149 q 378 1107 378 1132 q 372 1061 378 1084 q 357 1031 367 1039 q 325 1026 350 1026 q 279 1031 301 1026 q 250 1046 256 1037 z "},"À":{"ha":906,"x_min":-19,"x_max":921,"o":"m 921 67 l 907 0 l 555 0 l 566 58 l 677 90 l 595 306 q 289 296 439 296 l 260 296 l 191 94 l 330 56 l 318 0 l -19 0 l -7 64 l 98 96 l 404 939 l 485 962 l 819 90 l 921 67 m 566 385 l 416 783 q 290 385 409 737 l 566 385 m 286 1109 l 304 1211 l 345 1211 l 595 1085 l 582 1014 l 286 1109 z "},"Ā":{"ha":906,"x_min":-19,"x_max":921,"o":"m 921 67 l 907 0 l 555 0 l 566 58 l 677 90 l 595 306 q 289 296 439 296 l 260 296 l 191 94 l 330 56 l 318 0 l -19 0 l -7 64 l 98 96 l 404 939 l 485 962 l 819 90 l 921 67 m 566 385 l 416 783 q 290 385 409 737 l 566 385 m 274 1133 l 623 1133 l 608 1053 q 434 1046 536 1048 q 255 1044 332 1044 l 274 1133 z "},"Ą":{"ha":907,"x_min":-20,"x_max":911,"o":"m 681 -31 q 591 -160 591 -111 q 604 -201 591 -181 q 637 -232 617 -221 q 671 -241 655 -241 q 723 -233 694 -241 q 776 -213 752 -226 l 793 -238 q 708 -300 747 -279 q 629 -322 670 -322 q 561 -307 593 -322 q 511 -262 530 -291 q 492 -194 492 -233 q 506 -129 492 -157 q 543 -80 520 -101 q 608 -25 565 -58 l 648 7 q 671 36 663 19 q 679 71 679 52 q 673 102 679 85 l 595 308 q 260 298 496 298 l 191 94 l 330 56 l 318 0 l -20 0 l -5 64 l 99 96 l 404 939 l 485 963 l 819 90 l 911 68 l 896 0 l 785 0 q 726 -5 749 0 q 681 -31 703 -11 m 566 385 l 416 783 q 289 385 359 594 l 566 385 z "},"Å":{"ha":906,"x_min":-19,"x_max":921,"o":"m 921 67 l 907 0 l 555 0 l 566 58 l 677 90 l 595 306 q 289 296 439 296 l 260 296 l 191 94 l 330 56 l 318 0 l -19 0 l -7 64 l 98 96 l 393 907 q 336 947 357 919 q 315 1013 315 975 q 331 1077 315 1048 q 376 1122 347 1106 q 444 1139 405 1139 q 504 1124 475 1139 q 549 1083 532 1109 q 566 1024 566 1057 q 549 959 566 987 q 503 914 532 930 l 819 90 l 921 67 m 434 1077 q 400 1061 413 1077 q 387 1025 387 1046 q 401 981 387 999 q 445 962 416 962 q 479 977 467 962 q 492 1013 492 991 q 477 1058 492 1039 q 434 1077 461 1077 m 566 385 l 416 783 q 290 385 409 737 l 566 385 z "},"Ã":{"ha":906,"x_min":-19,"x_max":921,"o":"m 921 67 l 907 0 l 555 0 l 566 58 l 677 90 l 595 306 q 289 296 439 296 l 260 296 l 191 94 l 330 56 l 318 0 l -19 0 l -7 64 l 98 96 l 404 939 l 485 962 l 819 90 l 921 67 m 566 385 l 416 783 q 290 385 409 737 l 566 385 m 215 1121 q 265 1170 244 1152 q 311 1201 286 1189 q 363 1214 336 1214 q 417 1200 393 1214 q 475 1159 442 1185 q 505 1137 494 1144 q 526 1129 516 1129 q 581 1150 544 1129 q 652 1199 618 1171 l 665 1124 q 591 1056 625 1080 q 517 1031 556 1031 q 461 1046 487 1031 q 406 1086 435 1061 q 376 1108 387 1101 q 355 1116 365 1116 q 296 1095 335 1116 q 229 1046 258 1075 l 215 1121 z "},"Æ":{"ha":1237,"x_min":-22,"x_max":1201,"o":"m 608 309 q 308 298 514 298 l 199 94 l 326 56 l 312 0 l -22 0 l -9 64 l 94 96 l 507 847 l 378 882 l 390 939 l 1043 939 l 1129 947 l 1155 709 l 1092 694 l 1025 845 q 739 879 871 858 l 739 503 q 843 514 780 510 q 919 519 907 519 l 958 633 l 1008 620 l 995 314 l 945 324 l 918 433 q 839 436 894 433 q 739 447 785 439 l 739 67 q 827 80 742 69 q 1068 105 913 90 l 1152 230 l 1201 220 l 1149 0 l 477 0 l 488 58 l 608 96 l 608 309 m 608 842 l 588 842 l 354 385 l 608 385 l 608 842 z "},"B":{"ha":827,"x_min":47,"x_max":765,"o":"m 58 58 l 177 94 l 177 845 l 50 883 l 62 939 l 304 939 q 526 923 437 939 q 667 860 614 908 q 721 719 721 812 q 689 615 721 659 q 608 544 658 570 q 502 507 559 517 q 633 468 574 497 q 729 390 692 439 q 765 272 765 340 q 707 97 765 157 q 553 19 650 38 q 309 0 457 0 l 47 0 l 58 58 m 589 713 q 509 836 589 798 q 307 885 429 874 l 307 55 q 464 85 397 66 q 578 149 531 104 q 625 269 625 193 q 559 404 625 356 q 374 481 494 452 l 380 522 q 535 594 480 544 q 589 713 589 644 z "},"C":{"ha":846,"x_min":75,"x_max":814,"o":"m 482 -24 q 269 31 361 -24 q 126 186 177 85 q 75 424 75 287 q 123 691 75 570 q 260 882 170 812 q 378 943 315 924 q 519 962 441 962 q 589 958 553 962 q 668 944 624 953 l 755 956 l 781 708 l 715 692 l 652 833 q 569 861 608 852 q 477 870 530 870 q 382 855 427 870 q 311 817 337 840 q 238 691 267 777 q 210 478 210 605 q 232 326 210 401 q 292 199 253 251 q 395 113 337 141 q 517 85 452 85 q 604 101 549 85 q 711 135 659 116 q 784 164 764 154 l 814 117 q 662 10 737 43 q 482 -24 586 -24 z "},"Ć":{"ha":846,"x_min":75,"x_max":814,"o":"m 482 -24 q 269 31 361 -24 q 126 186 177 85 q 75 424 75 287 q 123 691 75 570 q 260 882 170 812 q 378 943 315 924 q 519 962 441 962 q 589 958 553 962 q 668 944 624 953 l 755 956 l 781 708 l 715 692 l 652 833 q 569 861 608 852 q 477 870 530 870 q 382 855 427 870 q 311 817 337 840 q 238 691 267 777 q 210 478 210 605 q 232 326 210 401 q 292 199 253 251 q 395 113 337 141 q 517 85 452 85 q 604 101 549 85 q 711 135 659 116 q 784 164 764 154 l 814 117 q 662 10 737 43 q 482 -24 586 -24 m 356 1084 l 606 1211 l 647 1211 l 665 1109 l 368 1013 l 356 1084 z "},"Č":{"ha":846,"x_min":75,"x_max":814,"o":"m 482 -24 q 269 31 361 -24 q 126 186 177 85 q 75 424 75 287 q 123 691 75 570 q 260 882 170 812 q 378 943 315 924 q 519 962 441 962 q 589 958 553 962 q 668 944 624 953 l 755 956 l 781 708 l 715 692 l 652 833 q 569 861 608 852 q 477 870 530 870 q 382 855 427 870 q 311 817 337 840 q 238 691 267 777 q 210 478 210 605 q 232 326 210 401 q 292 199 253 251 q 395 113 337 141 q 517 85 452 85 q 604 101 549 85 q 711 135 659 116 q 784 164 764 154 l 814 117 q 662 10 737 43 q 482 -24 586 -24 m 270 1173 l 312 1217 l 477 1129 l 642 1217 l 684 1173 l 509 1027 l 444 1027 l 270 1173 z "},"Ç":{"ha":846,"x_min":75,"x_max":814,"o":"m 480 -77 q 581 -115 540 -87 q 621 -189 621 -144 q 581 -275 621 -241 q 480 -324 541 -309 q 355 -339 419 -339 l 345 -303 q 453 -253 416 -273 q 503 -221 490 -233 q 516 -199 516 -209 q 478 -159 516 -179 q 374 -119 441 -140 q 438 -22 395 -73 q 247 44 329 -12 q 120 198 165 101 q 75 424 75 296 q 123 691 75 570 q 260 882 170 812 q 378 943 315 924 q 519 962 441 962 q 589 958 553 962 q 668 944 624 953 l 755 956 l 781 708 l 715 692 l 652 833 q 569 861 608 852 q 477 870 530 870 q 382 855 427 870 q 311 817 337 840 q 238 691 267 777 q 210 478 210 605 q 232 326 210 401 q 292 199 253 251 q 395 113 337 141 q 517 85 452 85 q 604 101 549 85 q 711 135 659 116 q 784 164 764 154 l 814 117 q 671 14 742 47 q 505 -23 600 -20 l 480 -77 z "},"D":{"ha":968,"x_min":47,"x_max":905,"o":"m 178 94 l 178 845 l 51 883 l 62 939 l 360 939 q 564 922 471 939 q 725 859 656 905 q 862 699 818 795 q 905 477 905 602 q 877 284 905 376 q 785 126 848 192 q 653 41 730 68 q 497 7 576 14 q 306 0 418 0 l 47 0 l 59 58 l 178 94 m 308 59 q 572 123 473 80 q 718 249 670 166 q 766 473 766 332 q 599 800 766 696 q 474 851 551 830 q 308 882 396 872 l 308 59 z "},"Ð":{"ha":969,"x_min":48,"x_max":906,"o":"m 726 859 q 862 699 819 795 q 906 477 906 602 q 877 284 906 376 q 786 126 848 192 q 654 41 730 68 q 498 7 577 14 q 307 0 418 0 l 48 0 l 60 58 l 178 94 l 178 420 l 64 416 l 85 513 l 178 513 l 178 845 l 52 883 l 63 939 l 361 939 q 564 922 471 939 q 726 859 657 905 m 309 59 q 572 123 474 80 q 719 249 671 166 q 766 473 766 332 q 600 800 766 696 q 474 851 552 830 q 309 882 397 872 l 309 513 l 508 513 l 492 431 l 309 425 l 309 59 z "},"Ď":{"ha":968,"x_min":47,"x_max":905,"o":"m 178 94 l 178 845 l 51 883 l 62 939 l 360 939 q 564 922 471 939 q 725 859 656 905 q 862 699 818 795 q 905 477 905 602 q 877 284 905 376 q 785 126 848 192 q 653 41 730 68 q 497 7 576 14 q 306 0 418 0 l 47 0 l 59 58 l 178 94 m 308 59 q 572 123 473 80 q 718 249 670 166 q 766 473 766 332 q 599 800 766 696 q 474 851 551 830 q 308 882 396 872 l 308 59 m 231 1173 l 273 1217 l 438 1129 l 603 1217 l 645 1173 l 471 1027 l 406 1027 l 231 1173 z "},"Đ":{"ha":969,"x_min":48,"x_max":906,"o":"m 726 859 q 862 699 819 795 q 906 477 906 602 q 877 284 906 376 q 786 126 848 192 q 654 41 730 68 q 498 7 577 14 q 307 0 418 0 l 48 0 l 60 58 l 178 94 l 178 420 l 64 416 l 85 513 l 178 513 l 178 845 l 52 883 l 63 939 l 361 939 q 564 922 471 939 q 726 859 657 905 m 309 59 q 572 123 474 80 q 719 249 671 166 q 766 473 766 332 q 600 800 766 696 q 474 851 552 830 q 309 882 397 872 l 309 513 l 508 513 l 492 431 l 309 425 l 309 59 z "},"E":{"ha":845,"x_min":45,"x_max":814,"o":"m 676 105 l 760 231 l 814 217 l 760 0 l 45 0 l 56 58 l 178 96 l 178 846 l 50 884 l 64 939 l 651 939 l 737 947 l 760 709 l 700 694 l 633 845 l 308 879 l 308 503 q 508 519 406 515 l 550 634 l 603 620 l 591 314 l 537 326 l 507 433 q 400 436 448 433 q 308 447 352 439 l 308 67 l 676 105 z "},"É":{"ha":845,"x_min":45,"x_max":814,"o":"m 676 105 l 760 231 l 814 217 l 760 0 l 45 0 l 56 58 l 178 96 l 178 846 l 50 884 l 64 939 l 651 939 l 737 947 l 760 709 l 700 694 l 633 845 l 308 879 l 308 503 q 508 519 406 515 l 550 634 l 603 620 l 591 314 l 537 326 l 507 433 q 400 436 448 433 q 308 447 352 439 l 308 67 l 676 105 m 302 1084 l 551 1211 l 593 1211 l 611 1109 l 314 1013 l 302 1084 z "},"Ě":{"ha":845,"x_min":45,"x_max":814,"o":"m 676 105 l 760 231 l 814 217 l 760 0 l 45 0 l 56 58 l 178 96 l 178 846 l 50 884 l 64 939 l 651 939 l 737 947 l 760 709 l 700 694 l 633 845 l 308 879 l 308 503 q 508 519 406 515 l 550 634 l 603 620 l 591 314 l 537 326 l 507 433 q 400 436 448 433 q 308 447 352 439 l 308 67 l 676 105 m 216 1173 l 258 1217 l 422 1129 l 587 1217 l 629 1173 l 455 1027 l 390 1027 l 216 1173 z "},"Ê":{"ha":845,"x_min":45,"x_max":814,"o":"m 676 105 l 760 231 l 814 217 l 760 0 l 45 0 l 56 58 l 178 96 l 178 846 l 50 884 l 64 939 l 651 939 l 737 947 l 760 709 l 700 694 l 633 845 l 308 879 l 308 503 q 508 519 406 515 l 550 634 l 603 620 l 591 314 l 537 326 l 507 433 q 400 436 448 433 q 308 447 352 439 l 308 67 l 676 105 m 216 1065 l 389 1211 l 456 1211 l 630 1065 l 587 1020 l 422 1108 l 258 1020 l 216 1065 z "},"Ë":{"ha":845,"x_min":45,"x_max":814,"o":"m 676 105 l 760 231 l 814 217 l 760 0 l 45 0 l 56 58 l 178 96 l 178 846 l 50 884 l 64 939 l 651 939 l 737 947 l 760 709 l 700 694 l 633 845 l 308 879 l 308 503 q 508 519 406 515 l 550 634 l 603 620 l 591 314 l 537 326 l 507 433 q 400 436 448 433 q 308 447 352 439 l 308 67 l 676 105 m 491 1046 q 485 1081 485 1055 q 490 1127 485 1105 q 505 1155 496 1149 q 537 1162 513 1162 q 583 1156 560 1162 q 613 1141 606 1150 q 619 1107 619 1133 q 614 1062 619 1084 q 600 1031 608 1039 q 567 1026 590 1026 q 521 1031 543 1026 q 491 1046 498 1037 m 232 1046 q 225 1080 225 1053 q 231 1126 225 1103 q 245 1155 237 1148 q 277 1161 254 1161 q 323 1155 300 1161 q 354 1141 347 1149 q 360 1107 360 1132 q 355 1061 360 1084 q 340 1031 349 1039 q 307 1026 332 1026 q 261 1031 283 1026 q 232 1046 239 1037 z "},"Ė":{"ha":845,"x_min":45,"x_max":814,"o":"m 676 105 l 760 231 l 814 217 l 760 0 l 45 0 l 56 58 l 178 96 l 178 846 l 50 884 l 64 939 l 651 939 l 737 947 l 760 709 l 700 694 l 633 845 l 308 879 l 308 503 q 508 519 406 515 l 550 634 l 603 620 l 591 314 l 537 326 l 507 433 q 400 436 448 433 q 308 447 352 439 l 308 67 l 676 105 m 362 1046 q 355 1080 355 1053 q 361 1125 355 1103 q 376 1155 367 1148 q 408 1161 384 1161 q 454 1155 431 1161 q 484 1141 477 1149 q 490 1107 490 1133 q 485 1061 490 1083 q 470 1031 479 1038 q 437 1026 463 1026 q 391 1031 414 1026 q 362 1046 369 1037 z "},"È":{"ha":845,"x_min":45,"x_max":814,"o":"m 676 105 l 760 231 l 814 217 l 760 0 l 45 0 l 56 58 l 178 96 l 178 846 l 50 884 l 64 939 l 651 939 l 737 947 l 760 709 l 700 694 l 633 845 l 308 879 l 308 503 q 508 519 406 515 l 550 634 l 603 620 l 591 314 l 537 326 l 507 433 q 400 436 448 433 q 308 447 352 439 l 308 67 l 676 105 m 268 1109 l 286 1211 l 328 1211 l 577 1085 l 564 1014 l 268 1109 z "},"Ē":{"ha":845,"x_min":45,"x_max":814,"o":"m 676 105 l 760 231 l 814 217 l 760 0 l 45 0 l 56 58 l 178 96 l 178 846 l 50 884 l 64 939 l 651 939 l 737 947 l 760 709 l 700 694 l 633 845 l 308 879 l 308 503 q 508 519 406 515 l 550 634 l 603 620 l 591 314 l 537 326 l 507 433 q 400 436 448 433 q 308 447 352 439 l 308 67 l 676 105 m 256 1133 l 606 1133 l 590 1053 q 416 1046 519 1048 q 237 1044 314 1044 l 256 1133 z "},"Ę":{"ha":845,"x_min":45,"x_max":814,"o":"m 659 -241 q 705 -234 680 -241 q 765 -214 730 -227 l 779 -241 q 695 -301 734 -280 q 616 -323 657 -323 q 548 -307 580 -323 q 498 -262 517 -292 q 479 -195 479 -233 q 536 -71 479 -127 q 598 -20 554 -54 l 624 0 l 45 0 l 56 58 l 178 96 l 178 846 l 50 884 l 64 939 l 651 939 l 737 947 l 760 709 l 700 694 l 633 845 l 308 879 l 308 503 q 508 519 406 515 l 550 634 l 603 620 l 591 314 l 537 326 l 507 433 q 400 436 448 433 q 308 447 352 439 l 308 67 l 676 105 l 760 231 l 814 217 l 760 0 l 702 0 q 609 -94 638 -56 q 579 -160 579 -133 q 595 -206 579 -184 q 634 -237 610 -228 q 659 -241 646 -241 z "},"F":{"ha":791,"x_min":47,"x_max":772,"o":"m 52 882 l 63 939 l 663 939 l 749 947 l 772 708 l 711 694 l 645 845 l 309 876 l 309 503 q 520 519 390 515 l 564 635 l 615 619 l 602 314 l 550 325 l 519 432 q 309 446 400 431 l 309 106 l 488 69 l 466 0 l 47 0 l 58 58 l 179 96 l 179 846 l 52 882 z "},"G":{"ha":949,"x_min":60,"x_max":926,"o":"m 524 395 l 536 452 l 926 452 l 916 391 l 834 349 l 834 142 q 699 21 787 65 q 505 -24 610 -24 q 383 -15 433 -24 q 287 17 333 -7 q 189 87 241 41 q 94 237 127 143 q 60 435 60 331 q 102 674 60 558 q 244 874 143 790 q 370 940 295 917 q 527 962 446 962 q 614 958 569 962 q 694 945 659 953 l 784 954 l 811 708 l 745 694 l 682 832 q 599 860 653 849 q 498 871 545 871 q 383 858 436 871 q 305 821 330 844 q 228 690 256 773 q 200 464 200 607 q 227 297 200 380 q 311 165 254 214 q 418 100 363 117 q 537 82 472 82 q 631 93 581 82 q 707 125 681 104 l 707 355 l 524 395 z "},"Ğ":{"ha":949,"x_min":60,"x_max":926,"o":"m 524 395 l 536 452 l 926 452 l 916 391 l 834 349 l 834 142 q 699 21 787 65 q 505 -24 610 -24 q 383 -15 433 -24 q 287 17 333 -7 q 189 87 241 41 q 94 237 127 143 q 60 435 60 331 q 102 674 60 558 q 244 874 143 790 q 370 940 295 917 q 527 962 446 962 q 614 958 569 962 q 694 945 659 953 l 784 954 l 811 708 l 745 694 l 682 832 q 599 860 653 849 q 498 871 545 871 q 383 858 436 871 q 305 821 330 844 q 228 690 256 773 q 200 464 200 607 q 227 297 200 380 q 311 165 254 214 q 418 100 363 117 q 537 82 472 82 q 631 93 581 82 q 707 125 681 104 l 707 355 l 524 395 m 509 1012 q 415 1033 454 1012 q 356 1087 376 1055 q 336 1154 336 1120 q 350 1198 336 1189 l 418 1197 q 434 1137 420 1162 q 469 1099 448 1112 q 509 1087 490 1087 q 549 1099 528 1087 q 584 1137 569 1112 q 600 1198 598 1162 l 669 1198 q 682 1155 682 1185 q 662 1087 682 1120 q 603 1033 642 1055 q 509 1012 564 1012 z "},"Ģ":{"ha":949,"x_min":60,"x_max":926,"o":"m 524 395 l 536 452 l 926 452 l 916 391 l 834 349 l 834 142 q 699 21 787 65 q 505 -24 610 -24 q 383 -15 433 -24 q 287 17 333 -7 q 189 87 241 41 q 94 237 127 143 q 60 435 60 331 q 102 674 60 558 q 244 874 143 790 q 370 940 295 917 q 527 962 446 962 q 614 958 569 962 q 694 945 659 953 l 784 954 l 811 708 l 745 694 l 682 832 q 599 860 653 849 q 498 871 545 871 q 383 858 436 871 q 305 821 330 844 q 228 690 256 773 q 200 464 200 607 q 227 297 200 380 q 311 165 254 214 q 418 100 363 117 q 537 82 472 82 q 631 93 581 82 q 707 125 681 104 l 707 355 l 524 395 m 456 -64 q 510 -75 485 -65 q 555 -103 536 -85 q 579 -137 570 -118 q 588 -177 588 -156 q 561 -253 588 -220 q 498 -303 534 -286 q 438 -320 462 -320 l 428 -290 q 489 -237 471 -258 q 508 -196 508 -216 q 493 -165 508 -178 q 437 -140 477 -151 l 456 -64 z "},"H":{"ha":1046,"x_min":47,"x_max":1000,"o":"m 449 60 l 435 0 l 47 0 l 56 57 l 178 94 l 178 845 l 52 883 l 63 939 l 452 939 l 439 877 l 309 841 l 309 513 l 737 513 l 737 842 l 598 879 l 612 939 l 1000 939 l 990 882 l 867 844 l 867 94 l 996 56 l 983 0 l 594 0 l 606 61 l 737 98 l 737 439 q 309 422 500 427 l 309 97 l 449 60 z "},"I":{"ha":488,"x_min":46,"x_max":442,"o":"m 178 95 l 178 845 l 51 882 l 62 939 l 442 939 l 431 881 l 309 844 l 309 95 l 439 57 l 426 0 l 46 0 l 58 59 l 178 95 z "},"Í":{"ha":488,"x_min":46,"x_max":442,"o":"m 178 95 l 178 845 l 51 882 l 62 939 l 442 939 l 431 881 l 309 844 l 309 95 l 439 57 l 426 0 l 46 0 l 58 59 l 178 95 m 123 1084 l 373 1211 l 414 1211 l 433 1109 l 136 1013 l 123 1084 z "},"Î":{"ha":488,"x_min":37,"x_max":452,"o":"m 178 95 l 178 845 l 51 882 l 62 939 l 442 939 l 431 881 l 309 844 l 309 95 l 439 57 l 426 0 l 46 0 l 58 59 l 178 95 m 37 1065 l 211 1211 l 277 1211 l 452 1065 l 409 1020 l 244 1108 l 79 1020 l 37 1065 z "},"Ï":{"ha":488,"x_min":46,"x_max":442,"o":"m 178 95 l 178 845 l 51 882 l 62 939 l 442 939 l 431 881 l 309 844 l 309 95 l 439 57 l 426 0 l 46 0 l 58 59 l 178 95 m 313 1046 q 307 1081 307 1055 q 312 1127 307 1105 q 327 1155 317 1149 q 359 1162 334 1162 q 405 1156 382 1162 q 435 1141 428 1150 q 441 1107 441 1133 q 435 1062 441 1084 q 421 1031 430 1039 q 389 1026 412 1026 q 342 1031 365 1026 q 313 1046 320 1037 m 54 1046 q 47 1080 47 1053 q 53 1126 47 1103 q 67 1155 58 1148 q 99 1161 75 1161 q 145 1155 122 1161 q 176 1141 168 1149 q 182 1107 182 1132 q 176 1061 182 1084 q 161 1031 171 1039 q 129 1026 154 1026 q 83 1031 105 1026 q 54 1046 60 1037 z "},"İ":{"ha":488,"x_min":46,"x_max":442,"o":"m 178 95 l 178 845 l 51 882 l 62 939 l 442 939 l 431 881 l 309 844 l 309 95 l 439 57 l 426 0 l 46 0 l 58 59 l 178 95 m 183 1046 q 176 1080 176 1053 q 182 1125 176 1103 q 197 1155 188 1148 q 229 1161 205 1161 q 275 1155 252 1161 q 304 1141 298 1149 q 311 1107 311 1133 q 306 1061 311 1083 q 291 1031 300 1038 q 258 1026 283 1026 q 212 1031 235 1026 q 183 1046 190 1037 z "},"Ì":{"ha":488,"x_min":46,"x_max":442,"o":"m 178 95 l 178 845 l 51 882 l 62 939 l 442 939 l 431 881 l 309 844 l 309 95 l 439 57 l 426 0 l 46 0 l 58 59 l 178 95 m 89 1109 l 107 1211 l 149 1211 l 398 1085 l 385 1014 l 89 1109 z "},"Ī":{"ha":488,"x_min":46,"x_max":442,"o":"m 178 95 l 178 845 l 51 882 l 62 939 l 442 939 l 431 881 l 309 844 l 309 95 l 439 57 l 426 0 l 46 0 l 58 59 l 178 95 m 77 1133 l 427 1133 l 411 1053 q 237 1046 340 1048 q 58 1044 135 1044 l 77 1133 z "},"Į":{"ha":488,"x_min":47,"x_max":445,"o":"m 178 94 l 178 845 l 52 884 l 62 939 l 442 939 l 431 881 l 309 844 l 309 94 l 439 55 l 427 0 q 329 -53 371 -22 q 266 -116 288 -85 q 243 -164 243 -146 q 260 -206 243 -184 q 300 -237 276 -228 q 323 -241 311 -241 q 429 -215 359 -241 l 445 -241 q 388 -284 410 -269 q 339 -311 366 -300 q 281 -323 311 -323 q 213 -308 245 -323 q 163 -263 182 -292 q 144 -195 144 -235 q 167 -114 144 -149 q 221 -56 190 -79 q 309 0 253 -33 l 47 0 l 58 58 l 178 94 z "},"J":{"ha":466,"x_min":31,"x_max":429,"o":"m 31 882 l 43 939 l 429 939 l 419 881 l 305 844 l 305 288 q 291 82 305 153 q 238 -52 277 10 q 105 -225 199 -114 l 60 -193 q 132 -18 90 -129 q 175 119 175 94 l 175 845 l 31 882 z "},"K":{"ha":956,"x_min":47,"x_max":951,"o":"m 178 94 l 178 845 l 52 884 l 64 939 l 444 939 l 433 880 l 308 844 l 308 102 l 449 64 l 435 0 l 47 0 l 58 58 l 178 94 m 823 99 l 951 55 l 939 0 l 671 0 l 680 48 l 353 477 l 691 845 l 559 884 l 571 939 l 937 939 l 925 880 l 815 843 l 492 509 l 823 99 z "},"Ķ":{"ha":956,"x_min":47,"x_max":951,"o":"m 178 94 l 178 845 l 52 884 l 64 939 l 444 939 l 433 880 l 308 844 l 308 102 l 449 64 l 435 0 l 47 0 l 58 58 l 178 94 m 823 99 l 951 55 l 939 0 l 671 0 l 680 48 l 353 477 l 691 845 l 559 884 l 571 939 l 937 939 l 925 880 l 815 843 l 492 509 l 823 99 m 426 -64 q 480 -75 454 -65 q 524 -103 505 -85 q 549 -137 540 -118 q 557 -177 557 -156 q 530 -253 557 -220 q 467 -303 503 -286 q 408 -320 431 -320 l 397 -290 q 459 -237 440 -258 q 477 -196 477 -216 q 462 -165 477 -178 q 407 -140 447 -151 l 426 -64 z "},"L":{"ha":808,"x_min":47,"x_max":804,"o":"m 753 232 l 804 218 l 755 0 l 47 0 l 57 58 l 178 96 l 178 846 l 52 882 l 63 939 l 446 939 l 435 880 l 309 843 l 309 68 l 665 105 l 753 232 z "},"Ĺ":{"ha":808,"x_min":47,"x_max":804,"o":"m 753 232 l 804 218 l 755 0 l 47 0 l 57 58 l 178 96 l 178 846 l 52 882 l 63 939 l 446 939 l 435 880 l 309 843 l 309 68 l 665 105 l 753 232 m 134 1084 l 384 1211 l 425 1211 l 444 1109 l 146 1013 l 134 1084 z "},"Ľ":{"ha":808,"x_min":47,"x_max":804,"o":"m 554 666 q 619 844 602 764 l 565 867 l 574 935 q 711 949 658 949 q 724 895 724 923 q 688 771 724 840 q 600 653 652 703 l 554 666 m 753 232 l 804 218 l 755 0 l 47 0 l 57 58 l 178 96 l 178 846 l 52 882 l 63 939 l 446 939 l 435 880 l 309 843 l 309 68 l 665 105 l 753 232 z "},"Ļ":{"ha":808,"x_min":47,"x_max":804,"o":"m 753 232 l 804 218 l 755 0 l 47 0 l 57 58 l 178 96 l 178 846 l 52 882 l 63 939 l 446 939 l 435 880 l 309 843 l 309 68 l 665 105 l 753 232 m 352 -64 q 406 -75 380 -65 q 450 -103 431 -85 q 475 -137 466 -118 q 484 -177 484 -156 q 456 -253 484 -220 q 393 -303 429 -286 q 334 -320 357 -320 l 323 -290 q 385 -237 366 -258 q 404 -196 404 -216 q 388 -165 404 -178 q 333 -140 373 -151 l 352 -64 z "},"Ł":{"ha":808,"x_min":33,"x_max":804,"o":"m 804 218 l 755 0 l 47 0 l 57 58 l 178 96 l 178 387 l 52 330 l 33 418 l 178 483 l 178 846 l 52 882 l 63 939 l 446 939 l 435 880 l 309 843 l 309 541 l 642 690 l 663 607 l 309 446 l 309 68 l 665 105 l 753 232 l 804 218 z "},"M":{"ha":1277,"x_min":48,"x_max":1230,"o":"m 53 876 l 66 939 l 311 939 l 650 168 l 966 939 l 1230 939 l 1219 874 l 1097 838 l 1097 94 l 1226 56 l 1214 0 l 836 0 l 847 58 l 967 94 l 967 779 q 671 17 856 459 l 574 -10 l 252 775 q 267 515 264 686 q 270 94 270 344 l 401 57 l 389 0 l 48 0 l 60 59 l 178 94 l 178 838 l 53 876 z "},"N":{"ha":1034,"x_min":50,"x_max":998,"o":"m 178 94 l 178 845 l 50 882 l 63 939 l 282 939 l 791 203 q 780 489 782 346 q 778 846 778 631 l 640 882 l 651 939 l 998 939 l 987 882 l 873 844 l 873 10 l 775 -17 l 256 745 q 270 456 267 601 q 273 94 273 311 l 412 57 l 399 0 l 51 0 l 62 58 l 178 94 z "},"Ń":{"ha":1034,"x_min":50,"x_max":998,"o":"m 178 94 l 178 845 l 50 882 l 63 939 l 282 939 l 791 203 q 780 489 782 346 q 778 846 778 631 l 640 882 l 651 939 l 998 939 l 987 882 l 873 844 l 873 10 l 775 -17 l 256 745 q 270 456 267 601 q 273 94 273 311 l 412 57 l 399 0 l 51 0 l 62 58 l 178 94 m 397 1084 l 646 1211 l 688 1211 l 706 1109 l 409 1013 l 397 1084 z "},"Ň":{"ha":1034,"x_min":50,"x_max":998,"o":"m 178 94 l 178 845 l 50 882 l 63 939 l 282 939 l 791 203 q 780 489 782 346 q 778 846 778 631 l 640 882 l 651 939 l 998 939 l 987 882 l 873 844 l 873 10 l 775 -17 l 256 745 q 270 456 267 601 q 273 94 273 311 l 412 57 l 399 0 l 51 0 l 62 58 l 178 94 m 311 1173 l 353 1217 l 517 1129 l 682 1217 l 724 1173 l 550 1027 l 485 1027 l 311 1173 z "},"Ņ":{"ha":1034,"x_min":50,"x_max":998,"o":"m 178 94 l 178 845 l 50 882 l 63 939 l 282 939 l 791 203 q 780 489 782 346 q 778 846 778 631 l 640 882 l 651 939 l 998 939 l 987 882 l 873 844 l 873 10 l 775 -17 l 256 745 q 270 456 267 601 q 273 94 273 311 l 412 57 l 399 0 l 51 0 l 62 58 l 178 94 m 465 -64 q 519 -75 494 -65 q 564 -103 545 -85 q 588 -137 579 -118 q 597 -177 597 -156 q 570 -253 597 -220 q 507 -303 543 -286 q 447 -320 471 -320 l 437 -290 q 498 -237 479 -258 q 517 -196 517 -216 q 502 -165 517 -178 q 446 -140 486 -151 l 465 -64 z "},"Ñ":{"ha":1034,"x_min":50,"x_max":998,"o":"m 178 94 l 178 845 l 50 882 l 63 939 l 282 939 l 791 203 q 780 489 782 346 q 778 846 778 631 l 640 882 l 651 939 l 998 939 l 987 882 l 873 844 l 873 10 l 775 -17 l 256 745 q 270 456 267 601 q 273 94 273 311 l 412 57 l 399 0 l 51 0 l 62 58 l 178 94 m 292 1121 q 342 1170 321 1152 q 388 1201 363 1189 q 440 1214 413 1214 q 495 1200 470 1214 q 553 1159 519 1185 q 582 1137 571 1144 q 603 1129 593 1129 q 659 1150 621 1129 q 730 1199 696 1171 l 742 1124 q 668 1056 703 1080 q 594 1031 633 1031 q 538 1046 564 1031 q 483 1086 513 1061 q 453 1108 465 1101 q 433 1116 442 1116 q 374 1095 412 1116 q 307 1046 335 1075 l 292 1121 z "},"O":{"ha":953,"x_min":61,"x_max":892,"o":"m 61 422 q 112 691 61 568 q 263 888 163 814 q 504 962 363 962 q 699 908 610 962 q 840 753 787 854 q 892 517 892 652 q 840 247 892 370 q 688 50 787 123 q 456 -24 589 -24 q 255 30 345 -24 q 113 185 165 84 q 61 422 61 286 m 281 196 q 385 114 322 144 q 515 83 447 83 q 605 98 562 83 q 678 144 648 113 q 734 265 715 184 q 753 418 753 347 q 746 560 753 502 q 719 666 739 618 q 652 765 695 722 q 554 831 609 808 q 441 855 499 855 q 353 841 397 855 q 279 798 309 827 q 235 723 252 772 q 209 618 217 673 q 200 519 200 564 q 217 336 200 417 q 281 196 234 254 z "},"Ó":{"ha":953,"x_min":61,"x_max":892,"o":"m 61 422 q 112 691 61 568 q 263 888 163 814 q 504 962 363 962 q 699 908 610 962 q 840 753 787 854 q 892 517 892 652 q 840 247 892 370 q 688 50 787 123 q 456 -24 589 -24 q 255 30 345 -24 q 113 185 165 84 q 61 422 61 286 m 281 196 q 385 114 322 144 q 515 83 447 83 q 605 98 562 83 q 678 144 648 113 q 734 265 715 184 q 753 418 753 347 q 746 560 753 502 q 719 666 739 618 q 652 765 695 722 q 554 831 609 808 q 441 855 499 855 q 353 841 397 855 q 279 798 309 827 q 235 723 252 772 q 209 618 217 673 q 200 519 200 564 q 217 336 200 417 q 281 196 234 254 m 357 1084 l 607 1211 l 648 1211 l 667 1109 l 370 1013 l 357 1084 z "},"Ô":{"ha":953,"x_min":61,"x_max":892,"o":"m 61 422 q 112 691 61 568 q 263 888 163 814 q 504 962 363 962 q 699 908 610 962 q 840 753 787 854 q 892 517 892 652 q 840 247 892 370 q 688 50 787 123 q 456 -24 589 -24 q 255 30 345 -24 q 113 185 165 84 q 61 422 61 286 m 281 196 q 385 114 322 144 q 515 83 447 83 q 605 98 562 83 q 678 144 648 113 q 734 265 715 184 q 753 418 753 347 q 746 560 753 502 q 719 666 739 618 q 652 765 695 722 q 554 831 609 808 q 441 855 499 855 q 353 841 397 855 q 279 798 309 827 q 235 723 252 772 q 209 618 217 673 q 200 519 200 564 q 217 336 200 417 q 281 196 234 254 m 271 1065 l 445 1211 l 511 1211 l 686 1065 l 643 1020 l 478 1108 l 313 1020 l 271 1065 z "},"Ö":{"ha":953,"x_min":61,"x_max":892,"o":"m 61 422 q 112 691 61 568 q 263 888 163 814 q 504 962 363 962 q 699 908 610 962 q 840 753 787 854 q 892 517 892 652 q 840 247 892 370 q 688 50 787 123 q 456 -24 589 -24 q 255 30 345 -24 q 113 185 165 84 q 61 422 61 286 m 281 196 q 385 114 322 144 q 515 83 447 83 q 605 98 562 83 q 678 144 648 113 q 734 265 715 184 q 753 418 753 347 q 746 560 753 502 q 719 666 739 618 q 652 765 695 722 q 554 831 609 808 q 441 855 499 855 q 353 841 397 855 q 279 798 309 827 q 235 723 252 772 q 209 618 217 673 q 200 519 200 564 q 217 336 200 417 q 281 196 234 254 m 547 1046 q 541 1081 541 1055 q 546 1127 541 1105 q 561 1155 551 1149 q 593 1162 568 1162 q 639 1156 616 1162 q 669 1141 662 1150 q 675 1107 675 1133 q 669 1062 675 1084 q 655 1031 664 1039 q 623 1026 646 1026 q 576 1031 599 1026 q 547 1046 554 1037 m 288 1046 q 281 1080 281 1053 q 287 1126 281 1103 q 301 1155 292 1148 q 333 1161 309 1161 q 379 1155 356 1161 q 410 1141 402 1149 q 416 1107 416 1132 q 410 1061 416 1084 q 395 1031 405 1039 q 363 1026 388 1026 q 317 1031 339 1026 q 288 1046 294 1037 z "},"Ò":{"ha":953,"x_min":61,"x_max":892,"o":"m 61 422 q 112 691 61 568 q 263 888 163 814 q 504 962 363 962 q 699 908 610 962 q 840 753 787 854 q 892 517 892 652 q 840 247 892 370 q 688 50 787 123 q 456 -24 589 -24 q 255 30 345 -24 q 113 185 165 84 q 61 422 61 286 m 281 196 q 385 114 322 144 q 515 83 447 83 q 605 98 562 83 q 678 144 648 113 q 734 265 715 184 q 753 418 753 347 q 746 560 753 502 q 719 666 739 618 q 652 765 695 722 q 554 831 609 808 q 441 855 499 855 q 353 841 397 855 q 279 798 309 827 q 235 723 252 772 q 209 618 217 673 q 200 519 200 564 q 217 336 200 417 q 281 196 234 254 m 323 1109 l 342 1211 l 383 1211 l 633 1085 l 620 1014 l 323 1109 z "},"Ő":{"ha":953,"x_min":61,"x_max":892,"o":"m 61 422 q 112 691 61 568 q 263 888 163 814 q 504 962 363 962 q 699 908 610 962 q 840 753 787 854 q 892 517 892 652 q 840 247 892 370 q 688 50 787 123 q 456 -24 589 -24 q 255 30 345 -24 q 113 185 165 84 q 61 422 61 286 m 281 196 q 385 114 322 144 q 515 83 447 83 q 605 98 562 83 q 678 144 648 113 q 734 265 715 184 q 753 418 753 347 q 746 560 753 502 q 719 666 739 618 q 652 765 695 722 q 554 831 609 808 q 441 855 499 855 q 353 841 397 855 q 279 798 309 827 q 235 723 252 772 q 209 618 217 673 q 200 519 200 564 q 217 336 200 417 q 281 196 234 254 m 427 1221 l 502 1221 l 515 1152 l 339 990 l 314 1088 l 427 1221 m 628 1221 l 703 1221 l 717 1152 l 541 990 l 515 1088 l 628 1221 z "},"Ō":{"ha":953,"x_min":61,"x_max":892,"o":"m 61 422 q 112 691 61 568 q 263 888 163 814 q 504 962 363 962 q 699 908 610 962 q 840 753 787 854 q 892 517 892 652 q 840 247 892 370 q 688 50 787 123 q 456 -24 589 -24 q 255 30 345 -24 q 113 185 165 84 q 61 422 61 286 m 281 196 q 385 114 322 144 q 515 83 447 83 q 605 98 562 83 q 678 144 648 113 q 734 265 715 184 q 753 418 753 347 q 746 560 753 502 q 719 666 739 618 q 652 765 695 722 q 554 831 609 808 q 441 855 499 855 q 353 841 397 855 q 279 798 309 827 q 235 723 252 772 q 209 618 217 673 q 200 519 200 564 q 217 336 200 417 q 281 196 234 254 m 312 1133 l 661 1133 l 646 1053 q 472 1046 574 1048 q 293 1044 370 1044 l 312 1133 z "},"Ø":{"ha":953,"x_min":61,"x_max":892,"o":"m 713 899 q 844 744 796 842 q 892 517 892 646 q 840 247 892 370 q 688 50 787 123 q 456 -24 589 -24 q 348 -9 399 -24 l 310 -103 l 215 -68 l 254 30 q 113 185 164 84 q 61 422 61 287 q 112 691 61 568 q 263 888 163 814 q 504 962 363 962 q 623 943 566 962 l 654 1023 l 749 987 l 713 899 m 274 196 q 307 161 293 174 l 576 828 q 448 859 515 859 q 357 843 404 859 q 279 798 309 827 q 235 723 252 772 q 209 619 217 674 q 200 519 200 564 q 215 335 200 416 q 274 196 231 254 m 678 145 q 734 266 715 184 q 753 418 753 347 q 747 566 753 507 q 722 671 741 624 q 660 766 699 725 l 394 105 q 509 81 450 81 q 602 97 555 81 q 678 145 648 113 z "},"Õ":{"ha":953,"x_min":61,"x_max":892,"o":"m 61 422 q 112 691 61 568 q 263 888 163 814 q 504 962 363 962 q 699 908 610 962 q 840 753 787 854 q 892 517 892 652 q 840 247 892 370 q 688 50 787 123 q 456 -24 589 -24 q 255 30 345 -24 q 113 185 165 84 q 61 422 61 286 m 281 196 q 385 114 322 144 q 515 83 447 83 q 605 98 562 83 q 678 144 648 113 q 734 265 715 184 q 753 418 753 347 q 746 560 753 502 q 719 666 739 618 q 652 765 695 722 q 554 831 609 808 q 441 855 499 855 q 353 841 397 855 q 279 798 309 827 q 235 723 252 772 q 209 618 217 673 q 200 519 200 564 q 217 336 200 417 q 281 196 234 254 m 253 1121 q 303 1170 282 1152 q 349 1201 324 1189 q 401 1214 374 1214 q 455 1200 431 1214 q 513 1159 480 1185 q 543 1137 532 1144 q 564 1129 554 1129 q 619 1150 582 1129 q 690 1199 656 1171 l 703 1124 q 629 1056 663 1080 q 555 1031 594 1031 q 499 1046 525 1031 q 444 1086 473 1061 q 414 1108 425 1101 q 393 1116 403 1116 q 334 1095 373 1116 q 267 1046 296 1075 l 253 1121 z "},"Œ":{"ha":1292,"x_min":61,"x_max":1258,"o":"m 595 0 q 456 -24 527 -24 q 255 30 345 -24 q 113 185 165 84 q 61 422 61 286 q 112 691 61 568 q 263 888 163 814 q 504 962 363 962 q 636 939 572 962 l 1099 939 l 1185 947 l 1208 709 l 1147 694 l 1080 845 l 786 879 l 786 503 q 972 519 867 514 l 1012 633 l 1061 618 l 1048 314 l 999 324 l 971 433 q 786 447 864 435 l 786 67 l 1124 105 l 1207 230 l 1258 218 l 1206 0 l 595 0 m 515 84 q 590 94 553 84 q 656 125 627 104 l 656 781 q 558 837 614 818 q 441 856 503 856 q 354 841 397 856 q 279 798 310 827 q 235 723 253 772 q 209 619 217 673 q 200 519 200 564 q 217 336 200 418 q 281 197 234 255 q 385 114 322 144 q 515 84 447 84 z "},"P":{"ha":780,"x_min":45,"x_max":744,"o":"m 178 94 l 178 845 l 51 883 l 62 939 l 320 939 q 448 935 394 939 q 557 916 502 931 q 654 868 612 900 q 720 784 696 836 q 744 661 744 732 q 718 546 744 597 q 644 460 691 495 q 528 406 596 423 q 393 389 459 389 l 401 433 q 524 495 483 468 q 584 561 564 522 q 603 666 603 600 q 522 831 603 781 q 309 884 441 882 l 309 94 l 468 56 l 456 0 l 45 0 l 58 58 l 178 94 z "},"Þ":{"ha":781,"x_min":46,"x_max":743,"o":"m 669 694 q 743 498 743 628 q 717 383 743 435 q 644 297 691 332 q 526 242 593 260 q 392 225 458 225 l 401 272 q 523 331 481 304 q 584 398 564 358 q 603 503 603 437 q 309 721 603 715 l 309 95 l 467 57 l 453 0 l 46 0 l 58 59 l 178 95 l 178 845 l 51 882 l 62 939 l 442 939 l 431 881 l 309 844 l 309 776 q 526 759 437 775 q 669 694 614 742 z "},"Q":{"ha":954,"x_min":61,"x_max":895,"o":"m 869 -218 q 728 -155 827 -218 q 541 -15 629 -91 q 456 -24 502 -24 q 255 30 345 -24 q 113 185 165 84 q 61 422 61 286 q 112 691 61 568 q 263 888 163 814 q 504 962 363 962 q 699 908 610 962 q 840 753 787 854 q 892 517 892 652 q 839 243 892 368 q 686 48 785 119 l 895 -174 l 869 -218 m 281 196 q 385 114 322 144 q 515 83 447 83 q 605 98 562 83 q 678 144 648 113 q 734 265 715 184 q 753 418 753 347 q 746 560 753 502 q 719 666 739 618 q 652 765 695 722 q 554 831 609 808 q 441 855 499 855 q 353 841 397 855 q 279 798 309 827 q 235 723 252 772 q 209 618 217 673 q 200 519 200 564 q 217 336 200 417 q 281 196 234 254 z "},"R":{"ha":877,"x_min":47,"x_max":883,"o":"m 178 94 l 178 845 l 52 883 l 63 939 l 313 939 q 441 935 388 939 q 550 917 495 931 q 650 872 604 903 q 720 795 694 843 q 746 692 746 747 q 541 454 746 513 l 751 100 l 883 55 l 870 0 l 615 0 l 625 52 l 399 465 q 534 534 489 498 q 593 606 579 570 q 607 693 607 643 q 563 799 607 758 q 451 861 519 841 q 309 884 384 881 l 309 102 l 448 65 l 434 0 l 47 0 l 56 57 l 178 94 z "},"Ŕ":{"ha":877,"x_min":47,"x_max":883,"o":"m 178 94 l 178 845 l 52 883 l 63 939 l 313 939 q 441 935 388 939 q 550 917 495 931 q 650 872 604 903 q 720 795 694 843 q 746 692 746 747 q 541 454 746 513 l 751 100 l 883 55 l 870 0 l 615 0 l 625 52 l 399 465 q 534 534 489 498 q 593 606 579 570 q 607 693 607 643 q 563 799 607 758 q 451 861 519 841 q 309 884 384 881 l 309 102 l 448 65 l 434 0 l 47 0 l 56 57 l 178 94 m 284 1084 l 534 1211 l 575 1211 l 593 1109 l 296 1013 l 284 1084 z "},"Ř":{"ha":877,"x_min":47,"x_max":883,"o":"m 178 94 l 178 845 l 52 883 l 63 939 l 313 939 q 441 935 388 939 q 550 917 495 931 q 650 872 604 903 q 720 795 694 843 q 746 692 746 747 q 541 454 746 513 l 751 100 l 883 55 l 870 0 l 615 0 l 625 52 l 399 465 q 534 534 489 498 q 593 606 579 570 q 607 693 607 643 q 563 799 607 758 q 451 861 519 841 q 309 884 384 881 l 309 102 l 448 65 l 434 0 l 47 0 l 56 57 l 178 94 m 198 1173 l 240 1217 l 405 1129 l 570 1217 l 612 1173 l 437 1027 l 372 1027 l 198 1173 z "},"Ŗ":{"ha":877,"x_min":47,"x_max":883,"o":"m 178 94 l 178 845 l 52 883 l 63 939 l 313 939 q 441 935 388 939 q 550 917 495 931 q 650 872 604 903 q 720 795 694 843 q 746 692 746 747 q 541 454 746 513 l 751 100 l 883 55 l 870 0 l 615 0 l 625 52 l 399 465 q 534 534 489 498 q 593 606 579 570 q 607 693 607 643 q 563 799 607 758 q 451 861 519 841 q 309 884 384 881 l 309 102 l 448 65 l 434 0 l 47 0 l 56 57 l 178 94 m 393 -64 q 447 -75 422 -65 q 492 -103 473 -85 q 516 -137 507 -118 q 525 -177 525 -156 q 498 -253 525 -220 q 435 -303 471 -286 q 375 -320 399 -320 l 365 -290 q 426 -237 408 -258 q 445 -196 445 -216 q 430 -165 445 -178 q 374 -140 414 -151 l 393 -64 z "},"S":{"ha":719,"x_min":45,"x_max":656,"o":"m 488 878 q 456 878 477 878 q 349 867 398 878 q 267 840 299 857 q 224 806 234 823 q 213 771 217 793 q 210 728 210 749 q 233 644 210 675 q 297 592 256 612 q 421 541 337 572 q 546 482 496 512 q 626 403 595 452 q 656 280 656 354 q 613 121 656 190 q 492 14 570 52 q 316 -24 415 -24 q 164 -1 236 -24 q 45 56 92 22 l 96 275 l 167 256 l 181 75 q 239 73 208 73 q 396 91 321 73 q 494 142 471 108 q 511 184 505 157 q 517 240 517 211 q 492 331 517 296 q 431 386 468 366 q 326 433 394 406 q 199 492 250 461 q 116 575 149 524 q 83 706 83 627 q 127 840 83 782 q 245 930 172 899 q 406 962 319 962 q 479 956 441 962 q 540 943 517 949 l 611 945 l 635 709 l 572 692 l 488 878 z "},"Ś":{"ha":719,"x_min":45,"x_max":656,"o":"m 488 878 q 456 878 477 878 q 349 867 398 878 q 267 840 299 857 q 224 806 234 823 q 213 771 217 793 q 210 728 210 749 q 233 644 210 675 q 297 592 256 612 q 421 541 337 572 q 546 482 496 512 q 626 403 595 452 q 656 280 656 354 q 613 121 656 190 q 492 14 570 52 q 316 -24 415 -24 q 164 -1 236 -24 q 45 56 92 22 l 96 275 l 167 256 l 181 75 q 239 73 208 73 q 396 91 321 73 q 494 142 471 108 q 511 184 505 157 q 517 240 517 211 q 492 331 517 296 q 431 386 468 366 q 326 433 394 406 q 199 492 250 461 q 116 575 149 524 q 83 706 83 627 q 127 840 83 782 q 245 930 172 899 q 406 962 319 962 q 479 956 441 962 q 540 943 517 949 l 611 945 l 635 709 l 572 692 l 488 878 m 239 1084 l 488 1211 l 530 1211 l 548 1109 l 251 1013 l 239 1084 z "},"Š":{"ha":719,"x_min":45,"x_max":656,"o":"m 488 878 q 456 878 477 878 q 349 867 398 878 q 267 840 299 857 q 224 806 234 823 q 213 771 217 793 q 210 728 210 749 q 233 644 210 675 q 297 592 256 612 q 421 541 337 572 q 546 482 496 512 q 626 403 595 452 q 656 280 656 354 q 613 121 656 190 q 492 14 570 52 q 316 -24 415 -24 q 164 -1 236 -24 q 45 56 92 22 l 96 275 l 167 256 l 181 75 q 239 73 208 73 q 396 91 321 73 q 494 142 471 108 q 511 184 505 157 q 517 240 517 211 q 492 331 517 296 q 431 386 468 366 q 326 433 394 406 q 199 492 250 461 q 116 575 149 524 q 83 706 83 627 q 127 840 83 782 q 245 930 172 899 q 406 962 319 962 q 479 956 441 962 q 540 943 517 949 l 611 945 l 635 709 l 572 692 l 488 878 m 153 1173 l 195 1217 l 359 1129 l 524 1217 l 566 1173 l 392 1027 l 327 1027 l 153 1173 z "},"Ş":{"ha":719,"x_min":45,"x_max":656,"o":"m 656 280 q 622 137 656 200 q 526 33 588 73 q 382 -19 463 -7 l 355 -77 q 456 -115 415 -87 q 496 -189 496 -144 q 456 -275 496 -241 q 355 -324 416 -309 q 230 -339 294 -339 l 220 -303 q 328 -253 291 -273 q 378 -221 366 -233 q 391 -199 391 -209 q 354 -159 391 -179 q 249 -119 316 -140 q 312 -24 270 -75 q 162 0 233 -23 q 45 56 92 23 l 96 275 l 167 256 l 181 75 q 239 73 208 73 q 396 91 321 73 q 494 142 471 108 q 511 184 505 157 q 517 240 517 211 q 492 331 517 296 q 431 386 468 366 q 326 433 394 406 q 199 492 250 461 q 116 575 149 524 q 83 706 83 627 q 127 840 83 782 q 245 930 172 899 q 406 962 319 962 q 479 956 441 962 q 540 943 517 949 l 611 945 l 635 709 l 572 692 l 488 878 q 456 878 477 878 q 349 867 398 878 q 267 840 299 857 q 224 806 234 823 q 213 771 217 793 q 210 728 210 749 q 233 644 210 675 q 297 592 256 612 q 421 541 337 572 q 546 482 496 512 q 626 403 595 452 q 656 280 656 354 z "},"Ș":{"ha":719,"x_min":45,"x_max":656,"o":"m 488 878 q 456 878 477 878 q 349 867 398 878 q 267 840 299 857 q 224 806 234 823 q 213 771 217 793 q 210 728 210 749 q 233 644 210 675 q 297 592 256 612 q 421 541 337 572 q 546 482 496 512 q 626 403 595 452 q 656 280 656 354 q 613 121 656 190 q 492 14 570 52 q 316 -24 415 -24 q 164 -1 236 -24 q 45 56 92 22 l 96 275 l 167 256 l 181 75 q 239 73 208 73 q 396 91 321 73 q 494 142 471 108 q 511 184 505 157 q 517 240 517 211 q 492 331 517 296 q 431 386 468 366 q 326 433 394 406 q 199 492 250 461 q 116 575 149 524 q 83 706 83 627 q 127 840 83 782 q 245 930 172 899 q 406 962 319 962 q 479 956 441 962 q 540 943 517 949 l 611 945 l 635 709 l 572 692 l 488 878 m 307 -64 q 361 -75 336 -65 q 406 -103 387 -85 q 430 -137 421 -118 q 439 -177 439 -156 q 412 -253 439 -220 q 349 -303 385 -286 q 289 -320 313 -320 l 279 -290 q 340 -237 321 -258 q 359 -196 359 -216 q 343 -165 359 -178 q 288 -140 328 -151 l 307 -64 z "},"T":{"ha":918,"x_min":9,"x_max":898,"o":"m 391 98 l 391 873 l 167 849 l 72 680 l 9 694 l 65 945 l 154 939 l 785 939 l 871 947 l 898 692 l 838 673 l 755 848 l 522 874 l 522 97 l 670 61 l 658 0 l 250 0 l 262 61 l 391 98 z "},"Ť":{"ha":918,"x_min":9,"x_max":898,"o":"m 391 98 l 391 873 l 167 849 l 72 680 l 9 694 l 65 945 l 154 939 l 785 939 l 871 947 l 898 692 l 838 673 l 755 848 l 522 874 l 522 97 l 670 61 l 658 0 l 250 0 l 262 61 l 391 98 m 252 1173 l 294 1217 l 459 1129 l 624 1217 l 666 1173 l 492 1027 l 427 1027 l 252 1173 z "},"Ț":{"ha":918,"x_min":9,"x_max":898,"o":"m 391 98 l 391 873 l 167 849 l 72 680 l 9 694 l 65 945 l 154 939 l 785 939 l 871 947 l 898 692 l 838 673 l 755 848 l 522 874 l 522 97 l 670 61 l 658 0 l 250 0 l 262 61 l 391 98 m 404 -64 q 458 -75 433 -65 q 503 -103 484 -85 q 527 -137 518 -118 q 536 -177 536 -156 q 509 -253 536 -220 q 446 -303 481 -286 q 386 -320 410 -320 l 376 -290 q 437 -237 418 -258 q 456 -196 456 -216 q 440 -165 456 -178 q 385 -140 425 -151 l 404 -64 z "},"U":{"ha":994,"x_min":33,"x_max":962,"o":"m 279 363 q 314 213 279 279 q 410 108 349 146 q 549 70 472 70 q 626 83 591 70 q 685 122 660 97 q 734 206 718 155 q 751 323 751 258 l 751 842 l 618 882 l 629 939 l 962 939 l 951 881 l 848 842 l 848 320 q 807 141 848 218 q 687 20 767 63 q 494 -24 608 -24 q 302 19 380 -24 q 186 139 224 62 q 149 318 149 216 l 149 845 l 33 882 l 43 939 l 423 939 l 408 869 l 279 838 l 279 363 z "},"Ú":{"ha":994,"x_min":33,"x_max":962,"o":"m 279 363 q 314 213 279 279 q 410 108 349 146 q 549 70 472 70 q 626 83 591 70 q 685 122 660 97 q 734 206 718 155 q 751 323 751 258 l 751 842 l 618 882 l 629 939 l 962 939 l 951 881 l 848 842 l 848 320 q 807 141 848 218 q 687 20 767 63 q 494 -24 608 -24 q 302 19 380 -24 q 186 139 224 62 q 149 318 149 216 l 149 845 l 33 882 l 43 939 l 423 939 l 408 869 l 279 838 l 279 363 m 404 1084 l 653 1211 l 694 1211 l 713 1109 l 416 1013 l 404 1084 z "},"Û":{"ha":994,"x_min":33,"x_max":962,"o":"m 279 363 q 314 213 279 279 q 410 108 349 146 q 549 70 472 70 q 626 83 591 70 q 685 122 660 97 q 734 206 718 155 q 751 323 751 258 l 751 842 l 618 882 l 629 939 l 962 939 l 951 881 l 848 842 l 848 320 q 807 141 848 218 q 687 20 767 63 q 494 -24 608 -24 q 302 19 380 -24 q 186 139 224 62 q 149 318 149 216 l 149 845 l 33 882 l 43 939 l 423 939 l 408 869 l 279 838 l 279 363 m 317 1065 l 491 1211 l 557 1211 l 732 1065 l 689 1020 l 524 1108 l 359 1020 l 317 1065 z "},"Ü":{"ha":994,"x_min":33,"x_max":962,"o":"m 279 363 q 314 213 279 279 q 410 108 349 146 q 549 70 472 70 q 626 83 591 70 q 685 122 660 97 q 734 206 718 155 q 751 323 751 258 l 751 842 l 618 882 l 629 939 l 962 939 l 951 881 l 848 842 l 848 320 q 807 141 848 218 q 687 20 767 63 q 494 -24 608 -24 q 302 19 380 -24 q 186 139 224 62 q 149 318 149 216 l 149 845 l 33 882 l 43 939 l 423 939 l 408 869 l 279 838 l 279 363 m 593 1046 q 587 1081 587 1055 q 592 1127 587 1105 q 607 1155 597 1149 q 639 1162 614 1162 q 685 1156 662 1162 q 715 1141 708 1150 q 721 1107 721 1133 q 715 1062 721 1084 q 701 1031 710 1039 q 669 1026 692 1026 q 623 1031 645 1026 q 593 1046 600 1037 m 334 1046 q 327 1080 327 1053 q 333 1126 327 1103 q 347 1155 338 1148 q 379 1161 355 1161 q 425 1155 402 1161 q 456 1141 448 1149 q 462 1107 462 1132 q 456 1061 462 1084 q 441 1031 451 1039 q 409 1026 434 1026 q 363 1031 385 1026 q 334 1046 340 1037 z "},"Ù":{"ha":994,"x_min":33,"x_max":962,"o":"m 279 363 q 314 213 279 279 q 410 108 349 146 q 549 70 472 70 q 626 83 591 70 q 685 122 660 97 q 734 206 718 155 q 751 323 751 258 l 751 842 l 618 882 l 629 939 l 962 939 l 951 881 l 848 842 l 848 320 q 807 141 848 218 q 687 20 767 63 q 494 -24 608 -24 q 302 19 380 -24 q 186 139 224 62 q 149 318 149 216 l 149 845 l 33 882 l 43 939 l 423 939 l 408 869 l 279 838 l 279 363 m 370 1109 l 388 1211 l 429 1211 l 679 1085 l 666 1014 l 370 1109 z "},"Ű":{"ha":994,"x_min":33,"x_max":962,"o":"m 279 363 q 314 213 279 279 q 410 108 349 146 q 549 70 472 70 q 626 83 591 70 q 685 122 660 97 q 734 206 718 155 q 751 323 751 258 l 751 842 l 618 882 l 629 939 l 962 939 l 951 881 l 848 842 l 848 320 q 807 141 848 218 q 687 20 767 63 q 494 -24 608 -24 q 302 19 380 -24 q 186 139 224 62 q 149 318 149 216 l 149 845 l 33 882 l 43 939 l 423 939 l 408 869 l 279 838 l 279 363 m 473 1221 l 548 1221 l 562 1152 l 385 990 l 360 1088 l 473 1221 m 674 1221 l 749 1221 l 763 1152 l 587 990 l 562 1088 l 674 1221 z "},"Ū":{"ha":994,"x_min":33,"x_max":962,"o":"m 279 363 q 314 213 279 279 q 410 108 349 146 q 549 70 472 70 q 626 83 591 70 q 685 122 660 97 q 734 206 718 155 q 751 323 751 258 l 751 842 l 618 882 l 629 939 l 962 939 l 951 881 l 848 842 l 848 320 q 807 141 848 218 q 687 20 767 63 q 494 -24 608 -24 q 302 19 380 -24 q 186 139 224 62 q 149 318 149 216 l 149 845 l 33 882 l 43 939 l 423 939 l 408 869 l 279 838 l 279 363 m 358 1133 l 707 1133 l 692 1053 q 518 1046 621 1048 q 339 1044 416 1044 l 358 1133 z "},"Ų":{"ha":994,"x_min":31,"x_max":964,"o":"m 279 363 q 314 213 279 279 q 411 108 349 146 q 550 70 473 70 q 700 137 648 70 q 751 323 751 205 l 751 842 l 616 882 l 630 939 l 964 939 l 949 880 l 848 842 l 848 320 q 827 183 848 241 q 772 86 806 125 q 688 9 738 47 q 544 -160 544 -97 q 560 -206 544 -184 q 600 -237 576 -228 q 624 -241 610 -241 q 673 -233 645 -241 q 728 -212 701 -225 l 744 -239 q 661 -301 699 -279 q 581 -322 623 -322 q 513 -307 545 -322 q 463 -262 482 -292 q 444 -195 444 -233 q 501 -71 444 -128 q 536 -43 515 -58 q 578 -17 557 -28 q 495 -24 544 -24 q 303 19 380 -24 q 187 139 225 62 q 149 318 149 216 l 149 845 l 31 883 l 44 939 l 423 939 l 409 869 l 279 838 l 279 363 z "},"Ů":{"ha":994,"x_min":33,"x_max":962,"o":"m 279 363 q 314 213 279 279 q 410 108 349 146 q 549 70 472 70 q 626 83 591 70 q 685 122 660 97 q 734 206 718 155 q 751 323 751 258 l 751 842 l 618 882 l 629 939 l 962 939 l 951 881 l 848 842 l 848 320 q 807 141 848 218 q 687 20 767 63 q 494 -24 608 -24 q 302 19 380 -24 q 186 139 224 62 q 149 318 149 216 l 149 845 l 33 882 l 43 939 l 423 939 l 408 869 l 279 838 l 279 363 m 523 1001 q 460 1015 489 1001 q 415 1055 432 1029 q 399 1115 399 1081 q 415 1179 399 1150 q 460 1224 431 1208 q 528 1240 489 1240 q 588 1226 559 1240 q 633 1185 616 1211 q 650 1126 650 1159 q 633 1061 650 1090 q 588 1017 617 1033 q 523 1001 559 1001 m 529 1064 q 564 1078 551 1064 q 576 1114 576 1093 q 561 1160 576 1141 q 518 1179 545 1179 q 484 1163 497 1179 q 471 1126 471 1147 q 486 1082 471 1101 q 529 1064 500 1064 z "},"V":{"ha":912,"x_min":-18,"x_max":929,"o":"m 731 852 l 608 875 l 620 939 l 929 939 l 916 874 l 829 849 l 517 0 l 417 -24 l 73 849 l -18 873 l -7 939 l 354 939 l 343 876 l 231 848 l 496 137 l 731 852 z "},"W":{"ha":1345,"x_min":-6,"x_max":1362,"o":"m 1362 939 l 1350 874 l 1264 849 l 975 0 l 880 -24 l 673 625 l 466 0 l 368 -24 l 90 848 l -6 873 l 6 939 l 357 939 l 346 876 l 239 848 l 443 159 l 640 731 l 602 851 l 507 877 l 518 939 l 885 939 l 874 875 l 742 846 l 954 159 l 1170 851 l 1034 874 l 1046 939 l 1362 939 z "},"X":{"ha":913,"x_min":18,"x_max":895,"o":"m 895 60 l 885 0 l 524 0 l 534 60 l 634 92 l 431 396 l 232 92 l 349 56 l 336 0 l 18 0 l 29 63 l 123 92 l 389 458 l 117 849 l 22 871 l 34 939 l 392 939 l 382 879 l 281 846 l 484 538 l 680 847 l 564 882 l 575 939 l 894 939 l 881 872 l 789 849 l 527 476 l 799 90 l 895 60 z "},"Y":{"ha":813,"x_min":-20,"x_max":823,"o":"m 346 94 l 346 378 l 68 848 l -20 875 l -9 939 l 335 939 l 324 878 l 214 846 l 442 452 q 488 555 460 498 q 560 705 515 613 q 628 844 600 785 l 500 882 l 512 939 l 823 939 l 813 874 l 726 849 l 476 380 l 476 94 l 611 56 l 600 0 l 219 0 l 229 57 l 346 94 z "},"Ý":{"ha":813,"x_min":-20,"x_max":823,"o":"m 346 94 l 346 378 l 68 848 l -20 875 l -9 939 l 335 939 l 324 878 l 214 846 l 442 452 q 488 555 460 498 q 560 705 515 613 q 628 844 600 785 l 500 882 l 512 939 l 823 939 l 813 874 l 726 849 l 476 380 l 476 94 l 611 56 l 600 0 l 219 0 l 229 57 l 346 94 m 293 1084 l 543 1211 l 584 1211 l 602 1109 l 305 1013 l 293 1084 z "},"Ÿ":{"ha":813,"x_min":-20,"x_max":823,"o":"m 346 94 l 346 378 l 68 848 l -20 875 l -9 939 l 335 939 l 324 878 l 214 846 l 442 452 q 488 555 460 498 q 560 705 515 613 q 628 844 600 785 l 500 882 l 512 939 l 823 939 l 813 874 l 726 849 l 476 380 l 476 94 l 611 56 l 600 0 l 219 0 l 229 57 l 346 94 m 482 1046 q 476 1081 476 1055 q 481 1127 476 1105 q 496 1155 487 1149 q 528 1162 504 1162 q 574 1156 551 1162 q 604 1141 597 1150 q 610 1107 610 1133 q 605 1062 610 1084 q 591 1031 600 1039 q 558 1026 581 1026 q 512 1031 534 1026 q 482 1046 490 1037 m 223 1046 q 216 1080 216 1053 q 222 1126 216 1103 q 237 1155 228 1148 q 269 1161 245 1161 q 315 1155 292 1161 q 345 1141 338 1149 q 351 1107 351 1132 q 346 1061 351 1084 q 331 1031 340 1039 q 298 1026 323 1026 q 252 1031 275 1026 q 223 1046 230 1037 z "},"Z":{"ha":838,"x_min":44,"x_max":789,"o":"m 726 256 l 789 241 l 732 0 l 85 0 l 44 102 l 635 870 l 203 836 l 134 685 l 67 702 l 104 945 l 191 939 l 753 939 l 782 855 l 189 79 l 642 109 l 726 256 z "},"Ź":{"ha":838,"x_min":44,"x_max":789,"o":"m 726 256 l 789 241 l 732 0 l 85 0 l 44 102 l 635 870 l 203 836 l 134 685 l 67 702 l 104 945 l 191 939 l 753 939 l 782 855 l 189 79 l 642 109 l 726 256 m 303 1084 l 553 1211 l 594 1211 l 612 1109 l 315 1013 l 303 1084 z "},"Ž":{"ha":838,"x_min":44,"x_max":789,"o":"m 726 256 l 789 241 l 732 0 l 85 0 l 44 102 l 635 870 l 203 836 l 134 685 l 67 702 l 104 945 l 191 939 l 753 939 l 782 855 l 189 79 l 642 109 l 726 256 m 217 1173 l 259 1217 l 424 1129 l 589 1217 l 631 1173 l 456 1027 l 391 1027 l 217 1173 z "},"Ż":{"ha":838,"x_min":44,"x_max":789,"o":"m 726 256 l 789 241 l 732 0 l 85 0 l 44 102 l 635 870 l 203 836 l 134 685 l 67 702 l 104 945 l 191 939 l 753 939 l 782 855 l 189 79 l 642 109 l 726 256 m 363 1046 q 357 1080 357 1053 q 362 1125 357 1103 q 377 1155 368 1148 q 409 1161 385 1161 q 455 1155 433 1161 q 485 1141 478 1149 q 492 1107 492 1133 q 486 1061 492 1083 q 471 1031 481 1038 q 439 1026 464 1026 q 393 1031 415 1026 q 363 1046 370 1037 z "},"a":{"ha":659,"x_min":46,"x_max":653,"o":"m 46 163 q 69 264 46 229 q 148 322 92 299 q 247 347 187 339 q 360 355 307 355 q 414 353 388 355 l 414 390 q 400 504 414 452 q 346 577 387 555 q 308 589 332 585 q 259 593 285 593 q 214 589 236 593 l 191 465 q 149 455 172 455 q 113 465 132 455 q 82 492 94 475 q 70 528 70 509 q 127 596 70 564 q 207 629 161 614 q 296 653 254 644 q 359 661 338 661 q 494 606 453 661 q 536 457 536 551 l 536 130 q 589 88 561 104 q 653 63 618 71 l 645 24 q 567 -4 607 6 q 490 -17 526 -15 q 466 40 479 15 q 433 90 453 65 q 381 42 418 68 q 301 0 345 17 q 221 -17 257 -17 q 122 11 161 -17 q 64 79 83 38 q 46 163 46 121 m 241 76 q 264 72 250 72 q 340 84 295 72 q 414 112 385 97 l 414 311 q 298 294 347 306 q 222 268 250 281 q 184 242 194 254 q 171 197 171 229 q 181 149 171 174 q 207 103 191 123 q 241 76 223 83 z "},"á":{"ha":659,"x_min":46,"x_max":653,"o":"m 46 163 q 69 264 46 229 q 148 322 92 299 q 247 347 187 339 q 360 355 307 355 q 414 353 388 355 l 414 390 q 400 504 414 452 q 346 577 387 555 q 308 589 332 585 q 259 593 285 593 q 214 589 236 593 l 191 465 q 149 455 172 455 q 113 465 132 455 q 82 492 94 475 q 70 528 70 509 q 127 596 70 564 q 207 629 161 614 q 296 653 254 644 q 359 661 338 661 q 494 606 453 661 q 536 457 536 551 l 536 130 q 589 88 561 104 q 653 63 618 71 l 645 24 q 567 -4 607 6 q 490 -17 526 -15 q 466 40 479 15 q 433 90 453 65 q 381 42 418 68 q 301 0 345 17 q 221 -17 257 -17 q 122 11 161 -17 q 64 79 83 38 q 46 163 46 121 m 241 76 q 264 72 250 72 q 340 84 295 72 q 414 112 385 97 l 414 311 q 298 294 347 306 q 222 268 250 281 q 184 242 194 254 q 171 197 171 229 q 181 149 171 174 q 207 103 191 123 q 241 76 223 83 m 392 981 l 435 981 l 455 880 l 205 720 l 190 802 l 392 981 z "},"ă":{"ha":659,"x_min":46,"x_max":653,"o":"m 46 163 q 69 264 46 229 q 148 322 92 299 q 247 347 187 339 q 360 355 307 355 q 414 353 388 355 l 414 390 q 400 504 414 452 q 346 577 387 555 q 308 589 332 585 q 259 593 285 593 q 214 589 236 593 l 191 465 q 149 455 172 455 q 113 465 132 455 q 82 492 94 475 q 70 528 70 509 q 127 596 70 564 q 207 629 161 614 q 296 653 254 644 q 359 661 338 661 q 494 606 453 661 q 536 457 536 551 l 536 130 q 589 88 561 104 q 653 63 618 71 l 645 24 q 567 -4 607 6 q 490 -17 526 -15 q 466 40 479 15 q 433 90 453 65 q 381 42 418 68 q 301 0 345 17 q 221 -17 257 -17 q 122 11 161 -17 q 64 79 83 38 q 46 163 46 121 m 241 76 q 264 72 250 72 q 340 84 295 72 q 414 112 385 97 l 414 311 q 298 294 347 306 q 222 268 250 281 q 184 242 194 254 q 171 197 171 229 q 181 149 171 174 q 207 103 191 123 q 241 76 223 83 m 310 732 q 222 751 263 732 q 156 804 180 770 q 131 876 131 837 q 138 918 131 892 l 212 918 q 234 853 216 878 q 272 817 251 828 q 310 806 293 806 q 349 817 328 806 q 387 853 370 828 q 410 918 404 878 l 482 918 q 490 877 490 894 q 465 804 490 838 q 398 751 439 770 q 310 732 357 732 z "},"â":{"ha":659,"x_min":46,"x_max":653,"o":"m 46 163 q 69 264 46 229 q 148 322 92 299 q 247 347 187 339 q 360 355 307 355 q 414 353 388 355 l 414 390 q 400 504 414 452 q 346 577 387 555 q 308 589 332 585 q 259 593 285 593 q 214 589 236 593 l 191 465 q 149 455 172 455 q 113 465 132 455 q 82 492 94 475 q 70 528 70 509 q 127 596 70 564 q 207 629 161 614 q 296 653 254 644 q 359 661 338 661 q 494 606 453 661 q 536 457 536 551 l 536 130 q 589 88 561 104 q 653 63 618 71 l 645 24 q 567 -4 607 6 q 490 -17 526 -15 q 466 40 479 15 q 433 90 453 65 q 381 42 418 68 q 301 0 345 17 q 221 -17 257 -17 q 122 11 161 -17 q 64 79 83 38 q 46 163 46 121 m 241 76 q 264 72 250 72 q 340 84 295 72 q 414 112 385 97 l 414 311 q 298 294 347 306 q 222 268 250 281 q 184 242 194 254 q 171 197 171 229 q 181 149 171 174 q 207 103 191 123 q 241 76 223 83 m 146 734 l 103 777 l 274 943 l 348 943 l 518 777 l 475 734 l 311 833 l 146 734 z "},"ä":{"ha":659,"x_min":46,"x_max":653,"o":"m 46 163 q 69 264 46 229 q 148 322 92 299 q 247 347 187 339 q 360 355 307 355 q 414 353 388 355 l 414 390 q 400 504 414 452 q 346 577 387 555 q 308 589 332 585 q 259 593 285 593 q 214 589 236 593 l 191 465 q 149 455 172 455 q 113 465 132 455 q 82 492 94 475 q 70 528 70 509 q 127 596 70 564 q 207 629 161 614 q 296 653 254 644 q 359 661 338 661 q 494 606 453 661 q 536 457 536 551 l 536 130 q 589 88 561 104 q 653 63 618 71 l 645 24 q 567 -4 607 6 q 490 -17 526 -15 q 466 40 479 15 q 433 90 453 65 q 381 42 418 68 q 301 0 345 17 q 221 -17 257 -17 q 122 11 161 -17 q 64 79 83 38 q 46 163 46 121 m 241 76 q 264 72 250 72 q 340 84 295 72 q 414 112 385 97 l 414 311 q 298 294 347 306 q 222 268 250 281 q 184 242 194 254 q 171 197 171 229 q 181 149 171 174 q 207 103 191 123 q 241 76 223 83 m 125 812 q 117 850 117 821 q 123 902 117 876 q 139 935 130 927 q 175 943 147 943 q 227 936 201 943 q 261 920 252 930 q 269 883 269 911 q 262 831 269 857 q 246 797 256 805 q 212 790 237 790 q 159 797 186 790 q 125 812 132 803 m 360 812 q 353 850 353 821 q 359 902 353 876 q 374 935 365 927 q 411 943 382 943 q 463 936 437 943 q 497 920 488 930 q 505 884 505 912 q 498 831 505 858 q 481 797 492 805 q 444 789 471 789 q 393 796 418 789 q 360 812 368 802 z "},"à":{"ha":659,"x_min":46,"x_max":653,"o":"m 46 163 q 69 264 46 229 q 148 322 92 299 q 247 347 187 339 q 360 355 307 355 q 414 353 388 355 l 414 390 q 400 504 414 452 q 346 577 387 555 q 308 589 332 585 q 259 593 285 593 q 214 589 236 593 l 191 465 q 149 455 172 455 q 113 465 132 455 q 82 492 94 475 q 70 528 70 509 q 127 596 70 564 q 207 629 161 614 q 296 653 254 644 q 359 661 338 661 q 494 606 453 661 q 536 457 536 551 l 536 130 q 589 88 561 104 q 653 63 618 71 l 645 24 q 567 -4 607 6 q 490 -17 526 -15 q 466 40 479 15 q 433 90 453 65 q 381 42 418 68 q 301 0 345 17 q 221 -17 257 -17 q 122 11 161 -17 q 64 79 83 38 q 46 163 46 121 m 241 76 q 264 72 250 72 q 340 84 295 72 q 414 112 385 97 l 414 311 q 298 294 347 306 q 222 268 250 281 q 184 242 194 254 q 171 197 171 229 q 181 149 171 174 q 207 103 191 123 q 241 76 223 83 m 165 880 l 184 981 l 229 981 l 430 802 l 415 720 l 165 880 z "},"ā":{"ha":659,"x_min":46,"x_max":653,"o":"m 46 163 q 69 264 46 229 q 148 322 92 299 q 247 347 187 339 q 360 355 307 355 q 414 353 388 355 l 414 390 q 400 504 414 452 q 346 577 387 555 q 308 589 332 585 q 259 593 285 593 q 214 589 236 593 l 191 465 q 149 455 172 455 q 113 465 132 455 q 82 492 94 475 q 70 528 70 509 q 127 596 70 564 q 207 629 161 614 q 296 653 254 644 q 359 661 338 661 q 494 606 453 661 q 536 457 536 551 l 536 130 q 589 88 561 104 q 653 63 618 71 l 645 24 q 567 -4 607 6 q 490 -17 526 -15 q 466 40 479 15 q 433 90 453 65 q 381 42 418 68 q 301 0 345 17 q 221 -17 257 -17 q 122 11 161 -17 q 64 79 83 38 q 46 163 46 121 m 241 76 q 264 72 250 72 q 340 84 295 72 q 414 112 385 97 l 414 311 q 298 294 347 306 q 222 268 250 281 q 184 242 194 254 q 171 197 171 229 q 181 149 171 174 q 207 103 191 123 q 241 76 223 83 m 160 871 l 479 871 l 463 783 q 140 775 321 775 l 160 871 z "},"ą":{"ha":659,"x_min":46,"x_max":653,"o":"m 46 163 q 69 264 46 229 q 148 322 92 299 q 247 347 187 339 q 360 355 307 355 q 414 353 388 355 l 414 390 q 400 504 414 452 q 346 577 387 555 q 308 589 332 585 q 259 593 285 593 q 214 589 236 593 l 191 465 q 149 455 172 455 q 113 465 132 455 q 82 492 94 475 q 70 528 70 509 q 127 596 70 564 q 207 629 161 614 q 296 653 254 644 q 359 661 338 661 q 494 606 453 661 q 536 457 536 551 l 536 137 q 579 93 551 111 q 653 64 608 75 l 644 22 q 463 -59 521 -14 q 406 -161 406 -103 q 418 -201 406 -181 q 450 -232 430 -221 q 486 -241 467 -241 q 535 -234 507 -241 q 591 -214 564 -226 l 605 -241 q 522 -301 560 -280 q 442 -323 484 -323 q 375 -308 406 -323 q 324 -263 343 -292 q 305 -195 305 -234 q 480 3 305 -74 q 457 54 471 27 q 433 90 443 80 q 381 42 418 68 q 301 0 345 17 q 221 -17 257 -17 q 122 11 161 -17 q 64 79 83 38 q 46 163 46 121 m 241 76 q 264 72 250 72 q 340 84 295 72 q 414 112 385 97 l 414 311 q 298 294 347 306 q 222 268 250 281 q 184 242 194 254 q 171 197 171 229 q 181 149 171 174 q 207 103 191 123 q 241 76 223 83 z "},"å":{"ha":659,"x_min":46,"x_max":653,"o":"m 46 163 q 69 264 46 229 q 148 322 92 299 q 247 347 187 339 q 360 355 307 355 q 414 353 388 355 l 414 390 q 400 504 414 452 q 346 577 387 555 q 308 589 332 585 q 259 593 285 593 q 214 589 236 593 l 191 465 q 149 455 172 455 q 113 465 132 455 q 82 492 94 475 q 70 528 70 509 q 127 596 70 564 q 207 629 161 614 q 296 653 254 644 q 359 661 338 661 q 494 606 453 661 q 536 457 536 551 l 536 130 q 589 88 561 104 q 653 63 618 71 l 645 24 q 567 -4 607 6 q 490 -17 526 -15 q 466 40 479 15 q 433 90 453 65 q 381 42 418 68 q 301 0 345 17 q 221 -17 257 -17 q 122 11 161 -17 q 64 79 83 38 q 46 163 46 121 m 241 76 q 264 72 250 72 q 340 84 295 72 q 414 112 385 97 l 414 311 q 298 294 347 306 q 222 268 250 281 q 184 242 194 254 q 171 197 171 229 q 181 149 171 174 q 207 103 191 123 q 241 76 223 83 m 309 721 q 245 736 274 721 q 199 780 216 751 q 182 844 182 808 q 199 911 182 880 q 245 961 215 943 q 314 979 275 979 q 376 964 347 979 q 422 920 405 948 q 439 855 439 892 q 422 788 439 819 q 375 739 405 758 q 309 721 345 721 m 317 787 q 354 804 339 787 q 368 843 368 820 q 350 893 368 871 q 304 915 331 915 q 266 898 281 915 q 252 857 252 880 q 269 808 252 829 q 317 787 287 787 z "},"ã":{"ha":659,"x_min":46,"x_max":653,"o":"m 46 163 q 69 264 46 229 q 148 322 92 299 q 247 347 187 339 q 360 355 307 355 q 414 353 388 355 l 414 390 q 400 504 414 452 q 346 577 387 555 q 308 589 332 585 q 259 593 285 593 q 214 589 236 593 l 191 465 q 149 455 172 455 q 113 465 132 455 q 82 492 94 475 q 70 528 70 509 q 127 596 70 564 q 207 629 161 614 q 296 653 254 644 q 359 661 338 661 q 494 606 453 661 q 536 457 536 551 l 536 130 q 589 88 561 104 q 653 63 618 71 l 645 24 q 567 -4 607 6 q 490 -17 526 -15 q 466 40 479 15 q 433 90 453 65 q 381 42 418 68 q 301 0 345 17 q 221 -17 257 -17 q 122 11 161 -17 q 64 79 83 38 q 46 163 46 121 m 241 76 q 264 72 250 72 q 340 84 295 72 q 414 112 385 97 l 414 311 q 298 294 347 306 q 222 268 250 281 q 184 242 194 254 q 171 197 171 229 q 181 149 171 174 q 207 103 191 123 q 241 76 223 83 m 85 858 q 162 927 130 903 q 233 950 195 950 q 289 936 263 950 q 346 896 314 922 q 375 873 364 881 q 396 866 387 866 q 452 886 414 866 q 524 934 490 906 l 535 857 q 460 791 494 814 q 387 767 426 767 q 332 782 357 767 q 276 821 306 796 q 247 844 258 836 q 226 851 235 851 q 190 842 213 851 q 142 817 167 833 q 99 781 117 801 l 85 858 z "},"æ":{"ha":972,"x_min":46,"x_max":921,"o":"m 46 163 q 69 264 46 229 q 148 322 92 299 q 248 347 188 338 q 361 355 308 355 q 420 353 385 355 l 420 390 q 345 577 420 540 q 259 593 314 593 q 214 589 236 593 l 190 465 q 149 455 171 455 q 112 465 131 455 q 81 492 94 475 q 69 528 69 509 q 85 565 69 549 q 126 596 100 581 q 208 630 161 615 q 295 653 254 645 q 359 661 337 661 q 517 578 474 661 q 708 661 593 661 q 824 633 776 661 q 897 555 872 604 q 921 446 921 506 q 906 355 921 403 q 896 337 902 342 q 878 332 890 332 l 532 332 q 558 208 532 266 q 630 116 584 151 q 732 81 675 81 q 827 99 779 81 q 899 132 875 117 l 916 106 q 814 21 875 59 q 686 -17 753 -17 q 469 87 551 -17 q 407 39 448 64 q 316 -1 366 15 q 220 -17 266 -17 q 122 11 161 -17 q 64 79 83 38 q 46 163 46 121 m 810 406 q 790 500 810 460 q 734 561 770 540 q 654 583 699 583 q 588 565 604 583 q 553 496 570 545 q 532 382 536 448 l 810 406 m 241 76 q 264 72 250 72 q 344 84 298 72 q 420 113 389 97 l 420 311 q 300 293 350 306 q 222 267 250 281 q 184 242 195 253 q 171 197 171 229 q 181 149 171 174 q 207 103 191 123 q 241 76 223 83 z "},"b":{"ha":737,"x_min":11,"x_max":681,"o":"m 83 -17 l 51 25 l 115 143 l 115 873 l 11 926 l 16 958 l 235 998 l 235 561 q 347 631 285 601 q 458 661 408 661 q 587 616 537 661 q 659 499 637 570 q 681 344 681 427 q 657 200 681 268 q 589 82 633 133 q 503 10 550 37 q 397 -17 456 -17 q 300 2 340 -17 q 221 71 259 22 l 83 -17 m 235 163 q 327 100 271 119 q 438 81 382 81 q 505 92 484 81 q 535 135 522 99 q 555 219 548 171 q 562 307 562 267 q 537 452 562 385 q 467 551 511 518 q 425 563 450 563 q 339 550 398 563 q 235 523 279 538 l 235 163 z "},"c":{"ha":592,"x_min":50,"x_max":562,"o":"m 406 602 q 317 587 358 601 q 243 538 277 572 q 192 456 208 502 q 176 359 176 410 q 233 163 176 245 q 297 103 258 126 q 383 79 336 79 q 444 88 410 79 q 506 107 477 96 q 547 125 535 119 l 562 102 q 466 20 526 58 q 340 -17 406 -17 q 180 26 245 -17 q 83 141 115 68 q 50 304 50 214 q 96 500 50 420 q 218 619 141 580 q 392 659 296 659 q 499 642 457 659 q 534 616 520 633 q 548 579 548 600 q 536 540 548 559 q 505 508 524 520 q 468 495 486 495 q 425 506 444 495 l 406 602 z "},"ć":{"ha":592,"x_min":50,"x_max":562,"o":"m 406 602 q 317 587 358 601 q 243 538 277 572 q 192 456 208 502 q 176 359 176 410 q 233 163 176 245 q 297 103 258 126 q 383 79 336 79 q 444 88 410 79 q 506 107 477 96 q 547 125 535 119 l 562 102 q 466 20 526 58 q 340 -17 406 -17 q 180 26 245 -17 q 83 141 115 68 q 50 304 50 214 q 96 500 50 420 q 218 619 141 580 q 392 659 296 659 q 499 642 457 659 q 534 616 520 633 q 548 579 548 600 q 536 540 548 559 q 505 508 524 520 q 468 495 486 495 q 425 506 444 495 l 406 602 m 414 981 l 458 981 l 477 880 l 228 720 l 212 802 l 414 981 z "},"č":{"ha":592,"x_min":50,"x_max":562,"o":"m 406 602 q 317 587 358 601 q 243 538 277 572 q 192 456 208 502 q 176 359 176 410 q 233 163 176 245 q 297 103 258 126 q 383 79 336 79 q 444 88 410 79 q 506 107 477 96 q 547 125 535 119 l 562 102 q 466 20 526 58 q 340 -17 406 -17 q 180 26 245 -17 q 83 141 115 68 q 50 304 50 214 q 96 500 50 420 q 218 619 141 580 q 392 659 296 659 q 499 642 457 659 q 534 616 520 633 q 548 579 548 600 q 536 540 548 559 q 505 508 524 520 q 468 495 486 495 q 425 506 444 495 l 406 602 m 498 941 l 540 901 l 372 731 l 294 731 l 126 901 l 168 941 l 333 840 l 498 941 z "},"ç":{"ha":592,"x_min":50,"x_max":562,"o":"m 562 102 q 479 29 530 64 q 372 -14 429 -5 l 349 -58 q 430 -100 404 -75 q 456 -166 456 -124 q 418 -248 456 -216 q 324 -293 379 -279 q 216 -307 269 -307 l 208 -275 q 327 -214 297 -239 q 357 -170 357 -190 q 329 -137 357 -151 q 240 -111 302 -123 q 258 -66 241 -95 q 294 -14 275 -37 q 160 40 215 -4 q 78 153 105 85 q 50 304 50 221 q 96 500 50 420 q 218 619 141 580 q 392 659 296 659 q 499 642 457 659 q 534 616 520 633 q 548 579 548 600 q 536 540 548 559 q 505 508 524 520 q 468 495 486 495 q 425 506 444 495 l 406 602 q 317 587 358 601 q 243 538 277 572 q 192 456 208 502 q 176 359 176 410 q 233 163 176 245 q 297 103 258 126 q 383 79 336 79 q 444 88 410 79 q 506 107 477 96 q 547 125 535 119 l 562 102 z "},"d":{"ha":749,"x_min":50,"x_max":739,"o":"m 621 130 q 674 89 637 108 q 739 64 711 69 l 731 23 q 654 -3 707 12 q 576 -17 601 -17 q 553 37 568 8 q 519 87 537 66 q 434 12 488 41 q 321 -17 380 -17 q 190 15 251 -17 q 89 117 128 47 q 50 294 50 187 q 90 484 50 400 q 199 614 130 568 q 349 661 267 661 q 428 649 389 661 q 500 613 468 637 l 500 873 l 395 926 l 401 957 l 621 998 l 621 130 m 336 79 q 500 113 414 79 l 500 442 q 449 514 482 484 q 375 560 416 545 q 292 576 334 576 q 245 570 266 576 q 212 547 224 564 q 168 365 168 488 q 188 241 168 298 q 238 146 208 184 q 299 91 269 107 q 319 82 311 84 q 336 79 326 79 z "},"ð":{"ha":726,"x_min":56,"x_max":653,"o":"m 467 867 q 603 659 553 783 q 653 367 653 535 q 618 183 653 271 q 515 39 584 95 q 351 -16 447 -16 q 200 18 266 -16 q 95 122 134 52 q 56 296 56 192 q 85 469 56 387 q 179 604 115 551 q 342 657 243 657 q 448 636 406 657 q 524 576 490 615 q 371 812 482 715 l 209 707 l 165 789 l 304 863 q 75 968 210 925 l 115 1017 q 199 1005 149 1017 q 303 972 250 994 q 401 922 357 950 l 545 1015 l 587 932 l 467 867 m 475 94 q 516 176 502 119 q 531 293 531 233 q 506 436 531 372 q 432 539 481 501 q 317 577 384 577 q 221 554 255 577 q 179 483 193 535 q 165 374 165 430 q 188 219 165 288 q 259 110 211 151 q 377 70 307 70 q 433 75 406 70 q 475 94 460 81 z "},"ď":{"ha":812,"x_min":50,"x_max":826,"o":"m 621 130 q 674 89 637 108 q 739 64 711 69 l 731 23 q 654 -3 707 12 q 576 -17 601 -17 q 553 37 568 8 q 519 87 537 66 q 434 12 488 41 q 321 -17 380 -17 q 190 15 251 -17 q 89 117 128 47 q 50 294 50 187 q 90 484 50 400 q 199 614 130 568 q 349 661 267 661 q 428 649 389 661 q 500 613 468 637 l 500 873 l 395 926 l 401 957 l 621 998 l 621 130 m 656 709 q 722 886 705 806 l 667 909 l 677 977 q 813 992 760 991 q 826 937 826 966 q 790 814 826 882 q 702 696 754 745 l 656 709 m 336 79 q 500 113 414 79 l 500 442 q 449 514 482 484 q 375 560 416 545 q 292 576 334 576 q 245 570 266 576 q 212 547 224 564 q 168 365 168 488 q 188 241 168 298 q 238 146 208 184 q 299 91 269 107 q 319 82 311 84 q 336 79 326 79 z "},"đ":{"ha":749,"x_min":50,"x_max":739,"o":"m 621 130 q 674 89 637 108 q 739 64 711 69 l 731 23 q 654 -3 707 12 q 576 -17 601 -17 q 553 37 568 8 q 519 87 537 66 q 434 12 488 41 q 321 -17 380 -17 q 190 15 251 -17 q 89 117 128 47 q 50 294 50 187 q 90 484 50 400 q 199 614 130 568 q 349 661 267 661 q 428 649 389 661 q 500 613 468 637 l 500 742 l 338 741 l 355 818 l 500 815 l 500 873 l 395 926 l 401 957 l 621 998 l 621 815 l 737 818 l 723 746 l 621 744 l 621 130 m 336 79 q 500 113 414 79 l 500 442 q 449 514 482 484 q 375 560 416 545 q 292 576 334 576 q 245 570 266 576 q 212 547 224 564 q 168 365 168 488 q 188 241 168 298 q 238 146 208 184 q 299 91 269 107 q 319 82 311 84 q 336 79 326 79 z "},"e":{"ha":625,"x_min":50,"x_max":572,"o":"m 371 81 q 438 90 401 81 q 507 110 475 98 q 551 130 538 122 l 568 106 q 507 51 545 79 q 421 3 469 22 q 328 -17 374 -17 q 187 16 250 -17 q 87 122 125 50 q 50 307 50 195 q 89 487 50 406 q 198 614 127 568 q 357 661 268 661 q 473 632 425 661 q 547 554 522 604 q 572 445 572 505 q 558 354 572 400 q 548 336 554 342 q 530 331 543 331 l 166 331 q 198 209 171 266 q 270 116 224 151 q 371 81 315 81 m 292 582 q 222 565 239 582 q 186 497 203 545 q 166 382 170 448 l 460 405 q 437 501 460 461 q 376 562 414 541 q 292 582 338 582 z "},"é":{"ha":625,"x_min":50,"x_max":572,"o":"m 371 81 q 438 90 401 81 q 507 110 475 98 q 551 130 538 122 l 568 106 q 507 51 545 79 q 421 3 469 22 q 328 -17 374 -17 q 187 16 250 -17 q 87 122 125 50 q 50 307 50 195 q 89 487 50 406 q 198 614 127 568 q 357 661 268 661 q 473 632 425 661 q 547 554 522 604 q 572 445 572 505 q 558 354 572 400 q 548 336 554 342 q 530 331 543 331 l 166 331 q 198 209 171 266 q 270 116 224 151 q 371 81 315 81 m 292 582 q 222 565 239 582 q 186 497 203 545 q 166 382 170 448 l 460 405 q 437 501 460 461 q 376 562 414 541 q 292 582 338 582 m 408 981 l 451 981 l 471 880 l 221 720 l 205 802 l 408 981 z "},"ě":{"ha":625,"x_min":50,"x_max":572,"o":"m 371 81 q 438 90 401 81 q 507 110 475 98 q 551 130 538 122 l 568 106 q 507 51 545 79 q 421 3 469 22 q 328 -17 374 -17 q 187 16 250 -17 q 87 122 125 50 q 50 307 50 195 q 89 487 50 406 q 198 614 127 568 q 357 661 268 661 q 473 632 425 661 q 547 554 522 604 q 572 445 572 505 q 558 354 572 400 q 548 336 554 342 q 530 331 543 331 l 166 331 q 198 209 171 266 q 270 116 224 151 q 371 81 315 81 m 292 582 q 222 565 239 582 q 186 497 203 545 q 166 382 170 448 l 460 405 q 437 501 460 461 q 376 562 414 541 q 292 582 338 582 m 492 941 l 533 901 l 366 731 l 288 731 l 119 901 l 161 941 l 326 840 l 492 941 z "},"ê":{"ha":625,"x_min":50,"x_max":572,"o":"m 371 81 q 438 90 401 81 q 507 110 475 98 q 551 130 538 122 l 568 106 q 507 51 545 79 q 421 3 469 22 q 328 -17 374 -17 q 187 16 250 -17 q 87 122 125 50 q 50 307 50 195 q 89 487 50 406 q 198 614 127 568 q 357 661 268 661 q 473 632 425 661 q 547 554 522 604 q 572 445 572 505 q 558 354 572 400 q 548 336 554 342 q 530 331 543 331 l 166 331 q 198 209 171 266 q 270 116 224 151 q 371 81 315 81 m 292 582 q 222 565 239 582 q 186 497 203 545 q 166 382 170 448 l 460 405 q 437 501 460 461 q 376 562 414 541 q 292 582 338 582 m 161 734 l 119 777 l 290 943 l 363 943 l 534 777 l 491 734 l 326 833 l 161 734 z "},"ë":{"ha":625,"x_min":50,"x_max":572,"o":"m 371 81 q 438 90 401 81 q 507 110 475 98 q 551 130 538 122 l 568 106 q 507 51 545 79 q 421 3 469 22 q 328 -17 374 -17 q 187 16 250 -17 q 87 122 125 50 q 50 307 50 195 q 89 487 50 406 q 198 614 127 568 q 357 661 268 661 q 473 632 425 661 q 547 554 522 604 q 572 445 572 505 q 558 354 572 400 q 548 336 554 342 q 530 331 543 331 l 166 331 q 198 209 171 266 q 270 116 224 151 q 371 81 315 81 m 292 582 q 222 565 239 582 q 186 497 203 545 q 166 382 170 448 l 460 405 q 437 501 460 461 q 376 562 414 541 q 292 582 338 582 m 140 812 q 133 850 133 821 q 139 902 133 876 q 155 935 145 927 q 191 943 163 943 q 242 936 216 943 q 277 920 268 930 q 284 883 284 911 q 278 831 284 857 q 262 797 271 805 q 227 790 253 790 q 174 797 201 790 q 140 812 147 803 m 376 812 q 368 850 368 821 q 374 902 368 876 q 390 935 380 927 q 427 943 398 943 q 478 936 452 943 q 513 920 504 930 q 520 884 520 912 q 514 831 520 858 q 497 797 507 805 q 459 789 486 789 q 409 796 434 789 q 376 812 384 802 z "},"ė":{"ha":625,"x_min":50,"x_max":572,"o":"m 371 81 q 438 90 401 81 q 507 110 475 98 q 551 130 538 122 l 568 106 q 507 51 545 79 q 421 3 469 22 q 328 -17 374 -17 q 187 16 250 -17 q 87 122 125 50 q 50 307 50 195 q 89 487 50 406 q 198 614 127 568 q 357 661 268 661 q 473 632 425 661 q 547 554 522 604 q 572 445 572 505 q 558 354 572 400 q 548 336 554 342 q 530 331 543 331 l 166 331 q 198 209 171 266 q 270 116 224 151 q 371 81 315 81 m 292 582 q 222 565 239 582 q 186 497 203 545 q 166 382 170 448 l 460 405 q 437 501 460 461 q 376 562 414 541 q 292 582 338 582 m 258 812 q 250 850 250 821 q 256 902 250 876 q 272 935 262 927 q 309 943 280 943 q 360 936 334 943 q 395 920 386 930 q 402 884 402 912 q 396 831 402 858 q 379 797 389 805 q 345 790 370 790 q 292 797 319 790 q 258 812 264 803 z "},"è":{"ha":625,"x_min":50,"x_max":572,"o":"m 371 81 q 438 90 401 81 q 507 110 475 98 q 551 130 538 122 l 568 106 q 507 51 545 79 q 421 3 469 22 q 328 -17 374 -17 q 187 16 250 -17 q 87 122 125 50 q 50 307 50 195 q 89 487 50 406 q 198 614 127 568 q 357 661 268 661 q 473 632 425 661 q 547 554 522 604 q 572 445 572 505 q 558 354 572 400 q 548 336 554 342 q 530 331 543 331 l 166 331 q 198 209 171 266 q 270 116 224 151 q 371 81 315 81 m 292 582 q 222 565 239 582 q 186 497 203 545 q 166 382 170 448 l 460 405 q 437 501 460 461 q 376 562 414 541 q 292 582 338 582 m 180 880 l 200 981 l 245 981 l 446 802 l 431 720 l 180 880 z "},"ē":{"ha":625,"x_min":50,"x_max":572,"o":"m 371 81 q 438 90 401 81 q 507 110 475 98 q 551 130 538 122 l 568 106 q 507 51 545 79 q 421 3 469 22 q 328 -17 374 -17 q 187 16 250 -17 q 87 122 125 50 q 50 307 50 195 q 89 487 50 406 q 198 614 127 568 q 357 661 268 661 q 473 632 425 661 q 547 554 522 604 q 572 445 572 505 q 558 354 572 400 q 548 336 554 342 q 530 331 543 331 l 166 331 q 198 209 171 266 q 270 116 224 151 q 371 81 315 81 m 292 582 q 222 565 239 582 q 186 497 203 545 q 166 382 170 448 l 460 405 q 437 501 460 461 q 376 562 414 541 q 292 582 338 582 m 176 871 l 495 871 l 478 783 q 156 775 336 775 l 176 871 z "},"ę":{"ha":625,"x_min":51,"x_max":573,"o":"m 168 331 q 197 212 172 269 q 268 117 222 154 q 372 81 313 81 q 471 97 421 81 q 552 128 522 114 l 568 106 q 534 72 551 86 q 488 36 517 58 q 448 5 456 12 q 351 -92 382 -52 q 320 -160 320 -132 q 336 -205 320 -183 q 375 -237 351 -228 q 401 -241 389 -241 q 505 -214 437 -241 l 520 -240 q 438 -301 477 -279 q 357 -323 399 -323 q 290 -307 321 -323 q 239 -262 258 -292 q 220 -195 220 -233 q 277 -72 220 -128 q 345 -16 300 -50 q 324 -17 331 -17 q 185 18 247 -16 q 87 123 124 52 q 51 307 51 195 q 90 487 51 406 q 198 614 128 568 q 358 661 269 661 q 474 632 425 661 q 548 554 522 604 q 573 445 573 505 q 559 354 573 400 q 549 336 555 342 q 531 331 543 331 l 168 331 m 460 405 q 438 501 460 461 q 377 562 415 541 q 292 582 339 582 q 223 565 240 582 q 188 496 204 545 q 167 382 171 447 l 460 405 z "},"f":{"ha":491,"x_min":39,"x_max":572,"o":"m 151 92 l 151 550 l 39 585 l 50 644 l 151 644 q 177 847 151 770 q 261 961 203 924 q 416 998 319 998 q 528 979 488 998 q 559 955 547 970 q 572 920 572 940 q 560 880 572 900 q 529 847 547 860 q 492 835 510 835 q 449 846 472 835 l 427 957 q 327 903 361 947 q 282 796 292 859 q 271 644 271 733 l 483 644 l 473 589 l 271 551 l 271 85 l 444 54 l 432 0 l 40 0 l 52 59 l 151 92 z "},"g":{"ha":682,"x_min":21,"x_max":677,"o":"m 452 77 q 601 46 550 77 q 652 -57 652 15 q 605 -193 652 -127 q 469 -298 557 -258 q 263 -339 380 -339 q 148 -323 208 -339 q 61 -282 89 -307 q 30 -238 39 -262 q 21 -184 21 -214 q 55 -99 21 -140 q 144 -13 89 -58 q 83 31 105 1 q 60 90 60 60 q 96 167 60 134 q 178 221 132 200 q 104 290 132 245 q 76 398 76 334 q 105 531 76 472 q 195 626 134 591 q 350 661 256 661 q 494 620 433 661 q 586 651 536 640 q 665 661 635 661 l 677 632 l 563 536 q 581 445 581 493 q 551 313 581 370 q 460 222 520 255 q 313 189 399 189 q 212 206 260 189 q 164 116 164 142 q 171 100 164 107 q 186 89 177 92 q 258 80 205 82 q 452 77 311 77 m 211 561 q 185 465 185 522 q 209 372 185 417 q 276 298 233 327 q 371 270 319 270 q 414 276 395 270 q 446 295 434 283 q 466 340 459 308 q 473 405 473 372 q 427 537 473 488 q 296 586 382 586 q 244 579 269 586 q 211 561 218 572 m 514 -199 q 540 -163 529 -186 q 551 -107 551 -139 q 546 -65 551 -81 q 523 -39 541 -50 q 469 -29 505 -29 q 280 -28 346 -29 q 178 -21 215 -26 q 143 -89 159 -53 q 127 -152 127 -125 q 134 -176 127 -168 q 203 -217 151 -200 q 330 -235 256 -235 q 436 -227 385 -235 q 514 -199 488 -220 z "},"ğ":{"ha":682,"x_min":21,"x_max":677,"o":"m 452 77 q 601 46 550 77 q 652 -57 652 15 q 605 -193 652 -127 q 469 -298 557 -258 q 263 -339 380 -339 q 148 -323 208 -339 q 61 -282 89 -307 q 30 -238 39 -262 q 21 -184 21 -214 q 55 -99 21 -140 q 144 -13 89 -58 q 83 31 105 1 q 60 90 60 60 q 96 167 60 134 q 178 221 132 200 q 104 290 132 245 q 76 398 76 334 q 105 531 76 472 q 195 626 134 591 q 350 661 256 661 q 494 620 433 661 q 586 651 536 640 q 665 661 635 661 l 677 632 l 563 536 q 581 445 581 493 q 551 313 581 370 q 460 222 520 255 q 313 189 399 189 q 212 206 260 189 q 164 116 164 142 q 171 100 164 107 q 186 89 177 92 q 258 80 205 82 q 452 77 311 77 m 211 561 q 185 465 185 522 q 209 372 185 417 q 276 298 233 327 q 371 270 319 270 q 414 276 395 270 q 446 295 434 283 q 466 340 459 308 q 473 405 473 372 q 427 537 473 488 q 296 586 382 586 q 244 579 269 586 q 211 561 218 572 m 514 -199 q 540 -163 529 -186 q 551 -107 551 -139 q 546 -65 551 -81 q 523 -39 541 -50 q 469 -29 505 -29 q 280 -28 346 -29 q 178 -21 215 -26 q 143 -89 159 -53 q 127 -152 127 -125 q 134 -176 127 -168 q 203 -217 151 -200 q 330 -235 256 -235 q 436 -227 385 -235 q 514 -199 488 -220 m 334 732 q 245 751 287 732 q 179 804 204 770 q 155 876 155 837 q 162 918 155 892 l 235 918 q 257 853 240 878 q 296 817 275 828 q 334 806 317 806 q 372 817 351 806 q 411 853 393 828 q 433 918 428 878 l 506 918 q 513 877 513 894 q 488 804 513 838 q 422 751 463 770 q 334 732 380 732 z "},"ģ":{"ha":682,"x_min":21,"x_max":677,"o":"m 279 747 q 255 781 264 762 q 246 821 246 800 q 273 897 246 865 q 336 947 300 930 q 396 964 372 964 l 406 934 q 345 882 363 903 q 326 840 326 861 q 341 809 326 823 q 397 784 357 795 l 378 709 q 324 719 349 709 q 279 747 298 729 m 452 77 q 601 46 550 77 q 652 -57 652 15 q 605 -193 652 -127 q 469 -298 557 -258 q 263 -339 380 -339 q 148 -323 208 -339 q 61 -282 89 -307 q 30 -238 39 -262 q 21 -184 21 -214 q 55 -99 21 -140 q 144 -13 89 -58 q 83 31 105 1 q 60 90 60 60 q 96 167 60 134 q 178 221 132 200 q 104 290 132 245 q 76 398 76 334 q 105 531 76 472 q 195 626 134 591 q 350 661 256 661 q 494 620 433 661 q 586 651 536 640 q 665 661 635 661 l 677 632 l 563 536 q 581 445 581 493 q 551 313 581 370 q 460 222 520 255 q 313 189 399 189 q 212 206 260 189 q 164 116 164 142 q 171 100 164 107 q 186 89 177 92 q 258 80 205 82 q 452 77 311 77 m 211 561 q 185 465 185 522 q 209 372 185 417 q 276 298 233 327 q 371 270 319 270 q 414 276 395 270 q 446 295 434 283 q 466 340 459 308 q 473 405 473 372 q 427 537 473 488 q 296 586 382 586 q 244 579 269 586 q 211 561 218 572 m 514 -199 q 540 -163 529 -186 q 551 -107 551 -139 q 546 -65 551 -81 q 523 -39 541 -50 q 469 -29 505 -29 q 280 -28 346 -29 q 178 -21 215 -26 q 143 -89 159 -53 q 127 -152 127 -125 q 134 -176 127 -168 q 203 -217 151 -200 q 330 -235 256 -235 q 436 -227 385 -235 q 514 -199 488 -220 z "},"h":{"ha":800,"x_min":26,"x_max":791,"o":"m 791 56 l 780 0 l 473 0 l 485 59 l 556 89 l 556 373 q 537 488 556 443 q 492 552 518 532 q 465 561 478 561 q 372 545 439 561 q 256 513 304 530 l 256 85 l 368 56 l 356 0 l 26 0 l 38 56 l 134 85 l 134 873 l 30 926 l 36 958 l 256 998 l 256 551 q 386 628 316 596 q 507 660 456 660 q 590 637 551 660 q 653 561 628 614 q 677 419 677 507 l 677 85 l 791 56 z "},"i":{"ha":400,"x_min":37,"x_max":379,"o":"m 258 797 q 220 790 250 790 q 169 796 194 790 q 136 812 144 802 q 128 849 128 822 q 135 902 128 876 q 151 935 142 929 q 187 943 161 943 q 240 936 213 943 q 274 920 267 928 q 281 886 281 910 q 274 832 281 860 q 258 797 267 804 m 146 85 l 146 526 l 41 578 l 47 610 l 267 654 l 267 85 l 379 56 l 367 0 l 37 0 l 47 57 l 146 85 z "},"ı":{"ha":400,"x_min":37,"x_max":379,"o":"m 146 85 l 146 526 l 41 578 l 47 610 l 267 654 l 267 85 l 379 56 l 367 0 l 37 0 l 47 57 l 146 85 z "},"í":{"ha":400,"x_min":37,"x_max":379,"o":"m 146 85 l 146 526 l 41 578 l 47 610 l 267 654 l 267 85 l 379 56 l 367 0 l 37 0 l 47 57 l 146 85 m 275 981 l 318 981 l 338 880 l 88 720 l 73 802 l 275 981 z "},"î":{"ha":400,"x_min":-14,"x_max":401,"o":"m 146 85 l 146 526 l 41 578 l 47 610 l 267 654 l 267 85 l 379 56 l 367 0 l 37 0 l 47 57 l 146 85 m 28 734 l -14 777 l 157 943 l 231 943 l 401 777 l 358 734 l 193 833 l 28 734 z "},"ï":{"ha":400,"x_min":0,"x_max":387,"o":"m 146 85 l 146 526 l 41 578 l 47 610 l 267 654 l 267 85 l 379 56 l 367 0 l 37 0 l 47 57 l 146 85 m 7 812 q 0 850 0 821 q 6 902 0 876 q 22 935 12 927 q 58 943 30 943 q 109 936 83 943 q 144 920 135 930 q 151 883 151 911 q 145 831 151 857 q 129 797 138 805 q 94 790 120 790 q 41 797 68 790 q 7 812 14 803 m 243 812 q 235 850 235 821 q 241 902 235 876 q 257 935 248 927 q 294 943 265 943 q 345 936 319 943 q 380 920 371 930 q 387 884 387 912 q 381 831 387 858 q 364 797 374 805 q 326 789 353 789 q 276 796 301 789 q 243 812 251 802 z "},"ì":{"ha":400,"x_min":37,"x_max":379,"o":"m 146 85 l 146 526 l 41 578 l 47 610 l 267 654 l 267 85 l 379 56 l 367 0 l 37 0 l 47 57 l 146 85 m 47 880 l 67 981 l 112 981 l 313 802 l 298 720 l 47 880 z "},"ī":{"ha":400,"x_min":23,"x_max":379,"o":"m 146 85 l 146 526 l 41 578 l 47 610 l 267 654 l 267 85 l 379 56 l 367 0 l 37 0 l 47 57 l 146 85 m 43 871 l 362 871 l 345 783 q 23 775 203 775 l 43 871 z "},"į":{"ha":400,"x_min":37,"x_max":380,"o":"m 258 797 q 220 790 250 790 q 169 796 194 790 q 136 812 144 802 q 128 849 128 822 q 135 902 128 876 q 151 935 142 929 q 187 943 161 943 q 240 936 213 943 q 274 920 267 928 q 281 886 281 910 q 274 832 281 860 q 258 797 267 804 m 96 -195 q 117 -125 96 -156 q 168 -72 138 -94 q 250 -20 199 -50 l 282 0 l 37 0 l 46 58 l 146 85 l 146 527 l 41 578 l 47 610 l 267 654 l 267 85 l 380 55 l 365 0 q 195 -161 195 -103 q 210 -207 195 -184 q 248 -237 225 -229 q 272 -241 260 -241 q 306 -236 286 -241 q 359 -214 326 -230 l 374 -240 q 304 -302 338 -281 q 229 -323 271 -323 q 163 -308 193 -323 q 114 -263 133 -292 q 96 -195 96 -235 z "},"j":{"ha":352,"x_min":-96,"x_max":259,"o":"m 235 797 q 198 790 228 790 q 146 796 172 790 q 114 812 121 802 q 106 849 106 822 q 113 902 106 876 q 129 935 119 929 q 165 943 139 943 q 218 936 191 943 q 252 920 245 928 q 259 886 259 910 q 252 832 259 860 q 235 797 245 804 m 25 579 l 31 610 l 251 654 l 251 19 q 207 -238 251 -137 q 37 -339 163 -339 q -25 -331 5 -339 q -76 -304 -56 -322 q -96 -259 -96 -286 q -82 -218 -96 -239 q -49 -183 -68 -197 q -13 -169 -29 -169 q 30 -178 8 -169 l 60 -298 q 106 -225 92 -262 q 125 -139 121 -188 q 130 0 130 -90 l 130 526 l 25 579 z "},"k":{"ha":774,"x_min":26,"x_max":773,"o":"m 27 926 l 33 958 l 253 998 l 253 85 l 368 56 l 356 0 l 26 0 l 38 56 l 132 85 l 132 873 l 27 926 m 669 83 l 773 52 l 762 0 l 521 0 l 530 45 l 280 373 l 510 572 l 423 593 l 433 644 l 716 644 l 705 591 l 614 567 l 410 398 l 669 83 z "},"ķ":{"ha":774,"x_min":26,"x_max":773,"o":"m 27 926 l 33 958 l 253 998 l 253 85 l 368 56 l 356 0 l 26 0 l 38 56 l 132 85 l 132 873 l 27 926 m 669 83 l 773 52 l 762 0 l 521 0 l 530 45 l 280 373 l 510 572 l 423 593 l 433 644 l 716 644 l 705 591 l 614 567 l 410 398 l 669 83 m 335 -64 q 389 -75 363 -65 q 433 -103 414 -85 q 458 -137 449 -118 q 467 -177 467 -156 q 439 -253 467 -220 q 376 -303 412 -286 q 317 -320 340 -320 l 307 -290 q 368 -237 349 -258 q 387 -196 387 -216 q 371 -165 387 -178 q 316 -140 356 -151 l 335 -64 z "},"l":{"ha":388,"x_min":26,"x_max":368,"o":"m 27 926 l 33 958 l 253 998 l 253 85 l 368 56 l 356 0 l 26 0 l 38 56 l 132 85 l 132 873 l 27 926 z "},"ĺ":{"ha":388,"x_min":26,"x_max":370,"o":"m 27 926 l 33 958 l 253 998 l 253 85 l 368 56 l 356 0 l 26 0 l 38 56 l 132 85 l 132 873 l 27 926 m 60 1084 l 310 1211 l 351 1211 l 370 1109 l 73 1013 l 60 1084 z "},"ľ":{"ha":388,"x_min":26,"x_max":460,"o":"m 27 926 l 33 958 l 253 998 l 253 85 l 368 56 l 356 0 l 26 0 l 38 56 l 132 85 l 132 873 l 27 926 m 291 709 q 356 886 339 806 l 302 909 l 311 977 q 448 992 395 991 q 460 937 460 966 q 425 814 460 882 q 336 696 389 745 l 291 709 z "},"ļ":{"ha":388,"x_min":26,"x_max":368,"o":"m 27 926 l 33 958 l 253 998 l 253 85 l 368 56 l 356 0 l 26 0 l 38 56 l 132 85 l 132 873 l 27 926 m 153 -64 q 207 -75 181 -65 q 251 -103 232 -85 q 275 -137 267 -118 q 284 -177 284 -156 q 257 -253 284 -220 q 194 -303 230 -286 q 134 -320 158 -320 l 124 -290 q 185 -237 167 -258 q 204 -196 204 -216 q 189 -165 204 -178 q 134 -140 174 -151 l 153 -64 z "},"ł":{"ha":388,"x_min":-5,"x_max":395,"o":"m 254 85 l 369 56 l 357 0 l 27 0 l 39 56 l 132 85 l 132 483 l 11 427 l -5 492 l 132 558 l 132 873 l 28 926 l 34 958 l 254 998 l 254 616 l 378 675 l 395 605 l 254 539 l 254 85 z "},"m":{"ha":1208,"x_min":39,"x_max":1199,"o":"m 42 578 l 48 610 l 234 651 l 259 543 q 386 626 317 593 q 508 660 455 660 q 597 632 557 660 q 659 543 637 604 q 790 625 716 591 q 916 660 863 660 q 1014 629 977 660 q 1068 525 1050 597 q 1085 328 1085 453 l 1085 85 l 1199 57 l 1187 0 l 880 0 l 892 60 l 964 89 l 964 325 q 946 480 964 424 q 898 553 928 536 q 876 561 886 561 q 787 547 854 561 q 667 515 721 533 q 675 443 673 490 q 677 324 677 395 l 677 85 l 791 56 l 779 0 l 473 0 l 484 59 l 555 89 l 555 340 q 536 487 555 435 q 486 556 517 539 q 467 561 476 561 q 384 547 441 561 q 265 514 326 534 q 269 466 269 490 l 268 85 l 381 56 l 371 0 l 39 0 l 50 59 l 146 92 l 146 526 l 42 578 z "},"n":{"ha":814,"x_min":39,"x_max":804,"o":"m 42 578 l 48 610 l 234 654 l 258 543 q 392 625 319 590 q 520 660 466 660 q 603 637 564 660 q 666 561 641 614 q 690 419 690 507 l 690 85 l 804 56 l 793 0 l 486 0 l 498 59 l 569 89 l 569 373 q 550 488 569 443 q 505 552 531 532 q 478 561 491 561 q 381 545 451 561 q 264 512 312 528 q 267 495 265 508 q 268 473 268 481 l 268 85 l 382 55 l 370 0 l 39 0 l 50 60 l 146 92 l 146 526 l 42 578 z "},"ń":{"ha":814,"x_min":39,"x_max":804,"o":"m 42 578 l 48 610 l 234 654 l 258 543 q 392 625 319 590 q 520 660 466 660 q 603 637 564 660 q 666 561 641 614 q 690 419 690 507 l 690 85 l 804 56 l 793 0 l 486 0 l 498 59 l 569 89 l 569 373 q 550 488 569 443 q 505 552 531 532 q 478 561 491 561 q 381 545 451 561 q 264 512 312 528 q 267 495 265 508 q 268 473 268 481 l 268 85 l 382 55 l 370 0 l 39 0 l 50 60 l 146 92 l 146 526 l 42 578 m 488 981 l 532 981 l 551 880 l 302 720 l 286 802 l 488 981 z "},"ň":{"ha":814,"x_min":39,"x_max":804,"o":"m 42 578 l 48 610 l 234 654 l 258 543 q 392 625 319 590 q 520 660 466 660 q 603 637 564 660 q 666 561 641 614 q 690 419 690 507 l 690 85 l 804 56 l 793 0 l 486 0 l 498 59 l 569 89 l 569 373 q 550 488 569 443 q 505 552 531 532 q 478 561 491 561 q 381 545 451 561 q 264 512 312 528 q 267 495 265 508 q 268 473 268 481 l 268 85 l 382 55 l 370 0 l 39 0 l 50 60 l 146 92 l 146 526 l 42 578 m 572 941 l 614 901 l 446 731 l 368 731 l 200 901 l 241 941 l 407 840 l 572 941 z "},"ņ":{"ha":814,"x_min":39,"x_max":804,"o":"m 42 578 l 48 610 l 234 654 l 258 543 q 392 625 319 590 q 520 660 466 660 q 603 637 564 660 q 666 561 641 614 q 690 419 690 507 l 690 85 l 804 56 l 793 0 l 486 0 l 498 59 l 569 89 l 569 373 q 550 488 569 443 q 505 552 531 532 q 478 561 491 561 q 381 545 451 561 q 264 512 312 528 q 267 495 265 508 q 268 473 268 481 l 268 85 l 382 55 l 370 0 l 39 0 l 50 60 l 146 92 l 146 526 l 42 578 m 355 -64 q 409 -75 383 -65 q 453 -103 434 -85 q 477 -137 469 -118 q 486 -177 486 -156 q 459 -253 486 -220 q 396 -303 432 -286 q 336 -320 360 -320 l 326 -290 q 388 -237 369 -258 q 406 -196 406 -216 q 391 -165 406 -178 q 336 -140 376 -151 l 355 -64 z "},"ñ":{"ha":814,"x_min":39,"x_max":804,"o":"m 42 578 l 48 610 l 234 654 l 258 543 q 392 625 319 590 q 520 660 466 660 q 603 637 564 660 q 666 561 641 614 q 690 419 690 507 l 690 85 l 804 56 l 793 0 l 486 0 l 498 59 l 569 89 l 569 373 q 550 488 569 443 q 505 552 531 532 q 478 561 491 561 q 381 545 451 561 q 264 512 312 528 q 267 495 265 508 q 268 473 268 481 l 268 85 l 382 55 l 370 0 l 39 0 l 50 60 l 146 92 l 146 526 l 42 578 m 182 858 q 259 927 226 903 q 330 950 292 950 q 385 936 359 950 q 442 896 410 922 q 472 873 460 881 q 492 866 483 866 q 548 886 511 866 q 620 934 586 906 l 631 857 q 556 791 590 814 q 484 767 522 767 q 428 782 454 767 q 372 821 402 796 q 343 844 354 836 q 322 851 332 851 q 286 842 309 851 q 238 817 263 833 q 195 781 214 801 l 182 858 z "},"o":{"ha":693,"x_min":50,"x_max":644,"o":"m 50 296 q 88 475 50 391 q 194 610 126 559 q 349 661 262 661 q 498 627 432 661 q 604 522 565 593 q 644 347 644 452 q 605 168 644 252 q 498 34 566 84 q 352 -17 431 -17 q 197 17 265 -17 q 89 121 129 50 q 50 296 50 191 m 385 73 q 444 82 416 73 q 490 109 473 91 q 517 171 508 126 q 526 254 526 215 q 496 423 526 351 q 416 533 467 495 q 302 572 365 572 q 242 563 264 572 q 203 536 220 553 q 178 475 188 519 q 168 388 168 431 q 192 237 168 309 q 265 119 216 165 q 385 73 314 73 z "},"ó":{"ha":693,"x_min":50,"x_max":644,"o":"m 50 296 q 88 475 50 391 q 194 610 126 559 q 349 661 262 661 q 498 627 432 661 q 604 522 565 593 q 644 347 644 452 q 605 168 644 252 q 498 34 566 84 q 352 -17 431 -17 q 197 17 265 -17 q 89 121 129 50 q 50 296 50 191 m 385 73 q 444 82 416 73 q 490 109 473 91 q 517 171 508 126 q 526 254 526 215 q 496 423 526 351 q 416 533 467 495 q 302 572 365 572 q 242 563 264 572 q 203 536 220 553 q 178 475 188 519 q 168 388 168 431 q 192 237 168 309 q 265 119 216 165 q 385 73 314 73 m 428 981 l 471 981 l 491 880 l 241 720 l 226 802 l 428 981 z "},"ô":{"ha":693,"x_min":50,"x_max":644,"o":"m 50 296 q 88 475 50 391 q 194 610 126 559 q 349 661 262 661 q 498 627 432 661 q 604 522 565 593 q 644 347 644 452 q 605 168 644 252 q 498 34 566 84 q 352 -17 431 -17 q 197 17 265 -17 q 89 121 129 50 q 50 296 50 191 m 385 73 q 444 82 416 73 q 490 109 473 91 q 517 171 508 126 q 526 254 526 215 q 496 423 526 351 q 416 533 467 495 q 302 572 365 572 q 242 563 264 572 q 203 536 220 553 q 178 475 188 519 q 168 388 168 431 q 192 237 168 309 q 265 119 216 165 q 385 73 314 73 m 182 734 l 139 777 l 310 943 l 384 943 l 554 777 l 511 734 l 347 833 l 182 734 z "},"ö":{"ha":693,"x_min":50,"x_max":644,"o":"m 50 296 q 88 475 50 391 q 194 610 126 559 q 349 661 262 661 q 498 627 432 661 q 604 522 565 593 q 644 347 644 452 q 605 168 644 252 q 498 34 566 84 q 352 -17 431 -17 q 197 17 265 -17 q 89 121 129 50 q 50 296 50 191 m 385 73 q 444 82 416 73 q 490 109 473 91 q 517 171 508 126 q 526 254 526 215 q 496 423 526 351 q 416 533 467 495 q 302 572 365 572 q 242 563 264 572 q 203 536 220 553 q 178 475 188 519 q 168 388 168 431 q 192 237 168 309 q 265 119 216 165 q 385 73 314 73 m 161 812 q 153 850 153 821 q 159 902 153 876 q 175 935 165 927 q 211 943 183 943 q 262 936 237 943 q 297 920 288 930 q 304 883 304 911 q 298 831 304 857 q 282 797 292 805 q 248 790 273 790 q 195 797 222 790 q 161 812 168 803 m 396 812 q 389 850 389 821 q 395 902 389 876 q 410 935 401 927 q 447 943 418 943 q 498 936 473 943 q 533 920 524 930 q 541 884 541 912 q 534 831 541 858 q 517 797 528 805 q 479 789 507 789 q 429 796 454 789 q 396 812 404 802 z "},"ò":{"ha":693,"x_min":50,"x_max":644,"o":"m 50 296 q 88 475 50 391 q 194 610 126 559 q 349 661 262 661 q 498 627 432 661 q 604 522 565 593 q 644 347 644 452 q 605 168 644 252 q 498 34 566 84 q 352 -17 431 -17 q 197 17 265 -17 q 89 121 129 50 q 50 296 50 191 m 385 73 q 444 82 416 73 q 490 109 473 91 q 517 171 508 126 q 526 254 526 215 q 496 423 526 351 q 416 533 467 495 q 302 572 365 572 q 242 563 264 572 q 203 536 220 553 q 178 475 188 519 q 168 388 168 431 q 192 237 168 309 q 265 119 216 165 q 385 73 314 73 m 201 880 l 220 981 l 265 981 l 466 802 l 451 720 l 201 880 z "},"ő":{"ha":693,"x_min":50,"x_max":644,"o":"m 50 296 q 88 475 50 391 q 194 610 126 559 q 349 661 262 661 q 498 627 432 661 q 604 522 565 593 q 644 347 644 452 q 605 168 644 252 q 498 34 566 84 q 352 -17 431 -17 q 197 17 265 -17 q 89 121 129 50 q 50 296 50 191 m 385 73 q 444 82 416 73 q 490 109 473 91 q 517 171 508 126 q 526 254 526 215 q 496 423 526 351 q 416 533 467 495 q 302 572 365 572 q 242 563 264 572 q 203 536 220 553 q 178 475 188 519 q 168 388 168 431 q 192 237 168 309 q 265 119 216 165 q 385 73 314 73 m 279 981 l 345 981 l 361 897 l 206 709 l 183 805 l 279 981 m 480 981 l 547 981 l 562 897 l 406 709 l 385 809 l 480 981 z "},"ō":{"ha":693,"x_min":50,"x_max":644,"o":"m 50 296 q 88 475 50 391 q 194 610 126 559 q 349 661 262 661 q 498 627 432 661 q 604 522 565 593 q 644 347 644 452 q 605 168 644 252 q 498 34 566 84 q 352 -17 431 -17 q 197 17 265 -17 q 89 121 129 50 q 50 296 50 191 m 385 73 q 444 82 416 73 q 490 109 473 91 q 517 171 508 126 q 526 254 526 215 q 496 423 526 351 q 416 533 467 495 q 302 572 365 572 q 242 563 264 572 q 203 536 220 553 q 178 475 188 519 q 168 388 168 431 q 192 237 168 309 q 265 119 216 165 q 385 73 314 73 m 196 871 l 515 871 l 498 783 q 176 775 357 775 l 196 871 z "},"ø":{"ha":693,"x_min":50,"x_max":644,"o":"m 500 626 q 605 519 567 589 q 644 347 644 450 q 605 168 644 252 q 498 34 566 84 q 352 -17 431 -17 q 248 -3 297 -17 l 205 -113 l 123 -81 l 170 33 q 81 138 113 72 q 50 296 50 204 q 88 475 50 391 q 194 610 126 559 q 349 661 262 661 q 420 654 387 661 l 459 750 l 538 719 l 500 626 m 165 379 q 218 151 165 226 l 304 364 l 384 562 q 286 578 342 578 q 216 554 239 578 q 180 481 195 533 q 165 379 165 430 m 477 94 q 514 169 500 115 q 528 265 528 223 q 455 514 528 435 l 351 258 l 286 92 q 397 68 333 68 q 442 75 420 68 q 477 94 464 81 z "},"õ":{"ha":693,"x_min":50,"x_max":644,"o":"m 50 296 q 88 475 50 391 q 194 610 126 559 q 349 661 262 661 q 498 627 432 661 q 604 522 565 593 q 644 347 644 452 q 605 168 644 252 q 498 34 566 84 q 352 -17 431 -17 q 197 17 265 -17 q 89 121 129 50 q 50 296 50 191 m 385 73 q 444 82 416 73 q 490 109 473 91 q 517 171 508 126 q 526 254 526 215 q 496 423 526 351 q 416 533 467 495 q 302 572 365 572 q 242 563 264 572 q 203 536 220 553 q 178 475 188 519 q 168 388 168 431 q 192 237 168 309 q 265 119 216 165 q 385 73 314 73 m 121 858 q 198 927 165 903 q 269 950 231 950 q 325 936 299 950 q 382 896 350 922 q 411 873 400 881 q 432 866 422 866 q 488 886 450 866 q 559 934 526 906 l 571 857 q 496 791 530 814 q 423 767 462 767 q 368 782 393 767 q 312 821 342 796 q 282 844 294 836 q 262 851 271 851 q 226 842 249 851 q 178 817 203 833 q 135 781 153 801 l 121 858 z "},"œ":{"ha":1053,"x_min":50,"x_max":1000,"o":"m 800 81 q 900 98 846 81 q 981 129 954 116 l 997 107 q 935 52 973 80 q 851 3 897 23 q 758 -17 804 -17 q 633 14 689 -17 q 544 108 578 44 q 452 16 505 50 q 339 -17 399 -17 q 191 17 256 -17 q 88 120 126 50 q 50 296 50 191 q 87 474 50 390 q 189 610 123 559 q 336 661 254 661 q 470 631 410 661 q 567 539 530 600 q 662 629 606 597 q 787 661 718 661 q 902 633 853 661 q 975 555 950 604 q 1000 446 1000 506 q 985 355 1000 399 q 976 337 981 342 q 958 332 970 332 l 614 332 q 645 210 618 268 q 712 116 671 152 q 800 81 753 81 m 671 565 q 635 497 652 546 q 614 382 618 449 l 886 406 q 865 502 886 462 q 807 562 844 542 q 727 583 771 583 q 694 579 709 583 q 671 565 680 576 m 467 110 q 494 175 485 128 q 503 262 503 222 q 474 427 503 357 q 398 535 446 498 q 291 573 350 573 q 238 564 258 573 q 203 538 219 555 q 178 476 189 521 q 168 389 168 432 q 191 238 168 311 q 259 120 213 166 q 372 74 304 74 q 425 83 399 74 q 467 110 451 92 z "},"p":{"ha":747,"x_min":20,"x_max":694,"o":"m 418 -269 l 408 -322 l 20 -322 l 31 -263 l 128 -230 l 128 526 l 24 578 l 30 610 l 216 651 l 239 559 q 317 611 285 591 q 388 645 349 630 q 465 660 427 660 q 587 623 536 660 q 666 514 639 585 q 694 344 694 443 q 656 169 694 252 q 554 36 618 86 q 487 -2 524 12 q 413 -17 451 -17 q 319 1 361 -17 q 250 54 276 18 l 250 -237 l 418 -269 m 247 522 q 250 473 250 501 l 250 163 q 341 100 285 119 q 454 80 397 80 q 517 90 496 80 q 543 125 530 96 q 565 197 557 153 q 574 288 574 240 q 546 446 574 380 q 471 549 517 513 q 426 564 452 564 q 344 551 397 564 q 247 522 291 538 z "},"þ":{"ha":754,"x_min":26,"x_max":701,"o":"m 425 -269 l 414 -322 l 26 -322 l 37 -262 l 135 -231 l 135 873 l 30 926 l 37 958 l 256 998 l 256 566 q 330 614 299 595 q 398 646 361 633 q 471 660 435 660 q 594 622 543 660 q 673 513 646 585 q 701 343 701 442 q 663 169 701 252 q 560 36 625 86 q 493 -3 530 12 q 420 -18 457 -18 q 326 0 368 -18 q 256 54 283 18 l 256 -237 l 425 -269 m 256 163 q 348 100 289 119 q 460 80 408 80 q 523 90 502 80 q 549 124 536 95 q 572 197 563 153 q 581 289 581 241 q 552 447 581 380 q 477 549 523 513 q 433 564 458 564 q 353 553 395 564 q 256 522 312 543 l 256 163 z "},"q":{"ha":734,"x_min":50,"x_max":734,"o":"m 497 66 q 410 6 458 28 q 309 -17 361 -17 q 183 18 242 -17 q 87 124 124 52 q 50 304 50 197 q 72 441 50 375 q 139 562 95 507 q 231 634 177 608 q 340 660 285 660 q 448 641 402 660 q 533 573 494 623 l 650 654 l 682 606 l 618 494 l 618 -231 l 734 -264 l 722 -322 l 339 -322 l 350 -269 l 497 -237 l 497 66 m 497 446 q 450 511 481 481 q 377 558 418 541 q 293 576 336 576 q 243 570 262 576 q 211 547 224 564 q 179 470 189 519 q 168 364 168 422 q 200 210 168 283 q 293 94 231 136 q 338 79 312 79 q 419 88 378 79 q 497 113 460 97 l 497 446 z "},"r":{"ha":558,"x_min":37,"x_max":545,"o":"m 43 578 l 50 611 l 235 651 l 265 516 q 349 626 311 595 q 433 658 387 658 q 469 653 450 658 q 505 639 488 648 q 533 614 522 629 q 545 581 545 600 q 532 537 545 559 q 500 499 519 514 q 462 484 481 484 q 437 487 450 484 q 415 494 425 490 l 401 570 q 335 530 372 557 q 269 477 298 503 l 269 85 l 444 54 l 432 0 l 37 0 l 49 59 l 148 92 l 148 526 l 43 578 z "},"ŕ":{"ha":558,"x_min":37,"x_max":545,"o":"m 43 578 l 50 611 l 235 651 l 265 516 q 349 626 311 595 q 433 658 387 658 q 469 653 450 658 q 505 639 488 648 q 533 614 522 629 q 545 581 545 600 q 532 537 545 559 q 500 499 519 514 q 462 484 481 484 q 437 487 450 484 q 415 494 425 490 l 401 570 q 335 530 372 557 q 269 477 298 503 l 269 85 l 444 54 l 432 0 l 37 0 l 49 59 l 148 92 l 148 526 l 43 578 m 361 981 l 404 981 l 424 880 l 174 720 l 159 802 l 361 981 z "},"ř":{"ha":558,"x_min":37,"x_max":545,"o":"m 43 578 l 50 611 l 235 651 l 265 516 q 349 626 311 595 q 433 658 387 658 q 469 653 450 658 q 505 639 488 648 q 533 614 522 629 q 545 581 545 600 q 532 537 545 559 q 500 499 519 514 q 462 484 481 484 q 437 487 450 484 q 415 494 425 490 l 401 570 q 335 530 372 557 q 269 477 298 503 l 269 85 l 444 54 l 432 0 l 37 0 l 49 59 l 148 92 l 148 526 l 43 578 m 445 941 l 486 901 l 319 731 l 241 731 l 73 901 l 114 941 l 279 840 l 445 941 z "},"ŗ":{"ha":558,"x_min":37,"x_max":545,"o":"m 43 578 l 50 611 l 235 651 l 265 516 q 349 626 311 595 q 433 658 387 658 q 469 653 450 658 q 505 639 488 648 q 533 614 522 629 q 545 581 545 600 q 532 537 545 559 q 500 499 519 514 q 462 484 481 484 q 437 487 450 484 q 415 494 425 490 l 401 570 q 335 530 372 557 q 269 477 298 503 l 269 85 l 444 54 l 432 0 l 37 0 l 49 59 l 148 92 l 148 526 l 43 578 m 159 -64 q 213 -75 187 -65 q 257 -103 238 -85 q 281 -137 273 -118 q 290 -177 290 -156 q 263 -253 290 -220 q 200 -303 236 -286 q 140 -320 164 -320 l 130 -290 q 192 -237 173 -258 q 210 -196 210 -216 q 195 -165 210 -178 q 140 -140 180 -151 l 159 -64 z "},"s":{"ha":559,"x_min":41,"x_max":509,"o":"m 355 601 q 266 584 311 597 q 190 548 220 570 q 170 500 170 533 q 237 412 170 448 q 273 396 254 403 q 326 380 292 390 q 390 358 366 368 q 438 334 415 349 q 490 278 471 313 q 509 195 509 243 q 477 78 509 126 q 391 7 446 31 q 267 -17 336 -17 q 168 -7 210 -17 q 99 19 127 3 q 41 58 71 35 l 71 207 l 142 191 l 168 60 q 285 69 227 60 q 377 100 343 79 q 401 155 401 116 q 390 201 401 180 q 353 240 379 222 q 313 260 335 252 q 258 279 292 269 q 234 288 253 281 q 198 301 214 294 q 169 315 182 307 q 97 381 123 340 q 71 477 71 422 q 105 581 71 539 q 197 642 140 622 q 321 661 254 661 q 450 631 397 661 q 496 566 496 603 q 484 528 496 547 q 453 497 472 509 q 417 486 435 486 q 375 495 394 486 l 355 601 z "},"ś":{"ha":559,"x_min":41,"x_max":509,"o":"m 355 601 q 266 584 311 597 q 190 548 220 570 q 170 500 170 533 q 237 412 170 448 q 273 396 254 403 q 326 380 292 390 q 390 358 366 368 q 438 334 415 349 q 490 278 471 313 q 509 195 509 243 q 477 78 509 126 q 391 7 446 31 q 267 -17 336 -17 q 168 -7 210 -17 q 99 19 127 3 q 41 58 71 35 l 71 207 l 142 191 l 168 60 q 285 69 227 60 q 377 100 343 79 q 401 155 401 116 q 390 201 401 180 q 353 240 379 222 q 313 260 335 252 q 258 279 292 269 q 234 288 253 281 q 198 301 214 294 q 169 315 182 307 q 97 381 123 340 q 71 477 71 422 q 105 581 71 539 q 197 642 140 622 q 321 661 254 661 q 450 631 397 661 q 496 566 496 603 q 484 528 496 547 q 453 497 472 509 q 417 486 435 486 q 375 495 394 486 l 355 601 m 374 981 l 418 981 l 437 880 l 188 720 l 172 802 l 374 981 z "},"š":{"ha":559,"x_min":41,"x_max":509,"o":"m 355 601 q 266 584 311 597 q 190 548 220 570 q 170 500 170 533 q 237 412 170 448 q 273 396 254 403 q 326 380 292 390 q 390 358 366 368 q 438 334 415 349 q 490 278 471 313 q 509 195 509 243 q 477 78 509 126 q 391 7 446 31 q 267 -17 336 -17 q 168 -7 210 -17 q 99 19 127 3 q 41 58 71 35 l 71 207 l 142 191 l 168 60 q 285 69 227 60 q 377 100 343 79 q 401 155 401 116 q 390 201 401 180 q 353 240 379 222 q 313 260 335 252 q 258 279 292 269 q 234 288 253 281 q 198 301 214 294 q 169 315 182 307 q 97 381 123 340 q 71 477 71 422 q 105 581 71 539 q 197 642 140 622 q 321 661 254 661 q 450 631 397 661 q 496 566 496 603 q 484 528 496 547 q 453 497 472 509 q 417 486 435 486 q 375 495 394 486 l 355 601 m 458 941 l 500 901 l 332 731 l 254 731 l 86 901 l 127 941 l 293 840 l 458 941 z "},"ş":{"ha":559,"x_min":41,"x_max":509,"o":"m 509 195 q 453 49 509 103 q 307 -15 397 -5 l 285 -58 q 366 -100 340 -75 q 392 -166 392 -124 q 353 -248 392 -216 q 260 -293 315 -279 q 152 -307 205 -307 l 143 -275 q 262 -214 233 -239 q 292 -170 292 -190 q 265 -137 292 -151 q 176 -111 237 -123 q 193 -67 176 -95 q 229 -16 209 -39 q 122 8 164 -11 q 41 58 81 26 l 71 207 l 142 191 l 168 60 q 285 69 227 60 q 377 100 343 79 q 401 155 401 116 q 390 201 401 180 q 353 240 379 222 q 313 260 335 252 q 258 279 292 269 q 234 288 253 281 q 198 301 214 294 q 169 315 182 307 q 97 381 123 340 q 71 477 71 422 q 105 581 71 539 q 197 642 140 622 q 321 661 254 661 q 450 631 397 661 q 496 566 496 603 q 484 528 496 547 q 453 497 472 509 q 417 486 435 486 q 375 495 394 486 l 355 601 q 266 584 311 597 q 190 548 220 570 q 170 500 170 533 q 237 412 170 448 q 273 396 254 403 q 326 380 292 390 q 390 358 366 368 q 438 334 415 349 q 490 278 471 313 q 509 195 509 243 z "},"ș":{"ha":559,"x_min":41,"x_max":509,"o":"m 355 601 q 266 584 311 597 q 190 548 220 570 q 170 500 170 533 q 237 412 170 448 q 273 396 254 403 q 326 380 292 390 q 390 358 366 368 q 438 334 415 349 q 490 278 471 313 q 509 195 509 243 q 477 78 509 126 q 391 7 446 31 q 267 -17 336 -17 q 168 -7 210 -17 q 99 19 127 3 q 41 58 71 35 l 71 207 l 142 191 l 168 60 q 285 69 227 60 q 377 100 343 79 q 401 155 401 116 q 390 201 401 180 q 353 240 379 222 q 313 260 335 252 q 258 279 292 269 q 234 288 253 281 q 198 301 214 294 q 169 315 182 307 q 97 381 123 340 q 71 477 71 422 q 105 581 71 539 q 197 642 140 622 q 321 661 254 661 q 450 631 397 661 q 496 566 496 603 q 484 528 496 547 q 453 497 472 509 q 417 486 435 486 q 375 495 394 486 l 355 601 m 220 -64 q 274 -75 249 -65 q 319 -103 300 -85 q 343 -137 334 -118 q 352 -177 352 -156 q 325 -253 352 -220 q 262 -303 298 -286 q 202 -320 226 -320 l 192 -290 q 253 -237 235 -258 q 272 -196 272 -216 q 257 -165 272 -178 q 201 -140 241 -151 l 220 -64 z "},"ß":{"ha":812,"x_min":37,"x_max":786,"o":"m 150 92 l 150 550 l 37 584 l 50 644 l 150 644 l 150 682 q 244 930 150 838 q 334 986 279 965 q 454 1007 389 1007 q 573 983 520 1007 q 655 913 625 958 q 684 810 684 869 q 671 741 684 770 q 638 692 657 711 q 586 649 618 673 q 542 613 558 628 q 515 577 526 598 q 505 527 505 555 q 518 480 505 500 q 557 440 532 460 q 638 383 582 421 q 746 285 705 338 q 786 161 786 232 q 731 27 786 71 q 583 -17 675 -17 q 368 54 454 -17 l 393 200 l 461 184 l 481 60 q 582 68 537 60 q 642 86 626 76 q 658 110 653 94 q 663 146 663 127 q 646 213 663 184 q 604 261 629 241 q 534 310 579 281 q 432 399 466 354 q 398 510 398 444 q 421 593 398 555 q 474 655 444 630 q 543 707 503 680 q 576 731 567 723 q 585 748 583 737 q 587 773 587 759 q 561 858 587 823 q 493 910 535 893 q 401 928 450 928 q 340 921 364 928 q 308 906 317 915 q 279 839 286 878 q 271 724 271 800 l 271 85 l 288 0 l 40 0 l 51 60 l 150 92 z "},"t":{"ha":486,"x_min":12,"x_max":485,"o":"m 24 644 l 124 644 l 138 793 l 245 837 l 245 644 l 460 644 l 450 585 l 245 550 l 245 249 q 262 142 245 190 q 309 77 278 94 q 341 71 321 71 q 423 82 379 71 q 472 95 467 94 l 485 63 q 388 9 444 35 q 296 -17 333 -17 q 124 214 124 -17 l 124 550 l 12 584 l 24 644 z "},"ť":{"ha":486,"x_min":12,"x_max":491,"o":"m 321 716 q 363 814 347 772 q 388 891 380 855 l 330 916 l 341 984 l 481 1000 q 491 943 491 980 q 455 819 491 885 q 368 701 420 753 l 321 716 m 24 644 l 124 644 l 138 793 l 245 837 l 245 644 l 460 644 l 450 585 l 245 550 l 245 249 q 262 142 245 190 q 309 77 278 94 q 341 71 321 71 q 423 82 379 71 q 472 95 467 94 l 485 63 q 388 9 444 35 q 296 -17 333 -17 q 124 214 124 -17 l 124 550 l 12 584 l 24 644 z "},"ț":{"ha":486,"x_min":12,"x_max":485,"o":"m 24 644 l 124 644 l 138 793 l 245 837 l 245 644 l 460 644 l 450 585 l 245 550 l 245 249 q 262 142 245 190 q 309 77 278 94 q 341 71 321 71 q 423 82 379 71 q 472 95 467 94 l 485 63 q 388 9 444 35 q 296 -17 333 -17 q 124 214 124 -17 l 124 550 l 12 584 l 24 644 m 239 -64 q 293 -75 267 -65 q 337 -103 318 -85 q 361 -137 353 -118 q 370 -177 370 -156 q 343 -253 370 -220 q 280 -303 316 -286 q 220 -320 244 -320 l 210 -290 q 272 -237 253 -258 q 290 -196 290 -216 q 275 -165 290 -178 q 220 -140 260 -151 l 239 -64 z "},"u":{"ha":786,"x_min":16,"x_max":768,"o":"m 16 589 l 27 644 l 243 644 l 243 274 q 263 157 243 202 q 309 92 282 111 q 345 81 323 81 q 440 92 387 81 q 530 118 493 102 l 530 543 l 406 589 l 418 644 l 650 644 l 650 130 q 684 99 662 113 q 730 75 707 84 q 768 64 754 66 l 759 23 q 685 -3 735 11 q 604 -17 635 -17 q 581 40 599 3 q 545 92 563 76 q 434 15 503 47 q 300 -17 366 -17 q 212 6 252 -17 q 147 83 172 29 q 122 225 122 137 l 122 543 l 16 589 z "},"ú":{"ha":786,"x_min":16,"x_max":768,"o":"m 16 589 l 27 644 l 243 644 l 243 274 q 263 157 243 202 q 309 92 282 111 q 345 81 323 81 q 440 92 387 81 q 530 118 493 102 l 530 543 l 406 589 l 418 644 l 650 644 l 650 130 q 684 99 662 113 q 730 75 707 84 q 768 64 754 66 l 759 23 q 685 -3 735 11 q 604 -17 635 -17 q 581 40 599 3 q 545 92 563 76 q 434 15 503 47 q 300 -17 366 -17 q 212 6 252 -17 q 147 83 172 29 q 122 225 122 137 l 122 543 l 16 589 m 461 981 l 505 981 l 524 880 l 275 720 l 259 802 l 461 981 z "},"û":{"ha":786,"x_min":16,"x_max":768,"o":"m 16 589 l 27 644 l 243 644 l 243 274 q 263 157 243 202 q 309 92 282 111 q 345 81 323 81 q 440 92 387 81 q 530 118 493 102 l 530 543 l 406 589 l 418 644 l 650 644 l 650 130 q 684 99 662 113 q 730 75 707 84 q 768 64 754 66 l 759 23 q 685 -3 735 11 q 604 -17 635 -17 q 581 40 599 3 q 545 92 563 76 q 434 15 503 47 q 300 -17 366 -17 q 212 6 252 -17 q 147 83 172 29 q 122 225 122 137 l 122 543 l 16 589 m 215 734 l 172 777 l 343 943 l 417 943 l 587 777 l 545 734 l 380 833 l 215 734 z "},"ü":{"ha":786,"x_min":16,"x_max":768,"o":"m 16 589 l 27 644 l 243 644 l 243 274 q 263 157 243 202 q 309 92 282 111 q 345 81 323 81 q 440 92 387 81 q 530 118 493 102 l 530 543 l 406 589 l 418 644 l 650 644 l 650 130 q 684 99 662 113 q 730 75 707 84 q 768 64 754 66 l 759 23 q 685 -3 735 11 q 604 -17 635 -17 q 581 40 599 3 q 545 92 563 76 q 434 15 503 47 q 300 -17 366 -17 q 212 6 252 -17 q 147 83 172 29 q 122 225 122 137 l 122 543 l 16 589 m 194 812 q 186 850 186 821 q 193 902 186 876 q 208 935 199 927 q 244 943 216 943 q 296 936 270 943 q 330 920 321 930 q 338 883 338 911 q 331 831 338 857 q 315 797 325 805 q 281 790 307 790 q 228 797 255 790 q 194 812 201 803 m 429 812 q 422 850 422 821 q 428 902 422 876 q 444 935 434 927 q 480 943 452 943 q 532 936 506 943 q 566 920 557 930 q 574 884 574 912 q 567 831 574 858 q 551 797 561 805 q 513 789 540 789 q 463 796 488 789 q 429 812 437 802 z "},"ù":{"ha":786,"x_min":16,"x_max":768,"o":"m 16 589 l 27 644 l 243 644 l 243 274 q 263 157 243 202 q 309 92 282 111 q 345 81 323 81 q 440 92 387 81 q 530 118 493 102 l 530 543 l 406 589 l 418 644 l 650 644 l 650 130 q 684 99 662 113 q 730 75 707 84 q 768 64 754 66 l 759 23 q 685 -3 735 11 q 604 -17 635 -17 q 581 40 599 3 q 545 92 563 76 q 434 15 503 47 q 300 -17 366 -17 q 212 6 252 -17 q 147 83 172 29 q 122 225 122 137 l 122 543 l 16 589 m 234 880 l 254 981 l 298 981 l 499 802 l 484 720 l 234 880 z "},"ű":{"ha":786,"x_min":16,"x_max":768,"o":"m 16 589 l 27 644 l 243 644 l 243 274 q 263 157 243 202 q 309 92 282 111 q 345 81 323 81 q 440 92 387 81 q 530 118 493 102 l 530 543 l 406 589 l 418 644 l 650 644 l 650 130 q 684 99 662 113 q 730 75 707 84 q 768 64 754 66 l 759 23 q 685 -3 735 11 q 604 -17 635 -17 q 581 40 599 3 q 545 92 563 76 q 434 15 503 47 q 300 -17 366 -17 q 212 6 252 -17 q 147 83 172 29 q 122 225 122 137 l 122 543 l 16 589 m 313 981 l 378 981 l 395 897 l 239 709 l 216 805 l 313 981 m 513 981 l 580 981 l 595 897 l 439 709 l 418 809 l 513 981 z "},"ū":{"ha":786,"x_min":16,"x_max":768,"o":"m 16 589 l 27 644 l 243 644 l 243 274 q 263 157 243 202 q 309 92 282 111 q 345 81 323 81 q 440 92 387 81 q 530 118 493 102 l 530 543 l 406 589 l 418 644 l 650 644 l 650 130 q 684 99 662 113 q 730 75 707 84 q 768 64 754 66 l 759 23 q 685 -3 735 11 q 604 -17 635 -17 q 581 40 599 3 q 545 92 563 76 q 434 15 503 47 q 300 -17 366 -17 q 212 6 252 -17 q 147 83 172 29 q 122 225 122 137 l 122 543 l 16 589 m 229 871 l 549 871 l 532 783 q 210 775 390 775 l 229 871 z "},"ų":{"ha":787,"x_min":16,"x_max":766,"o":"m 406 590 l 419 644 l 650 644 l 650 135 q 766 64 675 88 l 757 22 q 589 -52 658 -9 q 519 -161 519 -94 q 535 -207 519 -184 q 576 -237 551 -229 q 600 -241 587 -241 q 649 -234 620 -241 q 705 -214 677 -226 l 719 -240 q 637 -301 677 -279 q 556 -323 598 -323 q 489 -308 520 -323 q 439 -263 458 -292 q 420 -195 420 -234 q 594 3 420 -74 q 545 92 572 60 q 434 15 503 47 q 300 -17 366 -17 q 212 6 252 -17 q 147 83 172 29 q 122 225 122 137 l 122 543 l 16 589 l 28 644 l 243 644 l 243 274 q 263 157 243 202 q 309 92 282 111 q 345 81 323 81 q 440 92 387 81 q 530 118 493 102 l 530 543 l 406 590 z "},"ů":{"ha":786,"x_min":16,"x_max":768,"o":"m 16 589 l 27 644 l 243 644 l 243 274 q 263 157 243 202 q 309 92 282 111 q 345 81 323 81 q 440 92 387 81 q 530 118 493 102 l 530 543 l 406 589 l 418 644 l 650 644 l 650 130 q 684 99 662 113 q 730 75 707 84 q 768 64 754 66 l 759 23 q 685 -3 735 11 q 604 -17 635 -17 q 581 40 599 3 q 545 92 563 76 q 434 15 503 47 q 300 -17 366 -17 q 212 6 252 -17 q 147 83 172 29 q 122 225 122 137 l 122 543 l 16 589 m 378 721 q 314 736 343 721 q 269 780 286 751 q 252 844 252 808 q 268 911 252 880 q 314 961 284 943 q 383 979 344 979 q 445 964 416 979 q 491 920 474 948 q 508 855 508 892 q 491 788 508 819 q 444 739 474 758 q 378 721 414 721 m 386 787 q 423 804 408 787 q 437 843 437 820 q 419 893 437 871 q 373 915 400 915 q 335 898 350 915 q 321 857 321 880 q 338 808 321 829 q 386 787 356 787 z "},"v":{"ha":696,"x_min":-18,"x_max":697,"o":"m 697 644 l 690 602 l 616 557 l 397 0 l 312 -14 l 79 557 l -18 595 l -9 644 l 304 644 l 294 595 l 211 560 l 381 134 l 538 559 l 441 593 l 450 644 l 697 644 z "},"w":{"ha":1013,"x_min":-5,"x_max":1008,"o":"m 1008 644 l 1000 603 l 925 558 l 758 0 l 669 -17 l 499 445 l 351 0 l 263 -17 l 92 557 l -5 595 l 4 644 l 307 644 l 298 596 l 218 558 l 335 136 l 495 644 l 546 644 l 743 136 l 847 560 l 734 593 l 743 644 l 1008 644 z "},"x":{"ha":764,"x_min":25,"x_max":744,"o":"m 744 54 l 733 0 l 408 0 l 418 54 l 493 76 l 357 260 l 214 75 l 299 53 l 288 0 l 25 0 l 35 52 l 121 82 l 315 314 l 119 570 l 27 590 l 38 644 l 351 644 l 342 593 l 271 568 l 406 379 l 550 569 l 463 592 l 473 644 l 732 644 l 722 587 l 643 566 l 445 327 l 640 78 l 744 54 z "},"y":{"ha":703,"x_min":-26,"x_max":695,"o":"m 695 644 l 686 598 l 614 559 l 453 110 q 364 -115 404 -28 q 284 -255 325 -202 q 195 -328 243 -309 q 137 -339 167 -339 q 76 -331 106 -339 q 25 -304 45 -323 q 4 -258 4 -286 q 17 -218 4 -239 q 50 -182 31 -197 q 87 -168 70 -168 q 112 -171 98 -168 q 134 -180 125 -174 l 155 -288 q 200 -238 170 -278 q 265 -138 231 -197 q 328 -14 299 -78 l 71 556 l -26 593 l -16 644 l 307 644 l 298 596 l 206 560 l 384 139 l 528 559 l 430 593 l 439 644 l 695 644 z "},"ý":{"ha":703,"x_min":-26,"x_max":695,"o":"m 695 644 l 686 598 l 614 559 l 453 110 q 364 -115 404 -28 q 284 -255 325 -202 q 195 -328 243 -309 q 137 -339 167 -339 q 76 -331 106 -339 q 25 -304 45 -323 q 4 -258 4 -286 q 17 -218 4 -239 q 50 -182 31 -197 q 87 -168 70 -168 q 112 -171 98 -168 q 134 -180 125 -174 l 155 -288 q 200 -238 170 -278 q 265 -138 231 -197 q 328 -14 299 -78 l 71 556 l -26 593 l -16 644 l 307 644 l 298 596 l 206 560 l 384 139 l 528 559 l 430 593 l 439 644 l 695 644 m 433 981 l 477 981 l 496 880 l 247 720 l 231 802 l 433 981 z "},"ÿ":{"ha":703,"x_min":-26,"x_max":695,"o":"m 695 644 l 686 598 l 614 559 l 453 110 q 364 -115 404 -28 q 284 -255 325 -202 q 195 -328 243 -309 q 137 -339 167 -339 q 76 -331 106 -339 q 25 -304 45 -323 q 4 -258 4 -286 q 17 -218 4 -239 q 50 -182 31 -197 q 87 -168 70 -168 q 112 -171 98 -168 q 134 -180 125 -174 l 155 -288 q 200 -238 170 -278 q 265 -138 231 -197 q 328 -14 299 -78 l 71 556 l -26 593 l -16 644 l 307 644 l 298 596 l 206 560 l 384 139 l 528 559 l 430 593 l 439 644 l 695 644 m 166 812 q 159 850 159 821 q 165 902 159 876 q 180 935 171 927 q 216 943 189 943 q 268 936 242 943 q 302 920 294 930 q 310 883 310 911 q 303 831 310 857 q 288 797 297 805 q 253 790 279 790 q 200 797 227 790 q 166 812 173 803 m 401 812 q 394 850 394 821 q 400 902 394 876 q 416 935 406 927 q 452 943 424 943 q 504 936 478 943 q 538 920 530 930 q 546 884 546 912 q 539 831 546 858 q 523 797 533 805 q 485 789 512 789 q 435 796 460 789 q 401 812 410 802 z "},"z":{"ha":622,"x_min":39,"x_max":564,"o":"m 487 195 l 558 198 l 559 0 l 64 0 l 39 59 l 441 581 l 176 568 l 140 470 l 68 467 l 68 644 l 536 644 l 564 562 l 186 64 l 448 78 l 487 195 z "},"ź":{"ha":622,"x_min":39,"x_max":564,"o":"m 487 195 l 558 198 l 559 0 l 64 0 l 39 59 l 441 581 l 176 568 l 140 470 l 68 467 l 68 644 l 536 644 l 564 562 l 186 64 l 448 78 l 487 195 m 393 981 l 436 981 l 456 880 l 206 720 l 191 802 l 393 981 z "},"ž":{"ha":622,"x_min":39,"x_max":564,"o":"m 487 195 l 558 198 l 559 0 l 64 0 l 39 59 l 441 581 l 176 568 l 140 470 l 68 467 l 68 644 l 536 644 l 564 562 l 186 64 l 448 78 l 487 195 m 477 941 l 518 901 l 351 731 l 273 731 l 104 901 l 146 941 l 311 840 l 477 941 z "},"ż":{"ha":622,"x_min":39,"x_max":564,"o":"m 487 195 l 558 198 l 559 0 l 64 0 l 39 59 l 441 581 l 176 568 l 140 470 l 68 467 l 68 644 l 536 644 l 564 562 l 186 64 l 448 78 l 487 195 m 243 812 q 236 850 236 821 q 242 902 236 876 q 258 935 248 927 q 294 943 266 943 q 346 936 320 943 q 380 920 372 930 q 388 884 388 912 q 381 831 388 858 q 365 797 375 805 q 330 790 356 790 q 277 797 304 790 q 243 812 250 803 z "},"ﬁ":{"ha":833,"x_min":38,"x_max":824,"o":"m 151 92 l 151 550 l 38 584 l 50 644 l 151 644 q 178 824 151 747 q 275 948 205 901 q 363 987 316 975 q 482 998 410 998 q 575 986 528 998 q 650 956 622 973 q 703 885 703 925 q 690 844 703 865 q 656 809 677 823 q 614 795 635 795 q 569 806 593 795 l 539 922 q 480 926 515 926 q 323 857 374 926 q 271 644 272 787 l 703 651 l 703 85 l 824 52 l 813 0 l 471 0 l 481 57 l 582 86 l 582 524 q 539 554 565 541 q 488 573 513 568 l 271 551 l 271 85 l 394 54 l 383 0 l 39 0 l 52 59 l 151 92 z "},"ﬂ":{"ha":836,"x_min":38,"x_max":818,"o":"m 818 56 l 806 0 l 479 0 l 490 57 l 581 85 l 581 808 l 552 922 q 490 926 525 926 q 318 848 363 926 q 271 644 272 769 l 483 644 l 474 590 l 271 551 l 271 85 l 394 54 l 383 0 l 40 0 l 51 59 l 151 92 l 151 550 l 38 585 l 51 644 l 151 644 q 230 909 151 818 q 463 1000 309 1000 q 583 982 536 1000 l 702 998 l 702 85 l 818 56 z "},"ª":{"ha":659,"x_min":95,"x_max":587,"o":"m 243 433 q 161 456 195 433 q 111 512 127 478 q 95 579 95 545 q 104 635 95 613 q 132 671 113 656 q 181 698 150 685 q 273 719 219 713 q 372 724 328 724 q 391 722 387 724 q 382 834 391 793 q 344 890 372 874 q 314 899 332 897 q 269 901 295 901 q 239 897 249 901 l 224 816 q 213 810 222 814 q 195 803 203 806 q 179 801 186 801 q 151 810 165 801 q 126 833 136 819 q 117 863 117 848 q 129 889 117 876 q 160 911 142 902 q 258 949 201 935 q 349 963 315 963 q 457 921 423 963 q 492 806 492 878 l 492 545 q 583 494 511 509 l 576 467 q 515 445 557 456 q 449 433 473 433 q 430 478 444 450 q 406 517 416 505 q 369 480 397 500 q 306 447 340 460 q 243 433 271 433 m 256 517 q 273 515 266 515 q 335 525 299 515 q 391 547 372 535 l 391 681 q 273 664 317 676 q 218 640 229 651 q 208 606 208 630 q 223 553 208 581 q 256 517 237 526 m 117 361 l 587 361 l 569 294 q 336 284 467 288 q 100 281 204 281 l 117 361 z "},"º":{"ha":644,"x_min":94,"x_max":553,"o":"m 94 678 q 123 817 94 751 q 204 922 152 882 q 322 962 256 962 q 437 936 386 962 q 518 853 488 909 q 548 717 548 798 q 518 577 548 643 q 437 473 488 512 q 325 433 386 433 q 206 460 258 433 q 124 541 154 486 q 94 678 94 595 m 360 510 q 394 515 377 510 q 422 530 410 519 q 449 583 439 545 q 458 654 458 621 q 439 766 458 713 q 380 852 420 819 q 281 886 340 886 q 244 880 260 886 q 219 865 228 874 q 193 813 203 848 q 183 741 183 777 q 202 632 183 685 q 261 545 221 579 q 360 510 300 510 m 117 361 l 553 361 l 535 294 q 100 281 342 281 l 117 361 z "},"π":{"ha":894,"x_min":46,"x_max":836,"o":"m 627 545 l 627 136 q 641 90 627 105 q 687 70 654 75 q 787 65 720 65 l 782 28 q 586 -14 645 -14 q 522 26 538 -14 q 506 123 506 66 q 515 294 506 142 q 531 545 524 446 l 311 545 l 286 13 l 146 -14 l 212 545 l 46 545 l 85 644 l 836 644 l 802 545 l 627 545 z "},"ऄ":{"ha":977,"x_min":12,"x_max":1013,"o":"m 1013 714 l 871 714 l 871 -68 l 766 -26 l 766 358 q 667 331 727 331 q 556 357 618 331 q 594 296 582 327 q 607 229 607 264 q 575 119 607 166 q 489 46 543 72 q 368 21 434 21 q 12 321 146 21 l 73 350 q 166 215 123 266 q 253 140 210 164 q 345 117 296 117 q 424 136 389 117 q 478 187 458 155 q 498 258 498 219 q 412 416 498 349 q 311 386 369 395 l 251 479 q 376 527 331 502 q 442 584 422 551 q 463 662 463 616 q 459 696 463 680 q 447 720 454 713 q 425 731 441 727 q 387 734 409 734 q 289 701 343 734 q 189 614 235 668 l 115 703 q 215 783 158 753 q 332 812 273 812 q 438 783 389 812 q 515 706 486 753 q 543 608 543 659 q 524 521 543 561 q 469 451 505 481 q 606 418 525 418 q 699 437 655 418 q 766 488 743 456 l 766 714 l 665 714 l 629 805 l 802 805 q 761 875 783 848 q 701 921 739 901 q 650 936 680 931 q 574 946 621 941 q 486 958 519 951 q 426 977 452 964 q 336 1063 362 1007 q 308 1187 310 1120 l 341 1215 q 391 1126 369 1154 q 446 1084 413 1099 q 499 1068 470 1074 q 578 1055 528 1062 q 663 1042 629 1048 q 726 1023 697 1035 q 821 940 787 997 q 855 805 854 883 l 979 805 l 1013 714 z "},"ॲ":{"ha":977,"x_min":12,"x_max":1013,"o":"m 1013 714 l 871 714 l 871 -68 l 766 -26 l 766 358 q 667 331 727 331 q 556 357 618 331 q 594 296 582 327 q 607 229 607 264 q 575 119 607 166 q 489 46 543 72 q 368 21 434 21 q 12 321 146 21 l 73 350 q 166 215 123 266 q 253 140 210 164 q 345 117 296 117 q 424 136 389 117 q 478 187 458 155 q 498 258 498 219 q 412 416 498 349 q 311 386 369 395 l 251 479 q 376 527 331 502 q 442 584 422 551 q 463 662 463 616 q 459 696 463 680 q 447 720 454 713 q 425 731 441 727 q 387 734 409 734 q 289 701 343 734 q 189 614 235 668 l 115 703 q 215 783 158 753 q 332 812 273 812 q 438 783 389 812 q 515 706 486 753 q 543 608 543 659 q 524 521 543 561 q 469 451 505 481 q 606 418 525 418 q 699 437 655 418 q 766 488 743 456 l 766 714 l 665 714 l 629 805 l 979 805 l 1013 714 m 466 1084 q 547 995 509 1017 q 626 972 585 972 q 706 1006 669 972 q 777 1093 743 1039 l 852 1020 q 768 918 814 951 q 663 885 722 885 q 572 906 617 885 q 488 967 526 928 q 424 1057 450 1006 l 466 1084 z "},"अ":{"ha":977,"x_min":12,"x_max":1013,"o":"m 1013 714 l 871 714 l 871 -68 l 766 -26 l 766 358 q 667 331 727 331 q 556 357 618 331 q 594 296 582 327 q 607 229 607 264 q 575 119 607 166 q 489 46 543 72 q 368 21 434 21 q 12 321 146 21 l 73 350 q 166 215 123 266 q 253 140 210 164 q 345 117 296 117 q 424 136 389 117 q 478 187 458 155 q 498 258 498 219 q 412 416 498 349 q 311 386 369 395 l 251 479 q 376 527 331 502 q 442 584 422 551 q 463 662 463 616 q 459 696 463 680 q 447 720 454 713 q 425 731 441 727 q 387 734 409 734 q 289 701 343 734 q 189 614 235 668 l 115 703 q 215 783 158 753 q 332 812 273 812 q 438 783 389 812 q 515 706 486 753 q 543 608 543 659 q 524 521 543 561 q 469 451 505 481 q 606 418 525 418 q 699 437 655 418 q 766 488 743 456 l 766 714 l 665 714 l 629 805 l 979 805 l 1013 714 z "},"आ":{"ha":1318,"x_min":12,"x_max":1373,"o":"m 1373 714 l 1220 714 l 1220 -68 l 1116 -27 l 1116 714 l 871 714 l 871 -68 l 766 -26 l 766 358 q 667 331 727 331 q 556 357 618 331 q 594 296 582 327 q 607 229 607 264 q 575 119 607 166 q 489 46 543 72 q 368 21 434 21 q 12 321 146 21 l 73 350 q 166 215 123 266 q 253 140 210 164 q 345 117 296 117 q 424 136 389 117 q 478 187 458 155 q 498 258 498 219 q 412 416 498 349 q 311 386 369 395 l 251 479 q 376 527 331 502 q 442 584 422 551 q 463 662 463 616 q 459 696 463 680 q 447 720 454 713 q 425 731 441 727 q 387 734 409 734 q 289 701 343 734 q 189 614 235 668 l 115 703 q 215 783 158 753 q 332 812 273 812 q 438 783 389 812 q 515 706 486 753 q 543 608 543 659 q 524 521 543 561 q 469 451 505 481 q 606 418 525 418 q 699 437 655 418 q 766 488 743 456 l 766 714 l 665 714 l 629 805 l 1339 805 l 1373 714 z "},"इ":{"ha":655,"x_min":-49,"x_max":690,"o":"m 458 389 q 532 357 498 389 q 584 282 565 325 q 604 210 604 239 q 519 49 603 98 q 312 0 436 0 q 277 1 300 0 q 333 -82 303 -56 q 402 -109 362 -109 q 431 -104 418 -109 q 464 -88 444 -99 l 509 -174 q 458 -201 482 -194 q 410 -209 434 -209 q 327 -180 364 -209 q 261 -104 290 -151 q 202 10 233 -58 q 98 44 139 22 q 57 98 57 67 q 73 150 57 124 q 113 192 89 176 q 161 208 137 208 q 199 178 175 208 q 248 100 222 148 q 296 97 278 97 q 342 100 317 97 q 473 146 420 110 q 526 240 526 182 q 522 277 526 258 q 514 296 517 296 q 435 284 490 296 q 352 269 389 274 q 273 263 315 263 q 166 299 213 263 q 93 385 119 335 q 66 470 66 434 q 119 569 66 542 q 241 597 171 597 l 406 597 q 408 634 408 611 q 404 714 408 684 l -12 714 l -49 805 l 657 805 l 690 714 l 496 714 q 510 642 505 681 q 515 566 515 603 q 510 499 515 543 l 254 499 q 186 479 203 499 q 170 426 170 458 q 175 388 170 406 q 188 358 180 369 q 196 352 191 354 q 208 351 201 351 q 254 355 229 351 q 323 368 279 359 q 400 383 368 378 q 458 389 431 389 z "},"ई":{"ha":655,"x_min":-49,"x_max":690,"o":"m 458 389 q 532 357 498 389 q 584 282 565 325 q 604 210 604 239 q 519 49 603 98 q 312 0 436 0 q 277 1 300 0 q 333 -82 303 -56 q 402 -109 362 -109 q 431 -104 418 -109 q 464 -88 444 -99 l 509 -174 q 458 -201 482 -194 q 410 -209 434 -209 q 327 -180 364 -209 q 261 -104 290 -151 q 202 10 233 -58 q 98 44 139 22 q 57 98 57 67 q 73 150 57 124 q 113 192 89 176 q 161 208 137 208 q 199 178 175 208 q 248 100 222 148 q 296 97 278 97 q 342 100 317 97 q 473 146 420 110 q 526 240 526 182 q 522 277 526 258 q 514 296 517 296 q 435 284 490 296 q 352 269 389 274 q 273 263 315 263 q 166 299 213 263 q 93 385 119 335 q 66 470 66 434 q 119 569 66 542 q 241 597 171 597 l 406 597 q 408 634 408 611 q 404 714 408 684 l -12 714 l -49 805 l 657 805 l 690 714 l 496 714 q 510 642 505 681 q 515 566 515 603 q 510 499 515 543 l 254 499 q 186 479 203 499 q 170 426 170 458 q 175 388 170 406 q 188 358 180 369 q 196 352 191 354 q 208 351 201 351 q 254 355 229 351 q 323 368 279 359 q 400 383 368 378 q 458 389 431 389 m 455 749 q 337 855 383 793 q 290 985 290 916 q 309 1061 290 1026 q 364 1117 328 1096 q 452 1137 401 1137 q 521 1127 488 1137 q 589 1087 555 1118 l 610 996 q 548 1034 581 1021 q 485 1047 515 1047 q 418 1021 444 1047 q 393 948 393 996 q 478 770 393 862 l 455 749 z "},"उ":{"ha":705,"x_min":-35,"x_max":741,"o":"m 495 437 q 611 333 570 387 q 652 213 652 279 q 623 103 652 151 q 542 30 593 56 q 427 1 490 4 q 192 73 292 1 q 15 292 91 145 l 73 329 q 161 203 118 253 q 261 125 205 153 q 389 96 317 96 q 466 114 430 96 q 523 162 501 131 q 545 235 545 194 q 519 325 545 281 q 450 401 492 369 q 377 370 417 380 q 292 359 336 359 l 242 459 q 400 506 341 474 q 459 605 459 538 q 450 660 459 629 q 422 714 440 690 l 1 714 l -35 805 l 707 805 l 741 714 l 497 714 q 535 647 521 686 q 549 570 549 608 q 535 497 549 531 q 495 437 521 464 z "},"ऊ":{"ha":947,"x_min":-35,"x_max":983,"o":"m 716 503 q 813 472 768 503 q 887 395 859 442 q 914 302 914 349 q 893 197 914 246 q 819 96 873 149 l 729 169 q 794 242 772 212 q 825 302 816 273 q 833 370 833 331 q 829 405 833 387 q 819 427 824 423 q 764 437 802 437 q 687 410 725 437 q 609 332 650 383 q 642 276 631 304 q 653 213 653 247 q 623 103 653 151 q 542 30 593 56 q 427 1 491 4 q 192 73 293 1 q 16 292 90 146 l 74 329 q 390 96 214 96 q 466 114 431 96 q 524 162 502 131 q 546 235 546 194 q 519 326 546 282 q 449 402 492 370 q 293 359 386 366 l 242 458 q 403 506 346 474 q 460 605 460 538 q 450 660 460 629 q 422 714 441 690 l 1 714 l -35 805 l 949 805 l 983 714 l 494 714 q 534 646 519 684 q 550 570 550 607 q 536 496 550 530 q 494 436 522 462 q 530 408 509 424 q 624 480 580 458 q 716 503 669 503 z "},"ऋ":{"ha":1065,"x_min":-35,"x_max":1100,"o":"m 478 360 q 353 460 397 431 q 277 490 309 490 q 205 473 242 490 q 115 404 168 456 l 44 492 q 142 558 91 534 q 239 582 194 582 q 310 569 277 582 q 380 530 344 556 q 475 454 417 504 l 475 714 l 1 714 l -35 805 l 1065 805 l 1100 714 l 580 714 l 580 376 q 774 445 691 387 q 749 498 758 476 q 740 541 740 521 q 757 590 740 572 q 805 608 774 608 q 886 580 846 608 q 962 509 927 553 q 970 488 970 498 q 967 477 970 483 q 895 412 945 448 l 915 385 q 966 312 947 341 q 999 249 985 282 q 1012 182 1012 215 q 972 88 1012 132 q 846 22 933 45 q 821 18 838 20 l 779 124 q 920 222 920 155 q 897 298 920 256 q 839 382 873 340 q 717 330 779 343 q 580 312 654 317 l 580 -68 l 475 -25 l 475 255 l 148 1 l 77 92 l 478 360 z "},"ॠ":{"ha":1095,"x_min":-35,"x_max":1170,"o":"m 477 370 q 352 463 393 437 q 279 488 312 488 q 217 471 253 488 q 121 407 181 453 l 53 498 q 160 566 106 543 q 262 589 213 589 q 353 560 305 589 q 477 465 401 531 l 477 714 l 2 714 l -35 805 l 1095 805 l 1129 714 l 582 714 l 582 433 q 595 432 587 432 q 646 440 619 432 q 690 460 673 448 q 725 531 699 498 q 788 584 751 564 q 867 604 826 604 q 895 588 879 604 q 922 551 910 572 q 934 521 934 531 q 913 484 934 507 q 858 437 893 460 q 781 401 823 414 q 774 367 775 382 q 856 318 774 318 q 913 330 888 318 q 983 374 938 341 l 1048 285 q 961 222 987 243 q 922 183 935 201 q 910 141 910 165 q 930 104 910 113 q 977 94 949 94 q 1036 104 1008 94 q 1103 147 1064 115 l 1170 55 q 1096 4 1136 21 q 1014 -14 1055 -14 q 921 17 963 -14 q 855 91 879 47 q 831 176 831 136 q 842 220 831 201 q 758 276 801 234 q 697 368 715 317 q 646 359 678 361 q 582 357 614 356 l 582 -68 l 477 -25 l 477 269 l 167 3 l 88 87 l 477 370 z "},"ऌ":{"ha":974,"x_min":-35,"x_max":1015,"o":"m 1015 -3 q 932 -75 974 -50 q 839 -100 890 -100 q 747 -73 798 -100 q 661 -4 696 -46 q 625 80 625 38 q 643 144 625 114 q 696 220 660 174 l 726 260 q 771 334 758 302 q 784 395 784 366 q 782 424 784 410 q 776 443 779 438 q 744 463 768 453 q 688 473 719 473 q 478 256 532 473 l 377 292 q 437 448 394 385 q 311 477 372 477 q 217 439 254 477 q 180 323 180 400 q 247 147 180 235 q 431 -9 315 60 l 399 -66 q 221 51 298 -16 q 102 195 144 117 q 59 353 59 273 q 86 466 59 418 q 161 539 113 514 q 270 564 209 564 q 364 546 316 564 q 469 486 412 528 q 532 532 496 514 q 609 556 568 551 q 624 643 624 598 q 621 714 624 672 l 1 714 l -35 805 l 975 805 l 1009 714 l 699 714 q 720 587 719 640 q 717 544 720 563 q 796 489 762 526 q 850 407 831 452 q 869 317 869 361 q 857 260 869 289 q 829 207 846 232 q 784 144 812 182 l 774 130 q 740 75 749 98 q 730 26 730 52 q 732 7 730 16 q 738 -5 734 -3 q 751 -11 741 -8 q 771 -13 760 -13 q 847 8 810 -13 q 938 80 884 28 l 1015 -3 z "},"ॡ":{"ha":1021,"x_min":-35,"x_max":1066,"o":"m 1066 -198 q 986 -261 1023 -243 q 907 -279 950 -279 q 882 -277 897 -279 q 857 -272 866 -275 q 795 -236 825 -262 q 746 -177 765 -211 q 728 -111 728 -144 q 738 -62 728 -93 q 649 4 686 -37 q 613 87 613 45 q 630 143 613 114 q 685 222 648 172 l 713 260 q 759 334 745 302 q 772 395 772 366 q 769 424 772 410 q 764 443 767 438 q 731 463 756 453 q 675 473 707 473 q 556 429 611 473 q 466 256 502 385 l 366 291 q 386 380 372 343 q 425 449 400 417 q 307 477 360 477 q 207 442 245 477 q 168 338 168 406 q 228 160 168 243 q 418 -10 288 76 l 388 -66 q 219 45 298 -23 q 94 193 141 113 q 47 353 47 274 q 74 466 47 418 q 149 539 101 514 q 258 564 197 564 q 352 546 304 564 q 457 486 401 528 q 595 555 516 545 q 608 603 604 580 q 612 660 612 625 q 609 714 612 688 l 2 714 l -35 805 l 1023 805 l 1059 714 l 686 714 q 707 587 707 640 q 705 544 707 563 q 784 489 749 526 q 838 407 819 452 q 857 317 857 361 q 838 254 857 286 q 781 170 820 222 l 762 144 q 727 88 737 111 q 718 40 718 65 q 720 20 718 30 q 726 8 722 11 q 739 3 729 5 q 759 1 748 1 q 836 21 800 1 q 925 94 871 41 l 996 12 q 922 -58 957 -34 q 840 -86 887 -83 q 822 -119 829 -101 q 816 -153 816 -137 q 824 -180 816 -170 q 841 -186 828 -184 q 869 -189 854 -189 q 929 -173 899 -189 q 998 -120 960 -157 l 1066 -198 z "},"ऍ":{"ha":755,"x_min":-35,"x_max":784,"o":"m 208 1084 q 289 995 251 1017 q 368 972 326 972 q 448 1006 411 972 q 518 1093 484 1039 l 594 1020 q 510 918 556 951 q 404 885 463 885 q 313 906 359 885 q 230 967 268 928 q 165 1057 191 1006 l 208 1084 m 2 714 l -35 805 l 749 805 l 784 714 l 661 714 l 661 471 q 651 351 661 395 q 615 280 641 307 q 538 229 589 252 l 460 304 q 520 342 500 326 q 548 379 540 359 q 556 427 556 398 l 556 714 l 218 714 l 218 366 q 225 317 218 332 q 252 288 232 302 q 544 100 345 225 q 603 44 587 73 q 619 -33 619 15 q 598 -112 619 -73 q 523 -212 578 -151 l 427 -135 q 478 -81 460 -102 q 502 -45 495 -60 q 509 -12 509 -29 q 501 20 509 6 q 472 47 493 34 q 205 218 351 127 q 146 265 166 242 q 119 320 127 288 q 111 404 111 352 l 111 714 l 2 714 z "},"ऎ":{"ha":749,"x_min":-35,"x_max":784,"o":"m 784 714 l 661 714 l 661 471 q 651 351 661 395 q 615 280 641 307 q 538 229 589 252 l 460 304 q 520 342 500 326 q 548 379 540 359 q 556 427 556 398 l 556 714 l 218 714 l 218 366 q 225 317 218 332 q 252 288 232 302 q 544 100 345 225 q 603 44 587 73 q 619 -33 619 15 q 598 -112 619 -73 q 523 -212 578 -151 l 427 -135 q 478 -81 460 -102 q 502 -45 495 -60 q 509 -12 509 -29 q 501 20 509 6 q 472 47 493 34 q 205 218 351 127 q 146 265 166 242 q 119 320 127 288 q 111 404 111 352 l 111 714 l 2 714 l -35 805 l 579 805 q 538 875 560 848 q 477 921 515 901 q 427 936 456 931 q 351 946 398 941 q 263 958 296 951 q 203 977 229 964 q 113 1063 139 1007 q 85 1187 87 1120 l 118 1215 q 168 1126 146 1154 q 223 1084 190 1099 q 276 1068 247 1074 q 355 1055 304 1062 q 440 1042 406 1048 q 503 1023 474 1035 q 597 940 564 997 q 632 805 631 883 l 749 805 l 784 714 z "},"ए":{"ha":749,"x_min":-35,"x_max":784,"o":"m 2 714 l -35 805 l 749 805 l 784 714 l 661 714 l 661 471 q 651 351 661 395 q 615 280 641 307 q 538 229 589 252 l 460 304 q 520 342 500 326 q 548 379 540 359 q 556 427 556 398 l 556 714 l 218 714 l 218 366 q 225 317 218 332 q 252 288 232 302 q 544 100 345 225 q 603 44 587 73 q 619 -33 619 15 q 598 -112 619 -73 q 523 -212 578 -151 l 427 -135 q 478 -81 460 -102 q 502 -45 495 -60 q 509 -12 509 -29 q 501 20 509 6 q 472 47 493 34 q 205 218 351 127 q 146 265 166 242 q 119 320 127 288 q 111 404 111 352 l 111 714 l 2 714 z "},"ऐ":{"ha":749,"x_min":-35,"x_max":784,"o":"m 784 714 l 661 714 l 661 471 q 651 351 661 395 q 615 280 641 307 q 538 229 589 252 l 460 304 q 520 342 500 326 q 548 379 540 359 q 556 427 556 398 l 556 714 l 218 714 l 218 366 q 225 317 218 332 q 252 288 232 302 q 544 100 345 225 q 603 44 587 73 q 619 -33 619 15 q 598 -112 619 -73 q 523 -212 578 -151 l 427 -135 q 478 -81 460 -102 q 502 -45 495 -60 q 509 -12 509 -29 q 501 20 509 6 q 472 47 493 34 q 205 218 351 127 q 146 265 166 242 q 119 320 127 288 q 111 404 111 352 l 111 714 l 2 714 l -35 805 l 557 805 q 486 919 526 870 q 411 997 446 968 q 361 1031 376 1025 q 301 1038 340 1038 q 252 1034 277 1038 q 189 1019 227 1029 l 146 1124 q 206 1144 178 1140 q 268 1149 234 1149 q 410 1103 351 1149 q 537 969 475 1052 q 631 805 600 886 l 749 805 l 784 714 z "},"ऑ":{"ha":1338,"x_min":12,"x_max":1373,"o":"m 1373 714 l 1220 714 l 1220 -68 l 1116 -27 l 1116 714 l 871 714 l 871 -68 l 766 -26 l 766 358 q 667 331 727 331 q 556 357 618 331 q 594 296 582 327 q 607 229 607 264 q 575 119 607 166 q 489 46 543 72 q 368 21 434 21 q 12 321 146 21 l 73 350 q 166 215 123 266 q 253 140 210 164 q 345 117 296 117 q 424 136 389 117 q 478 187 458 155 q 498 258 498 219 q 412 416 498 349 q 311 386 369 395 l 251 479 q 376 527 331 502 q 442 584 422 551 q 463 662 463 616 q 459 696 463 680 q 447 720 454 713 q 425 731 441 727 q 387 734 409 734 q 289 701 343 734 q 189 614 235 668 l 115 703 q 215 783 158 753 q 332 812 273 812 q 438 783 389 812 q 515 706 486 753 q 543 608 543 659 q 524 521 543 561 q 469 451 505 481 q 606 418 525 418 q 699 437 655 418 q 766 488 743 456 l 766 714 l 665 714 l 629 805 l 1339 805 l 1373 714 m 798 1084 q 879 995 842 1017 q 958 972 917 972 q 1038 1006 1002 972 q 1109 1093 1075 1039 l 1185 1020 q 1100 918 1147 951 q 995 885 1054 885 q 904 906 949 885 q 820 967 859 928 q 756 1057 782 1006 l 798 1084 z "},"ऒ":{"ha":1338,"x_min":12,"x_max":1373,"o":"m 1373 714 l 1220 714 l 1220 -68 l 1116 -27 l 1116 714 l 871 714 l 871 -68 l 766 -26 l 766 358 q 667 331 727 331 q 556 357 618 331 q 594 296 582 327 q 607 229 607 264 q 575 119 607 166 q 489 46 543 72 q 368 21 434 21 q 12 321 146 21 l 73 350 q 166 215 123 266 q 253 140 210 164 q 345 117 296 117 q 424 136 389 117 q 478 187 458 155 q 498 258 498 219 q 412 416 498 349 q 311 386 369 395 l 251 479 q 376 527 331 502 q 442 584 422 551 q 463 662 463 616 q 459 696 463 680 q 447 720 454 713 q 425 731 441 727 q 387 734 409 734 q 289 701 343 734 q 189 614 235 668 l 115 703 q 215 783 158 753 q 332 812 273 812 q 438 783 389 812 q 515 706 486 753 q 543 608 543 659 q 524 521 543 561 q 469 451 505 481 q 606 418 525 418 q 699 437 655 418 q 766 488 743 456 l 766 714 l 665 714 l 629 805 l 1152 805 q 1110 875 1133 848 q 1050 921 1088 901 q 1000 936 1029 931 q 923 946 970 941 q 835 958 869 951 q 775 977 802 964 q 685 1063 711 1007 q 657 1187 659 1120 l 690 1215 q 740 1126 718 1154 q 795 1084 762 1099 q 848 1068 819 1074 q 928 1055 877 1062 q 1012 1042 978 1048 q 1075 1023 1046 1035 q 1170 940 1137 997 q 1204 805 1203 883 l 1339 805 l 1373 714 z "},"ओ":{"ha":1318,"x_min":12,"x_max":1373,"o":"m 1373 714 l 1220 714 l 1220 -68 l 1116 -27 l 1116 714 l 871 714 l 871 -68 l 766 -26 l 766 358 q 667 331 727 331 q 556 357 618 331 q 594 296 582 327 q 607 229 607 264 q 575 119 607 166 q 489 46 543 72 q 368 21 434 21 q 12 321 146 21 l 73 350 q 166 215 123 266 q 253 140 210 164 q 345 117 296 117 q 424 136 389 117 q 478 187 458 155 q 498 258 498 219 q 412 416 498 349 q 311 386 369 395 l 251 479 q 376 527 331 502 q 442 584 422 551 q 463 662 463 616 q 459 696 463 680 q 447 720 454 713 q 425 731 441 727 q 387 734 409 734 q 289 701 343 734 q 189 614 235 668 l 115 703 q 215 783 158 753 q 332 812 273 812 q 438 783 389 812 q 515 706 486 753 q 543 608 543 659 q 524 521 543 561 q 469 451 505 481 q 606 418 525 418 q 699 437 655 418 q 766 488 743 456 l 766 714 l 665 714 l 629 805 l 1136 805 q 1064 919 1105 870 q 989 997 1024 968 q 940 1031 955 1025 q 880 1038 919 1038 q 830 1034 856 1038 q 768 1019 805 1029 l 724 1124 q 784 1144 756 1140 q 846 1149 812 1149 q 989 1103 929 1149 q 1116 969 1054 1052 q 1210 805 1178 886 l 1339 805 l 1373 714 z "},"औ":{"ha":1318,"x_min":12,"x_max":1373,"o":"m 1373 714 l 1220 714 l 1220 -68 l 1116 -27 l 1116 714 l 871 714 l 871 -68 l 766 -26 l 766 358 q 667 331 727 331 q 556 357 618 331 q 594 296 582 327 q 607 229 607 264 q 575 119 607 166 q 489 46 543 72 q 368 21 434 21 q 12 321 146 21 l 73 350 q 166 215 123 266 q 253 140 210 164 q 345 117 296 117 q 424 136 389 117 q 478 187 458 155 q 498 258 498 219 q 412 416 498 349 q 311 386 369 395 l 251 479 q 376 527 331 502 q 442 584 422 551 q 463 662 463 616 q 459 696 463 680 q 447 720 454 713 q 425 731 441 727 q 387 734 409 734 q 289 701 343 734 q 189 614 235 668 l 115 703 q 215 783 158 753 q 332 812 273 812 q 438 783 389 812 q 515 706 486 753 q 543 608 543 659 q 524 521 543 561 q 469 451 505 481 q 606 418 525 418 q 699 437 655 418 q 766 488 743 456 l 766 714 l 665 714 l 629 805 l 1108 805 q 1011 877 1061 856 q 898 899 962 899 q 844 893 867 899 q 786 876 821 888 l 749 978 q 875 1006 813 1006 q 1015 965 948 1006 q 1145 834 1081 925 q 1061 998 1105 934 q 965 1097 1017 1063 q 906 1105 936 1105 q 785 1088 845 1105 l 746 1182 q 808 1201 773 1194 q 877 1208 843 1208 q 1081 1107 1002 1208 q 1202 805 1160 1007 l 1339 805 l 1373 714 z "},"ॳ":{"ha":977,"x_min":12,"x_max":1013,"o":"m 1013 714 l 871 714 l 871 -68 l 766 -26 l 766 358 q 667 331 727 331 q 556 357 618 331 q 594 296 582 327 q 607 229 607 264 q 575 119 607 166 q 489 46 543 72 q 368 21 434 21 q 12 321 146 21 l 73 350 q 166 215 123 266 q 253 140 210 164 q 345 117 296 117 q 424 136 389 117 q 478 187 458 155 q 498 258 498 219 q 412 416 498 349 q 311 386 369 395 l 251 479 q 376 527 331 502 q 442 584 422 551 q 463 662 463 616 q 459 696 463 680 q 447 720 454 713 q 425 731 441 727 q 387 734 409 734 q 289 701 343 734 q 189 614 235 668 l 115 703 q 215 783 158 753 q 332 812 273 812 q 438 783 389 812 q 515 706 486 753 q 543 608 543 659 q 524 521 543 561 q 469 451 505 481 q 606 418 525 418 q 699 437 655 418 q 766 488 743 456 l 766 714 l 665 714 l 629 805 l 768 805 l 768 970 l 873 927 l 873 805 l 979 805 l 1013 714 z "},"ॴ":{"ha":1318,"x_min":12,"x_max":1373,"o":"m 1373 714 l 1220 714 l 1220 -68 l 1116 -27 l 1116 714 l 871 714 l 871 -68 l 766 -26 l 766 358 q 667 331 727 331 q 556 357 618 331 q 594 296 582 327 q 607 229 607 264 q 575 119 607 166 q 489 46 543 72 q 368 21 434 21 q 12 321 146 21 l 73 350 q 166 215 123 266 q 253 140 210 164 q 345 117 296 117 q 424 136 389 117 q 478 187 458 155 q 498 258 498 219 q 412 416 498 349 q 311 386 369 395 l 251 479 q 376 527 331 502 q 442 584 422 551 q 463 662 463 616 q 459 696 463 680 q 447 720 454 713 q 425 731 441 727 q 387 734 409 734 q 289 701 343 734 q 189 614 235 668 l 115 703 q 215 783 158 753 q 332 812 273 812 q 438 783 389 812 q 515 706 486 753 q 543 608 543 659 q 524 521 543 561 q 469 451 505 481 q 606 418 525 418 q 699 437 655 418 q 766 488 743 456 l 766 714 l 665 714 l 629 805 l 1124 805 l 1124 970 l 1228 927 l 1228 805 l 1339 805 l 1373 714 z "},"ॵ":{"ha":1338,"x_min":12,"x_max":1373,"o":"m 1373 714 l 1220 714 l 1220 -68 l 1116 -27 l 1116 714 l 871 714 l 871 -68 l 766 -26 l 766 358 q 667 331 727 331 q 556 357 618 331 q 594 296 582 327 q 607 229 607 264 q 575 119 607 166 q 489 46 543 72 q 368 21 434 21 q 12 321 146 21 l 73 350 q 166 215 123 266 q 253 140 210 164 q 345 117 296 117 q 424 136 389 117 q 478 187 458 155 q 498 258 498 219 q 412 416 498 349 q 311 386 369 395 l 251 479 q 376 527 331 502 q 442 584 422 551 q 463 662 463 616 q 459 696 463 680 q 447 720 454 713 q 425 731 441 727 q 387 734 409 734 q 289 701 343 734 q 189 614 235 668 l 115 703 q 215 783 158 753 q 332 812 273 812 q 438 783 389 812 q 515 706 486 753 q 543 608 543 659 q 524 521 543 561 q 469 451 505 481 q 606 418 525 418 q 699 437 655 418 q 766 488 743 456 l 766 714 l 665 714 l 629 805 l 1146 805 q 1097 849 1123 836 q 1031 865 1070 863 l 1010 865 q 916 859 974 865 q 803 852 845 852 q 707 874 751 852 q 633 931 663 895 q 591 1011 603 967 l 609 1050 q 695 968 656 992 q 786 944 735 944 q 869 948 809 944 q 999 954 954 954 q 1089 930 1048 954 q 1161 861 1130 907 q 1124 934 1147 906 q 1056 977 1101 962 q 947 996 1022 989 q 859 1009 895 1002 q 795 1029 824 1016 q 724 1080 749 1051 q 689 1144 699 1109 q 675 1227 679 1179 l 707 1265 q 743 1191 728 1217 q 774 1150 758 1165 q 815 1124 791 1135 q 868 1107 839 1114 q 941 1093 897 1101 q 1022 1076 991 1083 q 1081 1057 1053 1069 q 1173 966 1142 1031 q 1205 805 1204 902 l 1339 805 l 1373 714 z "},"ॶ":{"ha":977,"x_min":12,"x_max":1013,"o":"m 874 -61 l 947 -127 q 832 -236 891 -202 q 697 -271 772 -271 q 555 -236 621 -271 q 426 -115 490 -202 l 467 -80 q 567 -163 521 -139 q 665 -188 613 -188 q 768 -158 720 -188 q 869 -67 817 -127 l 766 -26 l 766 358 q 667 331 727 331 q 556 357 618 331 q 594 296 582 327 q 607 229 607 264 q 575 119 607 166 q 489 46 543 72 q 368 21 434 21 q 12 321 146 21 l 73 350 q 166 215 123 266 q 253 140 210 164 q 345 117 296 117 q 424 136 389 117 q 478 187 458 155 q 498 258 498 219 q 412 416 498 349 q 311 386 369 395 l 251 479 q 376 527 331 502 q 442 584 422 551 q 463 662 463 616 q 459 696 463 680 q 447 720 454 713 q 425 731 441 727 q 387 734 409 734 q 289 701 343 734 q 189 614 235 668 l 115 703 q 215 783 158 753 q 332 812 273 812 q 438 783 389 812 q 515 706 486 753 q 543 608 543 659 q 524 521 543 561 q 469 451 505 481 q 606 418 525 418 q 699 437 655 418 q 766 488 743 456 l 766 714 l 665 714 l 629 805 l 979 805 l 1013 714 l 871 714 l 871 -65 l 874 -61 z "},"ॷ":{"ha":977,"x_min":12,"x_max":1013,"o":"m 874 -61 l 947 -127 q 832 -236 891 -202 q 697 -271 772 -271 q 555 -236 621 -271 q 426 -115 490 -202 l 467 -80 q 567 -163 521 -139 q 665 -188 613 -188 q 768 -158 720 -188 q 869 -67 817 -127 l 766 -26 l 766 358 q 667 331 727 331 q 556 357 618 331 q 594 296 582 327 q 607 229 607 264 q 575 119 607 166 q 489 46 543 72 q 368 21 434 21 q 12 321 146 21 l 73 350 q 166 215 123 266 q 253 140 210 164 q 345 117 296 117 q 424 136 389 117 q 478 187 458 155 q 498 258 498 219 q 412 416 498 349 q 311 386 369 395 l 251 479 q 376 527 331 502 q 442 584 422 551 q 463 662 463 616 q 459 696 463 680 q 447 720 454 713 q 425 731 441 727 q 387 734 409 734 q 289 701 343 734 q 189 614 235 668 l 115 703 q 215 783 158 753 q 332 812 273 812 q 438 783 389 812 q 515 706 486 753 q 543 608 543 659 q 524 521 543 561 q 469 451 505 481 q 606 418 525 418 q 699 437 655 418 q 766 488 743 456 l 766 714 l 665 714 l 629 805 l 979 805 l 1013 714 l 871 714 l 871 -65 l 874 -61 z "},"ा":{"ha":342,"x_min":-43,"x_max":376,"o":"m -7 714 l -43 805 l 343 805 l 376 714 l 224 714 l 224 -68 l 119 -27 l 119 714 l -7 714 z "},"ि":{"ha":323,"x_min":-38,"x_max":791,"o":"m 328 1058 q 245 1039 281 1058 q 190 987 209 1020 q 171 911 171 954 q 202 805 172 859 l 323 805 l 357 714 l 231 714 l 231 -69 l 126 -26 l 126 714 l -1 714 l -38 805 l 127 805 q 82 891 98 845 q 65 977 65 938 q 93 1070 65 1028 q 172 1136 121 1112 q 289 1160 223 1160 q 471 1117 377 1160 q 640 1017 564 1073 q 791 894 715 960 l 753 848 q 328 1058 482 1058 z "},"ी":{"ha":340,"x_min":-325,"x_max":375,"o":"m -1 714 l -39 805 l 127 805 q 82 927 115 867 q 14 1029 50 987 q -43 1080 -22 1071 q -100 1090 -68 1090 q -152 1077 -127 1090 q -193 1039 -177 1063 q -208 984 -208 1015 q -198 931 -208 954 q -164 870 -188 909 l -201 846 q -292 922 -260 881 q -325 1018 -325 964 q -304 1090 -325 1059 q -244 1140 -283 1122 q -154 1158 -205 1158 q -14 1123 -85 1158 q 122 1009 57 1088 q 233 805 187 930 l 342 805 l 375 714 l 237 714 l 237 -70 l 133 -26 l 133 714 l -1 714 z "},"ॉ":{"ha":342,"x_min":-214,"x_max":376,"o":"m -7 714 l -43 805 l 343 805 l 376 714 l 224 714 l 224 -68 l 119 -27 l 119 714 l -7 714 m -172 1084 q -91 995 -128 1017 q -12 972 -53 972 q 68 1006 32 972 q 139 1093 105 1039 l 215 1020 q 131 918 177 951 q 25 885 84 885 q -66 906 -20 885 q -150 967 -111 928 q -214 1057 -188 1006 l -172 1084 z "},"ॊ":{"ha":342,"x_min":-339,"x_max":376,"o":"m 376 714 l 224 714 l 224 -68 l 119 -27 l 119 714 l -7 714 l -43 805 l 155 805 q 114 875 136 848 q 54 921 92 901 q 3 936 33 931 q -73 946 -26 941 q -161 958 -127 951 q -221 977 -195 964 q -311 1063 -285 1007 q -339 1187 -337 1120 l -306 1215 q -256 1126 -278 1154 q -201 1084 -234 1099 q -148 1068 -177 1074 q -68 1055 -119 1062 q 16 1042 -18 1048 q 79 1023 50 1035 q 174 940 140 997 q 208 805 207 883 l 343 805 l 376 714 z "},"ो":{"ha":342,"x_min":-278,"x_max":376,"o":"m 376 714 l 224 714 l 224 -68 l 119 -27 l 119 714 l -7 714 l -43 805 l 134 805 q 62 919 102 870 q -13 997 22 968 q -62 1031 -47 1025 q -123 1038 -83 1038 q -172 1034 -146 1038 q -235 1019 -197 1029 l -278 1124 q -218 1144 -246 1140 q -156 1149 -190 1149 q -14 1103 -73 1149 q 114 969 52 1052 q 208 805 176 886 l 343 805 l 376 714 z "},"ौ":{"ha":342,"x_min":-256,"x_max":376,"o":"m 376 714 l 224 714 l 224 -68 l 119 -27 l 119 714 l -7 714 l -43 805 l 106 805 q 9 877 59 856 q -104 899 -41 899 q -159 893 -136 899 q -216 876 -182 888 l -254 978 q -127 1006 -189 1006 q 12 965 -54 1006 q 142 834 79 925 q 58 998 102 934 q -37 1097 14 1063 q -96 1105 -66 1105 q -217 1088 -157 1105 l -256 1182 q -194 1201 -229 1194 q -125 1208 -159 1208 q 79 1107 0 1208 q 199 805 158 1007 l 343 805 l 376 714 z "},"ॎ":{"ha":381,"x_min":153,"x_max":414,"o":"m 381 805 l 414 714 l 258 714 l 258 -66 l 153 -27 l 153 805 l 381 805 z "},"ऻ":{"ha":347,"x_min":-33,"x_max":387,"o":"m 387 714 l 234 714 l 234 -68 l 130 -27 l 130 714 l 3 714 l -33 805 l 135 805 l 135 970 l 239 927 l 239 805 l 353 805 l 387 714 z "},"ॏ":{"ha":380,"x_min":-382,"x_max":420,"o":"m 420 714 l 258 714 l 258 -69 l 153 -26 l 153 714 l 0 714 l -38 805 l 172 805 q 118 852 146 838 q 50 865 90 865 q -44 858 19 865 q -165 848 -121 848 q -301 889 -241 848 q -382 1007 -361 930 l -364 1046 q -297 977 -327 1000 q -242 947 -267 954 q -187 940 -218 940 q -71 948 -146 940 q 25 955 -3 955 q 117 929 76 955 q 189 858 158 903 q 152 933 176 904 q 83 977 129 962 q -26 996 49 989 q -114 1009 -79 1002 q -178 1029 -149 1016 q -249 1080 -224 1051 q -284 1144 -274 1109 q -298 1227 -294 1179 l -267 1265 q -230 1191 -245 1217 q -199 1150 -215 1165 q -158 1124 -182 1135 q -105 1107 -134 1114 q -32 1093 -77 1101 q 49 1076 18 1083 q 108 1057 79 1069 q 200 966 169 1031 q 232 805 231 902 l 386 805 l 420 714 z "},"क":{"ha":1055,"x_min":-35,"x_max":1090,"o":"m 777 572 q 887 538 836 572 q 969 451 939 504 q 999 346 999 399 q 780 44 999 162 l 679 133 q 817 221 765 178 q 893 313 869 264 q 917 420 917 361 q 915 444 917 436 q 910 457 913 452 q 883 476 904 467 q 832 485 863 485 q 699 441 765 485 q 580 317 632 397 l 580 -69 l 475 -26 l 475 168 q 293 111 393 111 q 176 148 233 111 q 83 246 119 186 q 47 369 47 306 q 74 481 47 434 q 151 552 101 528 q 271 577 201 577 q 475 493 380 577 l 475 714 l 3 714 l -35 805 l 1055 805 l 1090 714 l 580 714 l 580 481 q 777 572 671 572 m 246 193 q 330 211 286 193 q 413 258 374 228 q 475 323 452 288 l 475 428 q 394 468 433 456 q 314 481 355 481 q 201 442 241 481 q 161 334 161 404 q 203 204 161 253 q 246 193 213 193 z "},"ख":{"ha":1028,"x_min":-35,"x_max":1063,"o":"m 1063 714 l 909 714 l 909 -69 l 805 -26 l 805 197 q 745 172 779 181 q 673 163 711 163 q 537 196 599 163 q 439 284 475 229 q 403 406 403 340 q 427 498 403 459 q 497 559 452 538 q 605 581 543 581 q 712 564 661 581 q 805 517 764 547 l 805 714 l 328 714 q 351 622 342 674 q 360 523 360 569 q 313 374 360 432 q 170 290 266 316 q 317 108 233 160 q 498 56 401 56 q 577 63 543 56 q 652 86 611 70 l 694 -24 q 623 -43 657 -37 q 541 -49 589 -49 q 227 76 350 -49 q 56 450 103 201 l 128 479 l 221 435 q 238 492 232 456 q 243 571 243 528 q 231 714 243 635 l 1 714 l -35 805 l 1028 805 l 1063 714 m 589 232 q 714 263 656 232 q 805 350 773 294 l 805 457 q 729 484 770 474 q 652 493 688 493 q 552 459 587 493 q 518 361 518 426 q 530 291 518 325 q 562 238 541 258 q 589 232 569 232 z "},"ग":{"ha":817,"x_min":-35,"x_max":852,"o":"m -35 805 l 818 805 l 852 714 l 682 714 l 682 -69 l 577 -26 l 577 714 l 313 714 q 330 567 324 650 q 336 428 336 483 q 327 308 336 363 q 300 219 317 252 q 264 186 283 186 q 196 225 238 186 q 119 314 153 265 q 85 383 85 363 q 115 408 85 399 q 197 418 145 418 q 224 416 210 418 q 230 508 230 459 q 216 714 230 635 l 2 714 l -35 805 z "},"घ":{"ha":824,"x_min":-35,"x_max":859,"o":"m 859 714 l 715 714 l 715 -69 l 611 -26 l 611 174 q 391 88 526 88 q 261 121 324 88 q 158 209 198 153 q 119 330 119 264 q 172 452 119 397 q 91 524 121 482 q 60 619 60 566 q 92 714 60 675 l 4 714 l -35 805 l 825 805 l 859 714 m 611 714 l 294 714 q 206 681 240 714 q 172 595 172 648 q 182 539 172 569 q 214 485 192 510 q 294 520 250 508 q 385 532 338 532 l 439 437 q 267 381 329 427 q 205 267 205 336 q 216 218 207 236 q 236 192 226 201 q 263 181 243 186 q 302 176 282 176 q 483 224 400 176 q 611 367 566 271 l 611 714 z "},"ङ":{"ha":901,"x_min":-35,"x_max":936,"o":"m -35 805 l 901 805 l 936 714 l 585 714 q 602 587 602 654 q 597 512 602 557 l 335 512 q 272 498 294 512 q 249 444 249 484 q 254 399 249 421 q 266 363 258 376 q 276 356 269 358 q 297 355 283 355 q 338 359 315 355 q 398 374 361 364 q 471 392 441 386 q 528 399 501 399 q 571 389 551 399 q 633 343 602 372 q 685 283 665 314 q 705 229 705 252 q 668 104 705 155 q 572 28 631 53 q 445 3 513 3 q 190 100 290 3 q 31 325 91 197 l 84 355 q 209 193 148 248 q 320 122 270 138 q 421 105 370 105 q 515 126 472 105 q 583 183 557 147 q 608 261 608 218 q 602 299 608 288 q 589 302 600 302 q 559 299 574 302 q 517 288 545 296 q 446 271 477 277 q 374 265 415 265 q 252 304 304 265 q 174 397 201 344 q 146 488 146 451 q 315 606 146 606 l 493 606 q 495 649 495 620 q 490 714 495 680 l 2 714 l -35 805 m 790 467 q 823 449 803 467 q 859 409 843 431 q 875 379 875 387 q 858 344 875 364 q 818 308 840 323 q 786 292 796 292 q 753 310 773 292 q 717 350 733 328 q 701 380 701 372 q 718 416 701 396 q 757 452 735 437 q 790 467 779 467 z "},"च":{"ha":835,"x_min":-35,"x_max":870,"o":"m 721 714 l 721 -69 l 616 -26 l 616 168 q 441 94 543 94 q 311 125 375 94 q 206 210 247 157 q 165 325 165 264 q 183 395 165 363 q 234 450 200 427 l 77 450 l 39 545 l 478 545 l 513 450 l 503 450 q 333 401 393 448 q 272 271 272 355 q 277 224 272 245 q 291 197 283 203 q 318 186 299 190 q 359 182 336 182 q 511 230 441 182 q 616 364 581 277 l 616 714 l 4 714 l -35 805 l 835 805 l 870 714 l 721 714 z "},"छ":{"ha":880,"x_min":-35,"x_max":916,"o":"m 720 589 q 806 498 775 562 q 838 354 838 434 q 784 151 838 237 q 639 18 731 64 q 431 -28 547 -28 q 255 11 334 -28 q 132 116 176 50 q 87 256 87 181 q 109 349 87 304 q 170 427 131 393 q 84 500 117 453 q 52 606 52 547 q 94 714 52 673 l 3 714 l -35 805 l 881 805 l 916 714 l 704 714 q 722 627 722 671 q 720 589 722 606 m 357 55 q 492 78 427 55 q 609 142 557 100 q 695 240 662 184 q 532 341 583 281 q 481 467 481 401 q 502 542 481 511 q 554 589 522 573 q 626 608 587 606 q 635 681 635 639 q 633 714 635 694 l 286 714 q 197 677 229 714 q 164 582 164 640 q 216 460 164 505 q 353 508 275 496 l 404 402 q 245 330 298 376 q 193 216 193 283 q 210 129 193 172 q 252 72 227 87 q 297 60 265 64 q 357 55 329 55 m 717 286 q 739 405 739 343 q 730 484 739 448 q 709 534 721 520 q 694 541 705 538 q 675 544 684 544 q 614 520 637 544 q 591 458 591 496 q 627 359 591 406 q 717 286 663 313 z "},"ज":{"ha":907,"x_min":-35,"x_max":942,"o":"m 387 62 q 164 168 257 62 q 20 474 71 275 l 77 492 q 198 264 124 355 q 363 173 271 173 q 450 204 419 173 q 480 286 480 236 q 439 383 480 345 q 319 452 398 421 l 300 521 l 713 521 l 713 714 l 3 714 l -35 805 l 907 805 l 942 714 l 818 714 l 818 -69 l 713 -26 l 713 424 l 473 424 q 564 344 532 392 q 597 244 597 296 q 569 150 597 191 q 494 85 542 108 q 387 62 446 62 z "},"झ":{"ha":959,"x_min":-35,"x_max":1000,"o":"m 1000 714 l 865 714 l 865 -69 l 760 -26 l 760 279 q 708 262 730 268 q 663 257 685 257 q 597 272 628 258 q 610 213 610 239 q 570 93 610 141 q 463 21 530 44 q 313 -3 396 -3 l 306 -3 q 359 -74 331 -54 q 429 -95 388 -95 q 458 -90 445 -95 q 491 -75 471 -85 l 536 -163 q 485 -188 508 -180 q 437 -195 462 -195 q 321 -142 370 -195 q 229 9 273 -90 q 120 53 166 24 q 73 113 73 81 q 92 160 73 138 q 137 197 111 183 q 186 211 164 211 q 217 186 200 211 q 267 98 233 161 q 318 94 290 94 q 415 111 364 94 q 500 162 465 128 q 535 241 534 195 q 532 279 536 262 q 521 296 528 296 q 488 293 504 296 q 448 282 472 290 q 393 268 418 273 q 338 262 369 262 q 217 300 269 262 q 138 388 165 337 q 111 476 111 439 q 134 555 111 528 q 195 593 157 583 q 286 603 233 603 l 421 603 q 423 647 423 617 q 419 714 423 683 l 2 714 l -35 805 l 966 805 l 1000 714 m 623 340 q 760 387 692 341 l 760 714 l 513 714 q 530 572 530 650 q 524 503 530 544 l 299 503 q 231 479 248 503 q 215 422 215 456 q 220 390 215 408 q 233 362 225 372 q 244 355 237 357 q 266 354 252 354 q 296 358 278 354 q 327 365 315 361 q 343 369 338 368 q 410 385 382 380 q 465 391 438 391 q 500 384 481 391 q 551 349 526 374 q 623 340 582 340 z "},"ञ":{"ha":1023,"x_min":-38,"x_max":1059,"o":"m 1059 714 l 922 714 l 922 -69 l 817 -26 l 817 338 q 734 323 777 323 q 673 329 705 323 q 674 308 674 322 q 648 198 674 245 q 571 124 621 151 q 450 98 520 98 q 268 150 351 98 q 127 289 184 201 q 46 483 71 376 l 106 507 q 257 278 180 346 q 427 211 334 211 q 545 248 500 211 q 589 355 589 284 q 583 409 589 382 q 566 454 576 435 q 549 479 557 473 q 490 494 530 494 q 414 483 450 494 q 328 443 378 471 l 271 538 q 342 572 302 560 q 421 585 382 585 q 526 560 477 585 q 610 492 575 535 q 661 395 644 449 q 753 413 712 395 q 817 467 794 431 l 817 714 l 0 714 l -38 805 l 1023 805 l 1059 714 z "},"ट":{"ha":766,"x_min":-35,"x_max":801,"o":"m 241 134 q 295 109 256 120 q 382 98 334 98 q 515 124 458 98 q 631 212 572 151 l 709 123 q 429 -1 606 -1 q 255 43 336 -1 q 125 168 174 87 q 77 357 77 250 q 145 501 77 453 q 351 549 213 549 l 479 549 q 488 597 486 575 q 491 647 491 618 q 488 714 491 675 l 1 714 l -35 805 l 764 805 l 801 714 l 575 714 q 592 636 587 671 q 597 567 597 601 q 576 453 597 512 l 356 453 q 235 418 275 453 q 195 311 195 382 q 209 199 195 247 q 241 134 222 152 z "},"ठ":{"ha":785,"x_min":-35,"x_max":820,"o":"m 576 475 q 685 371 644 437 q 726 237 726 306 q 648 57 726 116 q 433 -1 570 -1 q 251 41 333 -1 q 121 162 169 83 q 73 350 73 242 q 130 492 73 437 q 344 547 186 547 l 473 547 q 484 642 484 576 q 481 714 484 676 l 1 714 l -35 805 l 785 805 l 820 714 l 570 714 q 585 644 579 684 q 591 563 591 604 q 576 475 591 503 m 374 94 q 617 269 617 94 q 594 372 617 324 q 536 452 571 420 l 349 452 q 188 291 188 452 q 202 186 188 229 q 234 125 216 143 q 285 103 248 111 q 374 94 323 94 z "},"ड":{"ha":751,"x_min":-35,"x_max":786,"o":"m -35 805 l 751 805 l 786 714 l 585 714 q 600 595 600 658 q 600 545 601 570 q 597 512 598 519 l 335 512 q 272 498 294 512 q 249 444 249 484 q 253 387 249 412 q 266 350 258 363 q 276 343 269 345 q 297 341 283 341 q 338 346 315 341 q 398 361 361 351 q 471 379 441 372 q 528 385 501 385 q 571 375 551 385 q 630 329 602 359 q 675 265 659 300 q 692 198 692 230 q 659 72 692 123 q 568 -6 625 20 q 445 -31 512 -31 q 213 46 313 -31 q 31 290 113 124 l 86 318 q 216 158 155 213 q 325 87 277 104 q 421 71 372 71 q 514 93 473 71 q 581 154 556 114 q 607 245 606 193 q 606 268 608 254 q 601 288 604 281 q 589 289 595 289 q 559 286 574 289 q 517 275 545 282 q 446 257 477 263 q 374 252 415 252 q 252 292 304 252 q 174 388 201 332 q 146 488 146 444 q 198 581 146 557 q 321 606 250 606 l 493 606 q 495 649 495 620 q 490 714 495 680 l 2 714 l -35 805 z "},"ढ":{"ha":750,"x_min":-35,"x_max":785,"o":"m 504 370 q 595 341 550 370 q 669 269 640 311 q 697 191 697 226 q 671 87 697 134 q 586 11 646 40 q 431 -19 526 -19 q 306 1 370 -19 q 199 54 241 22 q 86 179 127 107 q 45 348 45 251 q 74 463 45 412 q 158 541 102 513 q 291 570 213 570 l 495 570 q 497 623 497 595 q 492 714 497 671 l 2 714 l -35 805 l 749 805 l 785 714 l 579 714 q 600 475 600 621 l 351 475 q 205 432 252 475 q 159 297 159 390 q 173 189 159 243 q 210 113 187 134 q 379 71 258 72 q 336 223 336 149 q 359 303 336 269 q 420 353 382 336 q 504 370 458 370 m 419 73 q 518 100 475 78 q 587 156 562 123 q 611 227 611 189 q 607 258 611 244 q 597 275 602 271 q 565 281 591 281 q 457 230 493 281 q 419 73 421 178 z "},"ण":{"ha":970,"x_min":-35,"x_max":1006,"o":"m 562 428 q 516 254 562 311 q 374 196 469 196 q 233 225 295 196 q 135 308 170 255 q 100 428 100 361 l 100 714 l 1 714 l -35 805 l 971 805 l 1006 714 l 847 714 l 847 -69 l 743 -26 l 743 714 l 562 714 l 562 428 m 205 428 q 212 345 205 380 q 230 298 218 310 q 261 284 238 290 q 304 277 283 277 q 422 312 387 277 q 458 428 458 347 l 458 714 l 205 714 l 205 428 z "},"त":{"ha":789,"x_min":-35,"x_max":825,"o":"m 825 714 l 675 714 l 675 -69 l 571 -26 l 571 452 l 339 452 q 241 418 275 452 q 206 328 206 384 q 249 178 206 264 q 382 -14 292 92 l 338 -63 q 192 97 248 25 q 110 234 137 169 q 83 365 83 299 q 143 503 83 452 q 326 553 203 553 l 571 553 l 571 714 l 1 714 l -35 805 l 789 805 l 825 714 z "},"थ":{"ha":828,"x_min":81,"x_max":863,"o":"m 863 714 l 731 714 l 731 -69 l 627 -26 l 627 231 q 420 157 547 157 q 211 219 299 157 q 84 390 122 280 q 273 511 218 449 q 127 573 172 528 q 81 686 81 618 q 120 790 81 752 q 228 827 159 827 q 338 791 296 827 q 399 702 381 754 q 418 600 418 650 q 367 449 418 519 q 205 317 315 380 q 279 270 235 286 q 372 254 322 254 q 522 298 452 254 q 627 430 592 342 l 627 714 l 485 714 l 448 805 l 828 805 l 863 714 m 183 671 q 211 600 183 631 q 301 549 239 570 q 327 659 327 595 q 322 710 327 690 q 312 733 317 730 q 260 747 290 747 q 202 726 222 747 q 183 671 183 704 z "},"द":{"ha":770,"x_min":-35,"x_max":805,"o":"m 566 92 q 636 3 600 35 q 730 -66 672 -30 l 637 -151 q 572 -57 606 -115 q 509 64 538 0 q 383 41 450 41 q 230 77 303 41 q 112 184 157 114 q 66 351 66 255 q 135 503 66 453 q 343 553 203 553 l 478 553 q 484 599 483 578 q 484 623 484 620 q 480 714 486 654 l 1 714 l -35 805 l 770 805 l 805 714 l 572 714 q 587 632 582 666 q 591 567 591 599 q 576 453 591 515 l 349 453 q 251 438 288 453 q 196 391 214 423 q 179 307 179 359 q 195 205 179 250 q 237 145 211 161 q 319 131 259 131 q 403 140 364 131 q 467 164 442 149 q 444 266 444 230 q 459 306 444 293 q 502 319 475 319 q 597 292 545 319 q 680 231 650 266 q 684 217 684 225 q 651 160 684 195 q 581 101 617 124 l 566 92 z "},"ध":{"ha":814,"x_min":54,"x_max":842,"o":"m 842 714 l 710 714 l 710 -69 l 606 -26 l 606 176 q 504 108 562 130 q 385 85 445 85 q 258 119 317 85 q 164 210 199 153 q 129 334 129 267 q 146 400 129 369 q 193 454 163 431 q 92 533 129 481 q 54 650 54 585 q 79 747 54 708 q 145 806 104 787 q 237 825 186 825 q 316 804 279 825 q 375 748 353 783 q 397 676 397 713 q 342 581 397 612 q 174 549 288 551 q 238 481 195 509 q 403 511 305 513 l 453 411 q 276 381 336 413 q 216 285 216 349 q 224 230 216 254 q 247 193 233 205 q 281 181 255 186 q 328 176 307 176 q 447 200 391 176 q 544 269 503 224 q 606 370 585 313 l 606 714 l 481 714 l 444 805 l 807 805 l 842 714 m 283 755 q 229 740 259 755 q 178 693 199 724 q 156 616 156 662 q 157 600 156 606 q 273 641 235 609 q 311 729 311 673 q 304 750 311 744 q 296 754 300 753 q 283 755 292 755 z "},"न":{"ha":754,"x_min":-35,"x_max":789,"o":"m 269 368 q 253 278 265 317 q 215 239 240 239 q 150 274 188 239 q 84 355 112 309 q 56 433 56 401 q 76 458 56 451 q 149 465 96 465 l 516 465 l 516 714 l 1 714 l -35 805 l 754 805 l 789 714 l 621 714 l 621 -69 l 516 -26 l 516 368 l 269 368 z "},"ऩ":{"ha":754,"x_min":-35,"x_max":789,"o":"m 269 368 q 253 278 265 317 q 215 239 240 239 q 150 274 188 239 q 84 355 112 309 q 56 433 56 401 q 76 458 56 451 q 149 465 96 465 l 516 465 l 516 714 l 1 714 l -35 805 l 754 805 l 789 714 l 621 714 l 621 -69 l 516 -26 l 516 368 l 269 368 m 173 86 q 206 68 186 86 q 242 28 227 50 q 258 -1 258 7 q 241 -37 258 -16 q 201 -73 223 -58 q 169 -88 179 -88 q 136 -71 156 -88 q 100 -31 116 -53 q 85 0 85 -9 q 102 36 85 16 q 140 71 119 56 q 173 86 161 86 z "},"प":{"ha":721,"x_min":-35,"x_max":756,"o":"m 511 241 q 443 209 481 220 q 351 199 404 199 q 250 222 310 199 q 143 300 189 246 q 96 439 96 355 l 96 714 l 1 714 l -35 805 l 721 805 l 756 714 l 615 714 l 615 -69 l 511 -26 l 511 241 m 201 418 q 209 339 201 371 q 230 292 216 308 q 257 280 237 286 q 299 275 277 275 q 427 314 372 275 q 511 408 482 353 l 511 714 l 201 714 l 201 418 z "},"फ":{"ha":1046,"x_min":-35,"x_max":1081,"o":"m 911 462 q 972 381 953 422 q 992 281 992 339 q 958 149 992 216 q 863 35 923 81 l 755 115 q 866 241 829 178 q 903 361 903 304 q 897 406 903 393 q 866 425 891 415 q 814 435 842 435 q 699 400 755 435 q 595 313 643 366 l 595 -69 l 490 -26 l 490 239 q 421 204 458 215 q 348 193 384 193 q 244 213 304 193 q 137 285 184 233 q 90 424 90 336 l 90 714 l 1 714 l -35 805 l 1046 805 l 1081 714 l 595 714 l 595 464 q 685 513 639 497 q 771 528 731 528 q 911 462 840 528 m 490 714 l 201 714 l 201 406 q 207 341 201 367 q 225 294 212 315 q 252 279 231 284 q 298 274 273 274 q 379 294 341 274 q 446 343 418 313 q 490 405 474 373 l 490 714 z "},"ब":{"ha":769,"x_min":-35,"x_max":804,"o":"m 804 714 l 664 714 l 664 -69 l 559 -26 l 559 165 q 475 114 524 132 q 370 95 426 95 q 229 136 300 95 q 113 244 159 177 q 68 387 68 312 q 96 491 68 445 q 177 563 125 536 q 300 589 230 589 q 440 566 370 589 q 559 500 509 543 l 559 714 l 1 714 l -35 805 l 770 805 l 804 714 m 506 254 q 546 311 532 281 q 559 378 559 341 l 559 441 q 452 483 509 469 q 350 496 395 496 q 264 479 300 496 q 319 439 295 463 l 470 294 q 506 254 479 284 m 313 182 q 448 218 385 182 q 429 234 434 229 l 264 399 q 222 450 238 427 q 186 345 186 410 q 200 262 186 302 q 233 204 214 223 q 264 186 246 190 q 313 182 281 182 z "},"भ":{"ha":872,"x_min":54,"x_max":907,"o":"m 907 714 l 767 714 l 767 -69 l 663 -26 l 663 273 l 368 273 q 354 228 365 256 q 330 179 344 200 q 302 159 315 159 q 240 194 281 159 q 168 274 200 230 q 136 341 136 319 q 173 374 136 368 q 269 381 210 381 q 286 511 281 436 q 112 563 170 518 q 54 686 54 608 q 73 757 54 726 q 124 804 92 787 q 192 821 155 821 q 344 736 295 821 q 393 517 393 651 q 380 368 393 445 l 663 368 l 663 714 l 524 714 l 486 805 l 873 805 l 907 714 m 159 680 q 191 605 159 637 q 288 561 223 573 l 288 585 q 281 683 288 648 q 261 733 275 718 q 222 749 248 749 q 176 730 193 749 q 159 680 159 711 z "},"म":{"ha":768,"x_min":-35,"x_max":804,"o":"m 222 148 q 157 183 199 148 q 80 262 114 218 q 47 332 47 306 q 75 357 47 349 q 159 364 102 364 l 159 714 l 2 714 l -35 805 l 768 805 l 804 714 l 677 714 l 677 -69 l 573 -26 l 573 267 l 265 267 q 222 148 265 148 m 573 714 l 264 714 l 264 361 l 573 361 l 573 714 z "},"य":{"ha":774,"x_min":-35,"x_max":810,"o":"m 810 714 l 671 714 l 671 -69 l 567 -26 l 567 221 q 470 163 518 180 q 370 147 422 147 q 238 179 302 147 q 123 278 174 211 q 45 446 72 345 q 157 489 115 468 q 222 535 200 509 q 243 596 243 562 q 226 661 243 632 q 172 714 209 690 l 1 714 l -35 805 l 775 805 l 810 714 m 339 253 q 430 272 385 253 q 511 325 475 291 q 567 401 548 358 l 567 714 l 272 714 q 334 635 311 677 q 357 554 357 592 q 306 445 357 496 q 153 353 254 394 q 233 277 182 301 q 339 253 285 253 z "},"र":{"ha":514,"x_min":-35,"x_max":549,"o":"m 179 269 q 297 151 234 199 q 473 45 361 103 l 405 -54 q 173 160 260 41 q 53 425 86 279 l 129 465 l 202 427 q 308 609 308 497 q 305 656 308 633 q 296 714 302 679 l 1 714 l -35 805 l 517 805 l 549 714 l 380 714 q 404 627 394 673 q 413 545 413 581 q 355 394 413 463 q 179 269 297 326 z "},"ऱ":{"ha":514,"x_min":-35,"x_max":549,"o":"m 179 269 q 297 151 234 199 q 473 45 361 103 l 405 -54 q 173 160 260 41 q 53 425 86 279 l 129 465 l 202 427 q 308 609 308 497 q 305 656 308 633 q 296 714 302 679 l 1 714 l -35 805 l 517 805 l 549 714 l 380 714 q 404 627 394 673 q 413 545 413 581 q 355 394 413 463 q 179 269 297 326 m 108 86 q 141 68 121 86 q 177 28 161 50 q 193 -1 193 7 q 176 -37 193 -16 q 136 -73 158 -58 q 104 -88 114 -88 q 71 -71 91 -88 q 35 -31 51 -53 q 20 0 20 -9 q 37 36 20 16 q 75 71 54 56 q 108 86 96 86 z "},"ल":{"ha":930,"x_min":-35,"x_max":966,"o":"m 966 714 l 830 714 l 830 -69 l 726 -26 l 726 474 q 659 488 688 488 q 547 435 591 488 q 498 241 504 381 l 389 277 q 427 460 386 390 q 337 484 379 484 q 233 444 272 484 q 193 336 193 404 q 260 161 193 251 q 441 -9 326 71 l 412 -66 q 160 123 252 17 q 68 351 68 229 q 96 463 68 416 q 171 535 123 510 q 281 559 219 559 q 376 544 329 559 q 456 500 424 529 q 529 547 489 534 q 606 561 569 561 q 726 523 672 561 l 726 714 l 1 714 l -35 805 l 930 805 l 966 714 z "},"ळ":{"ha":1050,"x_min":-35,"x_max":1085,"o":"m 840 497 q 943 408 903 471 q 983 254 983 345 q 956 119 983 177 q 884 31 929 62 q 785 1 839 1 q 654 42 718 1 q 534 151 590 83 q 441 40 496 79 q 301 1 385 1 q 180 35 234 1 q 95 130 126 69 q 64 266 64 190 q 90 395 64 339 q 163 480 116 450 q 271 511 210 511 q 402 469 343 511 q 510 361 460 428 q 723 513 585 498 q 736 627 736 569 q 731 714 736 674 l 1 714 l -35 805 l 1050 805 l 1085 714 l 814 714 q 833 627 825 676 q 840 530 840 578 q 840 497 840 508 m 747 106 q 839 155 806 106 q 872 294 872 204 q 862 379 872 345 q 836 429 852 412 q 791 443 823 443 q 704 415 743 443 q 629 334 664 387 q 555 196 593 280 q 658 127 607 149 q 747 106 709 106 m 248 77 q 341 101 300 77 q 417 175 382 125 q 486 310 452 226 l 490 318 q 394 385 437 364 q 307 405 350 405 q 208 361 240 405 q 176 238 176 317 q 186 155 176 197 q 211 94 197 114 q 226 81 218 85 q 248 77 235 77 z "},"ऴ":{"ha":1050,"x_min":-35,"x_max":1085,"o":"m 840 497 q 943 408 903 471 q 983 254 983 345 q 956 119 983 177 q 884 31 929 62 q 785 1 839 1 q 654 42 718 1 q 534 151 590 83 q 441 40 496 79 q 301 1 385 1 q 180 35 234 1 q 95 130 126 69 q 64 266 64 190 q 90 395 64 339 q 163 480 116 450 q 271 511 210 511 q 402 469 343 511 q 510 361 460 428 q 723 513 585 498 q 736 627 736 569 q 731 714 736 674 l 1 714 l -35 805 l 1050 805 l 1085 714 l 814 714 q 833 627 825 676 q 840 530 840 578 q 840 497 840 508 m 747 106 q 839 155 806 106 q 872 294 872 204 q 862 379 872 345 q 836 429 852 412 q 791 443 823 443 q 704 415 743 443 q 629 334 664 387 q 555 196 593 280 q 658 127 607 149 q 747 106 709 106 m 248 77 q 341 101 300 77 q 417 175 382 125 q 486 310 452 226 l 490 318 q 394 385 437 364 q 307 405 350 405 q 208 361 240 405 q 176 238 176 317 q 186 155 176 197 q 211 94 197 114 q 226 81 218 85 q 248 77 235 77 m 550 11 q 583 -7 563 11 q 620 -47 604 -25 q 635 -77 635 -68 q 618 -112 635 -92 q 578 -148 600 -133 q 546 -163 556 -163 q 513 -146 533 -163 q 477 -106 493 -128 q 462 -75 462 -84 q 479 -39 462 -60 q 517 -4 496 -19 q 550 11 538 11 z "},"व":{"ha":739,"x_min":-35,"x_max":774,"o":"m 774 714 l 655 714 l 655 -69 l 551 -26 l 551 179 q 465 122 518 141 q 360 102 411 102 q 233 141 299 102 q 121 239 166 179 q 74 362 76 300 q 100 479 72 429 q 182 556 128 529 q 307 583 235 583 q 430 564 373 583 q 551 498 487 545 l 551 714 l 1 714 l -35 805 l 741 805 l 774 714 m 288 190 q 447 230 374 190 q 551 369 520 270 l 551 435 q 356 481 450 481 q 268 461 304 481 q 213 408 231 441 q 195 333 195 375 q 208 256 195 296 q 237 201 220 216 q 254 193 242 195 q 288 190 266 190 z "},"श":{"ha":939,"x_min":69,"x_max":975,"o":"m 296 212 q 409 109 347 151 q 562 27 472 67 l 503 -73 q 364 37 445 -39 q 224 195 283 113 q 205 195 218 195 q 142 205 174 195 q 90 232 111 215 q 69 269 69 249 q 88 318 69 292 q 135 363 107 345 q 184 382 162 382 q 243 310 203 382 q 410 444 356 357 q 121 648 121 475 q 149 740 121 699 q 219 802 176 780 q 310 825 262 825 q 441 789 388 825 q 519 693 494 753 q 545 560 545 633 q 510 401 545 473 q 418 282 475 330 q 296 212 361 234 m 975 714 l 811 714 l 811 -69 l 707 -26 l 707 714 l 597 714 l 560 805 l 940 805 l 975 714 m 245 643 q 296 546 245 587 q 429 484 347 504 q 451 593 451 534 q 443 664 451 627 q 414 727 434 701 q 361 754 393 754 q 301 740 328 754 q 260 700 275 725 q 245 643 245 675 z "},"ष":{"ha":731,"x_min":-35,"x_max":766,"o":"m 766 714 l 621 714 l 621 -69 l 516 -26 l 516 233 q 444 198 485 210 q 349 187 404 187 q 243 211 307 187 q 128 289 178 235 q 78 428 78 343 l 78 714 l 2 714 l -35 805 l 732 805 l 766 714 m 516 714 l 245 714 q 272 682 261 696 l 499 397 q 509 383 505 391 q 513 390 511 387 q 516 396 515 393 l 516 714 m 292 267 q 382 283 340 267 q 458 327 425 299 q 428 362 452 334 l 222 625 q 190 671 207 644 l 190 401 q 195 338 190 368 q 208 288 199 307 q 239 274 211 281 q 292 267 268 267 z "},"स":{"ha":857,"x_min":-35,"x_max":892,"o":"m 892 714 l 754 714 l 754 -69 l 650 -26 l 650 307 q 483 277 573 277 q 377 293 427 277 q 272 341 328 309 q 175 284 233 309 q 274 145 216 204 q 430 23 332 85 l 368 -69 q 163 149 243 17 q 50 432 82 281 l 119 467 l 196 431 q 256 586 256 482 q 237 714 256 643 l 1 714 l -35 805 l 857 805 l 892 714 m 650 714 l 323 714 q 354 623 342 671 q 366 532 366 574 q 324 396 366 456 q 379 381 346 387 q 448 375 412 375 q 650 458 584 375 l 650 714 z "},"ह":{"ha":701,"x_min":-35,"x_max":750,"o":"m 385 376 q 527 347 468 376 q 615 271 585 319 q 645 164 645 222 q 622 81 645 116 q 546 12 599 45 l 458 105 q 538 165 511 136 q 566 229 566 194 q 564 243 566 237 q 554 255 562 249 q 420 291 510 291 q 321 274 367 291 q 247 222 275 256 q 219 136 219 187 q 257 23 219 71 q 375 -57 294 -24 q 589 -115 456 -91 l 564 -187 q 214 -70 330 -156 q 99 157 99 16 q 119 247 99 208 q 176 313 140 286 q 117 402 135 363 q 98 478 98 442 q 141 566 98 536 q 262 595 184 595 l 471 595 q 472 633 472 613 q 467 714 472 678 l 2 714 l -35 805 l 715 805 l 750 714 l 557 714 q 576 563 576 646 q 572 495 576 531 l 300 495 q 203 414 203 495 q 220 340 203 378 q 300 367 257 357 q 385 376 342 376 z "},"क़":{"ha":1055,"x_min":-35,"x_max":1090,"o":"m 777 572 q 887 538 836 572 q 969 451 939 504 q 999 346 999 399 q 780 44 999 162 l 679 133 q 817 221 765 178 q 893 313 869 264 q 917 420 917 361 q 915 444 917 436 q 910 457 913 452 q 883 476 904 467 q 832 485 863 485 q 699 441 765 485 q 580 317 632 397 l 580 -69 l 475 -26 l 475 168 q 293 111 393 111 q 176 148 233 111 q 83 246 119 186 q 47 369 47 306 q 74 481 47 434 q 151 552 101 528 q 271 577 201 577 q 475 493 380 577 l 475 714 l 3 714 l -35 805 l 1055 805 l 1090 714 l 580 714 l 580 481 q 777 572 671 572 m 246 193 q 330 211 286 193 q 413 258 374 228 q 475 323 452 288 l 475 428 q 394 468 433 456 q 314 481 355 481 q 201 442 241 481 q 161 334 161 404 q 203 204 161 253 q 246 193 213 193 m 135 86 q 168 68 148 86 q 204 28 189 50 q 220 -1 220 7 q 203 -37 220 -16 q 163 -73 185 -58 q 131 -88 141 -88 q 98 -71 118 -88 q 62 -31 78 -53 q 47 0 47 -9 q 64 36 47 16 q 102 71 81 56 q 135 86 123 86 z "},"ख़":{"ha":1028,"x_min":-35,"x_max":1063,"o":"m 1063 714 l 909 714 l 909 -69 l 805 -26 l 805 197 q 745 172 779 181 q 673 163 711 163 q 537 196 599 163 q 439 284 475 229 q 403 406 403 340 q 427 498 403 459 q 497 559 452 538 q 605 581 543 581 q 712 564 661 581 q 805 517 764 547 l 805 714 l 328 714 q 351 622 342 674 q 360 523 360 569 q 313 374 360 432 q 170 290 266 316 q 317 108 233 160 q 498 56 401 56 q 577 63 543 56 q 652 86 611 70 l 694 -24 q 623 -43 657 -37 q 541 -49 589 -49 q 227 76 350 -49 q 56 450 103 201 l 128 479 l 221 435 q 238 492 232 456 q 243 571 243 528 q 231 714 243 635 l 1 714 l -35 805 l 1028 805 l 1063 714 m 589 232 q 714 263 656 232 q 805 350 773 294 l 805 457 q 729 484 770 474 q 652 493 688 493 q 552 459 587 493 q 518 361 518 426 q 530 291 518 325 q 562 238 541 258 q 589 232 569 232 m 117 86 q 151 68 130 86 q 187 28 171 50 q 203 -1 203 7 q 185 -37 203 -16 q 145 -73 168 -58 q 113 -88 123 -88 q 80 -71 100 -88 q 45 -31 60 -53 q 29 0 29 -9 q 46 36 29 16 q 84 71 63 56 q 117 86 106 86 z "},"ग़":{"ha":817,"x_min":-35,"x_max":852,"o":"m -35 805 l 818 805 l 852 714 l 682 714 l 682 -69 l 577 -26 l 577 714 l 313 714 q 330 567 324 650 q 336 428 336 483 q 327 308 336 363 q 300 219 317 252 q 264 186 283 186 q 196 225 238 186 q 119 314 153 265 q 85 383 85 363 q 115 408 85 399 q 197 418 145 418 q 224 416 210 418 q 230 508 230 459 q 216 714 230 635 l 2 714 l -35 805 m 246 86 q 279 68 259 86 q 316 28 300 50 q 332 -1 332 7 q 314 -37 332 -16 q 274 -73 296 -58 q 242 -88 252 -88 q 209 -71 229 -88 q 174 -31 189 -53 q 158 0 158 -9 q 175 36 158 16 q 213 71 192 56 q 246 86 235 86 z "},"ज़":{"ha":907,"x_min":-35,"x_max":942,"o":"m 387 62 q 164 168 257 62 q 20 474 71 275 l 77 492 q 198 264 124 355 q 363 173 271 173 q 450 204 419 173 q 480 286 480 236 q 439 383 480 345 q 319 452 398 421 l 300 521 l 713 521 l 713 714 l 3 714 l -35 805 l 907 805 l 942 714 l 818 714 l 818 -69 l 713 -26 l 713 424 l 473 424 q 564 344 532 392 q 597 244 597 296 q 569 150 597 191 q 494 85 542 108 q 387 62 446 62 m 132 86 q 165 68 144 86 q 201 28 185 50 q 217 -1 217 7 q 199 -37 217 -16 q 160 -73 182 -58 q 127 -88 138 -88 q 95 -71 115 -88 q 59 -31 75 -53 q 43 0 43 -9 q 60 36 43 16 q 99 71 77 56 q 132 86 120 86 z "},"ड़":{"ha":751,"x_min":-35,"x_max":786,"o":"m -35 805 l 751 805 l 786 714 l 585 714 q 600 595 600 658 q 600 545 601 570 q 597 512 598 519 l 335 512 q 272 498 294 512 q 249 444 249 484 q 253 387 249 412 q 266 350 258 363 q 276 343 269 345 q 297 341 283 341 q 338 346 315 341 q 398 361 361 351 q 471 379 441 372 q 528 385 501 385 q 571 375 551 385 q 630 329 602 359 q 675 265 659 300 q 692 198 692 230 q 659 72 692 123 q 568 -6 625 20 q 445 -31 512 -31 q 213 46 313 -31 q 31 290 113 124 l 86 318 q 216 158 155 213 q 325 87 277 104 q 421 71 372 71 q 514 93 473 71 q 581 154 556 114 q 607 245 606 193 q 606 268 608 254 q 601 288 604 281 q 589 289 595 289 q 559 286 574 289 q 517 275 545 282 q 446 257 477 263 q 374 252 415 252 q 252 292 304 252 q 174 388 201 332 q 146 488 146 444 q 198 581 146 557 q 321 606 250 606 l 493 606 q 495 649 495 620 q 490 714 495 680 l 2 714 l -35 805 m 387 -71 q 420 -89 400 -71 q 457 -129 441 -107 q 473 -159 473 -151 q 455 -194 473 -174 q 415 -230 437 -215 q 383 -245 393 -245 q 350 -228 370 -245 q 315 -188 330 -210 q 299 -157 299 -166 q 316 -121 299 -142 q 354 -86 333 -101 q 387 -71 376 -71 z "},"ढ़":{"ha":750,"x_min":-35,"x_max":785,"o":"m 504 370 q 595 341 550 370 q 669 269 640 311 q 697 191 697 226 q 671 87 697 134 q 586 11 646 40 q 431 -19 526 -19 q 306 1 370 -19 q 199 54 241 22 q 86 179 127 107 q 45 348 45 251 q 74 463 45 412 q 158 541 102 513 q 291 570 213 570 l 495 570 q 497 623 497 595 q 492 714 497 671 l 2 714 l -35 805 l 749 805 l 785 714 l 579 714 q 600 475 600 621 l 351 475 q 205 432 252 475 q 159 297 159 390 q 173 189 159 243 q 210 113 187 134 q 379 71 258 72 q 336 223 336 149 q 359 303 336 269 q 420 353 382 336 q 504 370 458 370 m 419 73 q 518 100 475 78 q 587 156 562 123 q 611 227 611 189 q 607 258 611 244 q 597 275 602 271 q 565 281 591 281 q 457 230 493 281 q 419 73 421 178 m 401 -87 q 435 -105 414 -87 q 471 -144 455 -123 q 487 -174 487 -166 q 469 -210 487 -189 q 430 -246 452 -231 q 397 -261 408 -261 q 365 -243 385 -261 q 329 -204 345 -226 q 313 -173 313 -182 q 330 -137 313 -157 q 369 -102 347 -117 q 401 -87 390 -87 z "},"फ़":{"ha":1046,"x_min":-35,"x_max":1081,"o":"m 911 462 q 972 381 953 422 q 992 281 992 339 q 958 149 992 216 q 863 35 923 81 l 755 115 q 866 241 829 178 q 903 361 903 304 q 897 406 903 393 q 866 425 891 415 q 814 435 842 435 q 699 400 755 435 q 595 313 643 366 l 595 -69 l 490 -26 l 490 239 q 421 204 458 215 q 348 193 384 193 q 244 213 304 193 q 137 285 184 233 q 90 424 90 336 l 90 714 l 1 714 l -35 805 l 1046 805 l 1081 714 l 595 714 l 595 464 q 685 513 639 497 q 771 528 731 528 q 911 462 840 528 m 490 714 l 201 714 l 201 406 q 207 341 201 367 q 225 294 212 315 q 252 279 231 284 q 298 274 273 274 q 379 294 341 274 q 446 343 418 313 q 490 405 474 373 l 490 714 m 151 168 q 184 150 163 168 q 220 110 204 132 q 236 80 236 88 q 218 44 236 65 q 179 8 201 24 q 146 -7 157 -7 q 114 11 134 -7 q 78 51 94 28 q 62 81 62 73 q 79 117 62 97 q 118 153 96 138 q 151 168 139 168 z "},"य़":{"ha":774,"x_min":-35,"x_max":810,"o":"m 810 714 l 671 714 l 671 -69 l 567 -26 l 567 221 q 470 163 518 180 q 370 147 422 147 q 238 179 302 147 q 123 278 174 211 q 45 446 72 345 q 157 489 115 468 q 222 535 200 509 q 243 596 243 562 q 226 661 243 632 q 172 714 209 690 l 1 714 l -35 805 l 775 805 l 810 714 m 339 253 q 430 272 385 253 q 511 325 475 291 q 567 401 548 358 l 567 714 l 272 714 q 334 635 311 677 q 357 554 357 592 q 306 445 357 496 q 153 353 254 394 q 233 277 182 301 q 339 253 285 253 m 151 161 q 184 143 163 161 q 220 103 204 125 q 236 73 236 81 q 218 38 236 58 q 179 2 201 17 q 146 -14 157 -14 q 114 4 134 -14 q 78 44 94 22 q 62 75 62 66 q 79 111 62 90 q 118 146 96 131 q 151 161 139 161 z "},"ॹ":{"ha":907,"x_min":-35,"x_max":942,"o":"m 387 62 q 164 168 257 62 q 20 474 71 275 l 77 492 q 198 264 124 355 q 363 173 271 173 q 450 204 419 173 q 480 286 480 236 q 439 383 480 345 q 319 452 398 421 l 300 521 l 713 521 l 713 714 l 3 714 l -35 805 l 907 805 l 942 714 l 818 714 l 818 -69 l 713 -26 l 713 424 l 473 424 q 564 344 532 392 q 597 244 597 296 q 569 150 597 191 q 494 85 542 108 q 387 62 446 62 m 263 -125 q 235 -110 254 -125 q 201 -77 216 -96 q 186 -47 186 -58 q 201 -17 186 -35 q 235 17 216 2 q 263 31 254 31 q 293 17 274 31 q 326 -16 312 3 q 340 -47 340 -35 q 325 -77 340 -58 q 291 -110 310 -96 q 263 -125 272 -125 m 504 -125 q 476 -110 495 -125 q 442 -77 457 -96 q 427 -47 427 -58 q 441 -17 427 -35 q 475 17 456 2 q 504 31 494 31 q 534 17 515 31 q 567 -16 553 3 q 581 -47 581 -35 q 566 -77 581 -58 q 532 -110 551 -96 q 504 -125 513 -125 m 385 -254 q 357 -239 376 -254 q 322 -206 338 -224 q 307 -176 307 -187 q 322 -145 307 -164 q 356 -112 337 -127 q 385 -98 375 -98 q 414 -112 395 -98 q 448 -145 433 -126 q 462 -176 462 -163 q 447 -206 462 -187 q 412 -239 431 -224 q 385 -254 393 -254 z "},"ॺ":{"ha":774,"x_min":-35,"x_max":810,"o":"m 810 714 l 671 714 l 671 -69 l 567 -26 l 567 221 q 470 163 518 180 q 370 147 422 147 q 238 179 302 147 q 123 278 174 211 q 45 446 72 345 q 157 489 115 468 q 222 535 200 509 q 243 596 243 562 q 226 661 243 632 q 172 714 209 690 l 1 714 l -35 805 l 775 805 l 810 714 m 567 714 l 275 714 q 301 686 287 703 q 319 665 316 669 l 559 385 l 567 401 l 567 714 m 339 253 q 430 272 385 253 q 510 323 475 290 q 489 349 500 334 l 351 516 q 153 353 322 421 q 233 277 182 301 q 339 253 285 253 z "},"ॻ":{"ha":814,"x_min":-35,"x_max":850,"o":"m 850 714 l 682 714 l 682 -64 l 68 -64 l 39 12 l 578 12 l 578 714 l 314 714 q 331 567 325 650 q 337 428 337 483 q 327 308 337 363 q 301 219 317 252 q 264 186 284 186 q 196 225 239 186 q 120 314 154 265 q 86 383 86 363 q 116 408 86 399 q 197 418 146 418 q 224 416 211 418 q 231 508 231 459 q 216 714 231 635 l 3 714 l -35 805 l 815 805 l 850 714 z "},"ॼ":{"ha":905,"x_min":-35,"x_max":940,"o":"m 940 714 l 817 714 l 817 -84 l 66 -84 l 38 -9 l 712 -9 l 712 424 l 472 424 q 563 344 530 392 q 595 244 595 296 q 568 150 595 191 q 493 85 541 108 q 386 62 445 62 q 163 168 256 62 q 19 473 70 275 l 75 493 q 196 264 123 355 q 361 173 269 173 q 448 204 418 173 q 479 286 479 236 q 438 382 479 343 q 321 452 397 421 l 298 521 l 712 521 l 712 714 l 1 714 l -35 805 l 905 805 l 940 714 z "},"ॾ":{"ha":739,"x_min":-35,"x_max":774,"o":"m -35 805 l 739 805 l 774 714 l 585 714 q 602 587 602 654 q 598 512 602 564 l 336 512 q 272 498 295 512 q 250 444 250 484 q 267 377 250 406 q 277 370 270 372 q 298 368 283 368 q 339 373 316 368 q 399 388 362 378 q 472 406 441 399 q 529 412 502 412 q 572 402 551 412 q 630 358 602 387 q 676 299 659 330 q 693 245 693 268 q 659 124 693 174 q 569 51 625 75 q 446 26 513 26 q 213 104 313 26 q 30 351 113 182 l 84 379 q 213 218 152 273 q 323 146 274 163 q 422 129 372 129 q 515 149 473 129 q 583 203 558 169 q 608 277 608 237 q 602 312 608 301 q 590 316 600 316 q 558 313 574 316 q 515 302 543 309 q 445 285 476 291 q 374 279 413 279 q 253 315 304 279 q 174 401 201 351 q 147 488 147 451 q 199 581 147 557 q 322 606 251 606 l 494 606 q 496 649 496 620 q 491 714 496 680 l 2 714 l -35 805 m 690 -138 l 54 -138 l 24 -63 l 662 -63 l 690 -138 z "},"ॿ":{"ha":772,"x_min":-35,"x_max":804,"o":"m 804 714 l 664 714 l 664 -80 l 101 -80 l 72 -5 l 559 -5 l 559 165 q 475 114 524 132 q 370 95 426 95 q 229 136 300 95 q 113 244 159 177 q 68 387 68 312 q 96 491 68 445 q 177 563 125 536 q 300 589 230 589 q 440 566 370 589 q 559 500 509 543 l 559 714 l 1 714 l -35 805 l 770 805 l 804 714 m 506 254 q 546 311 532 281 q 559 378 559 341 l 559 441 q 452 483 509 469 q 350 496 395 496 q 264 479 300 496 q 319 439 295 463 l 470 294 q 506 254 479 284 m 313 182 q 448 218 385 182 q 429 234 434 229 l 264 399 q 222 450 238 427 q 186 345 186 410 q 200 262 186 302 q 233 204 214 223 q 264 186 246 190 q 313 182 281 182 z "},"⁄":{"ha":205,"x_min":-186,"x_max":390,"o":"m -186 165 l 299 811 l 390 776 l -99 133 l -186 165 z "},"½":{"ha":1018,"x_min":39,"x_max":984,"o":"m 142 505 l 142 867 l 39 867 l 46 908 l 253 949 l 253 505 l 348 490 l 334 441 l 43 441 l 56 488 l 142 505 m 205 165 l 690 811 l 781 776 l 292 133 l 205 165 m 728 65 q 963 85 823 81 l 984 0 l 625 0 l 608 45 q 696 143 626 64 q 782 242 766 222 q 829 310 815 286 q 842 359 842 335 q 823 406 842 388 q 764 425 804 425 q 712 421 738 425 q 650 408 687 417 l 627 462 q 707 495 665 484 q 789 506 749 506 q 908 470 865 506 q 951 373 951 435 q 925 286 951 332 q 853 189 900 241 q 728 65 806 138 z "},"¼":{"ha":1020,"x_min":39,"x_max":940,"o":"m 142 505 l 142 867 l 39 867 l 46 908 l 253 949 l 253 505 l 348 490 l 334 441 l 43 441 l 56 488 l 142 505 m 205 165 l 690 811 l 781 776 l 292 133 l 205 165 m 538 174 l 755 515 l 862 497 l 650 199 l 772 202 l 772 281 l 877 305 l 877 208 l 940 210 l 929 138 l 878 138 l 878 -18 l 776 -41 l 776 138 l 559 138 l 538 174 z "},"¾":{"ha":1066,"x_min":31,"x_max":926,"o":"m 45 453 q 163 487 121 471 q 230 528 205 502 q 254 597 254 554 q 214 665 254 643 q 116 688 174 688 l 127 732 l 284 880 q 163 866 226 871 q 54 861 101 861 l 31 940 l 358 940 l 376 895 l 237 728 q 327 688 292 722 q 363 600 363 654 q 316 488 363 531 q 199 426 269 445 q 59 408 130 408 l 45 453 m 191 165 l 676 811 l 767 776 l 278 133 l 191 165 m 525 174 l 742 515 l 848 497 l 637 199 l 759 202 l 759 281 l 863 305 l 863 208 l 926 210 l 916 138 l 864 138 l 864 -18 l 762 -41 l 762 138 l 546 138 l 525 174 z "},"¹":{"ha":370,"x_min":39,"x_max":348,"o":"m 142 682 l 142 1044 l 39 1044 l 46 1085 l 253 1126 l 253 682 l 348 667 l 334 618 l 43 618 l 56 665 l 142 682 z "},"²":{"ha":444,"x_min":34,"x_max":410,"o":"m 155 684 q 389 704 250 700 l 410 618 l 52 618 l 34 664 q 122 762 52 683 q 208 861 193 840 q 255 929 241 904 q 269 978 269 954 q 249 1025 269 1006 q 191 1043 230 1043 q 139 1039 164 1043 q 77 1026 113 1036 l 53 1080 q 133 1113 91 1102 q 215 1124 175 1124 q 334 1089 292 1124 q 377 991 377 1053 q 352 905 377 950 q 279 808 326 859 q 155 684 232 756 z "},"³":{"ha":416,"x_min":31,"x_max":376,"o":"m 45 630 q 163 664 121 648 q 230 705 205 679 q 254 774 254 731 q 214 842 254 820 q 116 865 174 865 l 127 909 l 284 1057 q 163 1043 226 1048 q 54 1038 101 1038 l 31 1117 l 358 1117 l 376 1072 l 237 905 q 327 865 292 899 q 363 777 363 831 q 316 665 363 708 q 199 603 269 622 q 59 585 130 585 l 45 630 z "},"०":{"ha":707,"x_min":63,"x_max":635,"o":"m 331 675 q 416 666 378 675 q 492 634 454 656 q 635 387 635 547 q 599 239 635 304 q 498 138 563 174 q 352 101 433 101 q 215 138 282 101 q 105 240 148 176 q 63 380 63 304 q 93 508 63 439 q 183 626 123 577 q 331 675 243 675 m 465 606 q 425 613 451 613 q 295 571 352 613 q 205 464 237 529 q 174 333 174 399 q 183 265 174 296 q 207 212 193 233 q 233 183 221 191 q 276 176 247 176 q 425 220 369 176 q 503 329 481 265 q 526 453 526 392 q 509 550 526 507 q 465 606 492 592 z "},"१":{"ha":574,"x_min":81,"x_max":492,"o":"m 245 235 q 367 159 326 189 q 425 104 408 129 q 441 51 441 80 q 430 0 441 22 q 383 -62 418 -22 l 271 -6 q 320 47 307 29 q 332 84 332 66 q 312 139 332 114 q 239 195 291 164 q 85 273 186 225 q 313 482 243 386 q 176 542 226 512 q 104 609 126 572 q 81 696 81 646 q 103 773 81 739 q 165 827 124 808 q 264 847 207 847 q 376 819 323 847 q 460 745 429 791 q 492 647 492 699 q 436 447 492 547 q 245 235 380 348 m 199 675 q 230 592 199 631 q 338 520 262 553 q 383 692 383 601 q 376 736 383 715 q 363 761 370 757 q 338 769 356 766 q 300 773 320 773 q 245 759 269 773 q 211 723 222 745 q 199 675 199 701 z "},"२":{"ha":696,"x_min":90,"x_max":616,"o":"m 616 -15 q 529 -30 572 -30 q 439 -6 482 -30 q 354 85 397 18 q 275 273 311 152 q 193 292 230 278 q 135 327 156 307 q 113 370 113 347 q 133 419 113 395 q 181 458 153 443 q 230 473 210 473 q 273 448 254 473 q 311 361 291 422 q 409 405 365 368 q 479 498 454 441 q 505 617 505 554 q 498 703 505 669 q 481 749 491 737 q 452 762 475 756 q 397 768 429 768 q 283 744 346 768 q 155 669 221 720 l 90 770 q 181 821 138 804 q 261 842 225 838 q 340 847 296 847 q 467 810 404 847 q 570 709 530 773 q 611 566 611 644 q 578 428 611 494 q 483 319 546 362 q 333 272 420 277 q 387 157 359 197 q 443 103 414 117 q 504 90 471 90 q 545 92 527 90 q 585 102 562 95 l 616 -15 z "},"३":{"ha":678,"x_min":77,"x_max":608,"o":"m 608 325 q 574 225 608 269 q 479 159 541 182 q 337 135 418 135 q 294 138 313 135 q 351 71 318 93 q 426 50 383 50 q 459 52 444 50 q 498 60 475 54 l 528 -50 q 480 -66 498 -62 q 441 -70 462 -70 q 355 -50 391 -70 q 290 18 320 -30 q 228 152 260 65 q 152 183 186 164 q 98 223 118 201 q 77 263 77 244 q 96 315 77 292 q 141 351 115 338 q 187 363 167 363 q 225 335 208 363 q 260 237 243 306 q 332 229 299 229 q 421 247 383 229 q 479 295 459 265 q 499 361 499 325 q 480 426 499 393 q 423 486 461 458 q 259 464 353 462 l 210 572 q 410 610 347 578 q 472 688 472 642 q 455 755 472 734 q 433 764 450 760 q 393 768 415 768 q 270 742 329 768 q 151 669 210 716 l 87 771 q 318 847 186 847 q 435 817 382 847 q 520 739 489 787 q 551 639 551 691 q 477 510 551 556 q 575 426 542 469 q 608 325 608 383 z "},"४":{"ha":764,"x_min":73,"x_max":701,"o":"m 480 307 q 575 212 549 252 q 602 130 602 172 q 579 49 602 84 q 516 -5 556 14 q 425 -24 475 -24 q 333 -9 380 -24 q 253 34 287 5 q 202 138 202 76 q 213 189 202 164 q 254 247 224 214 q 336 328 283 280 q 184 441 241 390 q 100 540 127 493 q 73 635 73 587 q 227 829 73 760 l 317 758 q 223 689 250 723 q 195 606 195 656 q 213 535 195 568 q 272 464 230 502 q 389 372 313 425 q 514 484 471 442 q 576 559 557 526 q 596 624 596 592 q 553 728 596 676 q 433 824 511 781 l 487 842 q 596 784 547 823 q 673 694 645 745 q 701 593 701 644 q 681 515 701 553 q 613 427 661 476 q 480 307 566 378 m 365 24 q 463 56 427 24 q 498 151 498 87 q 484 209 498 184 q 430 264 470 233 q 328 159 355 201 q 300 77 300 117 q 304 50 300 60 q 317 33 308 40 q 334 26 321 28 q 365 24 347 24 z "},"५":{"ha":729,"x_min":68,"x_max":651,"o":"m 555 333 q 629 214 608 264 q 651 119 651 165 q 626 32 651 71 q 537 -53 601 -6 l 444 29 q 535 105 510 73 q 559 174 559 137 q 547 237 559 203 q 513 302 534 270 q 431 266 474 279 q 349 254 387 254 q 216 290 282 254 q 109 387 151 327 q 68 516 68 448 q 107 675 68 599 q 241 845 146 752 l 351 790 q 238 666 277 722 q 187 562 199 609 q 174 458 174 514 q 182 398 174 427 q 203 356 191 370 q 234 341 211 348 q 274 334 258 334 q 366 354 321 334 q 441 411 410 374 q 416 504 416 461 q 431 546 416 530 q 479 562 446 562 q 545 550 509 562 q 608 518 582 539 q 633 469 633 497 q 617 414 633 446 q 574 353 600 381 q 555 333 565 342 z "},"६":{"ha":669,"x_min":72,"x_max":603,"o":"m 504 -77 q 414 94 460 -7 q 351 86 380 86 q 217 119 281 86 q 112 211 153 152 q 72 343 72 269 q 104 461 72 412 q 197 536 137 510 q 126 603 152 563 q 100 691 100 642 q 125 773 100 739 q 200 827 151 808 q 314 846 248 846 q 481 812 401 846 l 504 723 q 425 748 466 740 q 348 755 384 755 q 243 728 278 755 q 209 658 209 701 q 224 603 209 629 q 264 555 239 576 q 335 560 300 560 q 431 552 380 560 l 460 452 q 352 463 399 463 q 219 425 262 463 q 176 308 176 387 q 182 238 176 269 q 199 198 189 208 q 232 182 207 189 q 283 176 258 176 q 330 182 307 176 q 371 200 353 189 q 353 279 353 254 q 369 318 353 304 q 413 333 386 333 q 493 317 453 333 q 559 275 533 300 q 585 224 585 250 q 567 183 585 207 q 519 139 549 159 q 475 114 501 126 q 525 55 495 84 q 603 -12 554 26 l 504 -77 z "},"७":{"ha":806,"x_min":86,"x_max":731,"o":"m 500 752 q 619 710 566 752 q 701 592 671 669 q 731 417 731 516 q 684 178 731 274 q 562 37 637 82 q 399 -9 486 -9 q 289 9 340 -9 q 191 70 237 27 q 115 197 144 113 q 86 393 86 281 q 192 848 86 597 l 309 827 q 220 571 247 684 q 194 341 194 458 q 204 225 194 279 q 229 135 214 171 q 262 88 245 100 q 360 65 296 65 q 526 131 462 65 q 610 328 590 196 q 412 439 485 368 q 340 600 340 511 q 363 685 340 651 q 423 736 387 720 q 500 752 460 752 m 454 584 q 474 513 454 549 q 530 445 494 476 q 616 393 567 413 q 618 454 618 422 q 612 555 618 504 q 596 642 606 606 q 576 683 587 677 q 553 688 568 688 q 506 675 528 688 q 469 639 483 663 q 454 584 454 615 z "},"८":{"ha":671,"x_min":64,"x_max":623,"o":"m 64 218 q 100 359 64 277 q 214 557 136 441 q 421 837 292 673 l 525 800 q 254 414 349 576 q 160 170 160 251 q 164 136 160 154 q 174 108 168 119 q 221 83 184 92 q 312 75 258 75 q 570 153 437 75 l 623 39 q 497 -13 559 5 q 371 -31 436 -31 q 216 3 287 -31 q 105 93 146 36 q 64 218 64 150 z "},"९":{"ha":616,"x_min":39,"x_max":545,"o":"m 343 386 q 452 283 409 328 q 519 194 494 239 q 545 105 545 149 q 522 33 545 66 q 439 -41 499 -1 l 350 39 q 421 97 403 73 q 440 150 440 121 q 419 210 440 178 q 369 270 399 241 q 287 344 339 298 q 219 404 229 395 q 111 517 150 469 q 55 602 71 565 q 39 676 39 640 q 63 763 39 722 q 132 829 86 804 q 241 854 177 854 q 372 821 313 854 q 465 737 431 788 q 499 633 499 686 q 458 492 499 556 q 343 386 417 427 m 153 655 q 179 561 153 609 q 250 467 205 513 q 359 558 321 499 q 398 691 398 616 q 381 760 398 745 q 343 778 372 770 q 290 785 315 785 q 215 767 245 785 q 169 720 184 749 q 153 655 153 690 z "},"*":{"ha":831,"x_min":136,"x_max":697,"o":"m 402 688 q 416 769 416 728 q 378 877 416 834 l 450 973 q 471 959 457 973 q 495 917 484 944 q 505 854 505 890 q 496 788 505 821 q 471 734 486 755 q 450 715 467 726 l 410 684 l 402 688 m 391 684 q 330 718 363 705 q 263 731 297 731 q 205 720 232 731 l 136 817 q 146 828 137 822 q 172 838 156 833 q 208 842 189 842 q 265 833 236 842 q 325 804 297 823 q 369 763 353 785 q 381 737 376 755 l 397 690 l 391 684 m 410 680 q 509 698 461 678 q 582 761 556 718 l 695 723 q 687 699 697 716 q 655 663 677 682 q 599 633 633 644 q 524 621 559 621 q 475 629 497 621 q 450 642 459 635 l 408 672 l 410 680 m 392 672 q 326 606 353 646 q 300 519 300 566 q 300 506 300 510 l 186 471 q 181 482 183 473 q 178 505 178 492 q 212 599 178 553 q 258 647 232 627 q 310 675 285 668 q 338 680 319 680 l 389 680 l 392 672 m 404 670 q 450 582 417 621 q 533 532 484 543 l 532 412 q 522 410 530 410 q 472 425 501 410 q 417 475 443 441 q 386 534 397 503 q 374 592 374 566 q 379 621 374 602 l 395 669 l 404 670 z "},"\\":{"ha":598,"x_min":46,"x_max":541,"o":"m 140 1015 l 541 18 l 446 -18 l 46 978 l 140 1015 z "},"·":{"ha":365,"x_min":111,"x_max":278,"o":"m 252 281 q 212 273 243 273 q 156 280 183 273 q 120 297 129 286 q 111 338 111 308 q 119 395 111 366 q 136 431 126 425 q 176 439 147 439 q 233 432 204 439 q 270 414 262 425 q 278 377 278 404 q 270 318 278 349 q 252 281 262 288 z "},"•":{"ha":447,"x_min":66,"x_max":381,"o":"m 224 192 q 164 222 202 192 q 96 290 125 252 q 66 349 66 328 q 96 409 66 371 q 164 477 125 447 q 224 507 202 507 q 283 477 245 507 q 351 409 321 447 q 381 349 381 371 q 351 290 381 328 q 283 222 321 252 q 224 192 245 192 z "},":":{"ha":387,"x_min":122,"x_max":289,"o":"m 263 1 q 222 -7 254 -7 q 167 0 194 -7 q 131 17 140 6 q 122 58 122 28 q 130 115 122 86 q 147 151 137 144 q 187 159 158 159 q 244 152 215 159 q 281 134 273 144 q 289 97 289 124 q 281 38 289 68 q 263 1 273 8 m 263 405 q 222 397 254 397 q 167 404 194 397 q 131 421 140 410 q 122 462 122 432 q 130 519 122 490 q 147 555 137 549 q 187 564 158 564 q 244 556 215 564 q 281 538 273 549 q 289 501 289 528 q 281 443 289 473 q 263 405 273 412 z "},",":{"ha":376,"x_min":81,"x_max":274,"o":"m 110 40 q 104 75 104 52 q 109 122 104 104 q 127 149 114 140 q 169 160 142 160 q 225 153 197 160 q 262 136 254 146 q 271 103 268 126 q 274 60 274 80 q 255 -27 273 20 q 205 -120 237 -75 q 130 -200 172 -165 l 81 -189 l 176 8 q 134 22 153 13 q 110 40 115 31 z "},"…":{"ha":979,"x_min":102,"x_max":877,"o":"m 243 1 q 202 -7 233 -7 q 146 0 174 -7 q 111 17 119 6 q 102 58 102 28 q 109 115 102 86 q 127 151 117 144 q 167 159 138 159 q 224 152 195 159 q 260 134 253 144 q 269 97 269 124 q 261 38 269 68 q 243 1 253 8 m 547 1 q 506 -7 537 -7 q 450 0 477 -7 q 414 17 423 6 q 406 58 406 28 q 413 115 406 86 q 431 151 420 144 q 471 159 441 159 q 528 152 498 159 q 564 134 557 144 q 572 97 572 124 q 565 38 572 68 q 547 1 557 8 m 851 1 q 810 -7 842 -7 q 755 0 782 -7 q 719 17 728 6 q 710 58 710 28 q 718 115 710 86 q 735 151 725 144 q 775 159 746 159 q 832 152 803 159 q 869 134 861 144 q 877 97 877 124 q 869 38 877 68 q 851 1 861 8 z "},"!":{"ha":471,"x_min":152,"x_max":319,"o":"m 182 306 q 176 551 176 401 l 177 734 q 178 939 178 867 l 306 939 l 285 269 l 182 306 m 177 152 q 216 159 187 159 q 274 152 245 159 q 311 135 302 145 q 319 98 319 125 q 312 39 319 68 q 294 1 305 10 q 254 -7 283 -7 q 197 0 226 -7 q 161 18 169 7 q 154 37 156 24 q 153 66 152 50 q 161 119 154 94 q 177 152 168 144 z "},"¡":{"ha":340,"x_min":22,"x_max":189,"o":"m 164 583 q 125 576 154 576 q 67 583 96 576 q 31 600 39 590 q 22 637 22 610 q 29 696 22 667 q 47 734 36 725 q 87 742 58 742 q 144 735 116 742 q 180 718 172 728 q 187 698 185 711 q 188 669 189 685 q 180 616 187 642 q 164 583 174 591 m 159 429 q 165 184 165 334 l 164 1 q 163 -203 163 -132 l 35 -203 l 56 466 l 159 429 z "},"#":{"ha":964,"x_min":54,"x_max":908,"o":"m 895 528 q 738 521 790 523 l 648 296 l 783 296 l 770 216 l 613 211 l 519 -24 l 431 1 l 514 208 l 301 204 l 210 -24 l 121 1 l 202 203 q 54 201 103 201 l 72 296 l 240 296 l 327 513 l 277 513 l 178 513 l 197 609 l 366 609 l 444 804 l 529 771 l 464 609 l 675 609 l 753 804 l 838 771 l 773 609 l 908 609 l 895 528 m 638 518 q 426 514 531 515 l 338 296 l 549 296 l 638 518 z "},".":{"ha":370,"x_min":102,"x_max":269,"o":"m 243 1 q 202 -7 233 -7 q 146 0 174 -7 q 111 17 119 6 q 102 58 102 28 q 109 115 102 86 q 127 151 117 144 q 167 159 138 159 q 224 152 195 159 q 260 134 253 144 q 269 97 269 124 q 261 38 269 68 q 243 1 253 8 z "},"?":{"ha":692,"x_min":119,"x_max":574,"o":"m 205 439 q 207 453 205 449 q 219 462 210 457 q 385 579 334 520 q 435 701 435 638 q 405 804 435 758 q 333 877 374 850 q 263 905 291 904 l 239 808 q 199 798 219 798 q 162 811 181 798 q 131 843 144 823 q 119 882 119 863 q 164 944 119 926 q 266 962 210 962 q 410 930 338 962 q 528 843 481 899 q 574 718 574 787 q 517 560 574 623 q 337 449 460 496 q 317 371 332 427 q 290 274 302 315 l 211 304 l 205 439 m 327 1 q 286 -7 317 -7 q 231 0 258 -7 q 195 17 203 6 q 186 58 186 28 q 193 115 186 86 q 211 151 201 144 q 251 159 222 159 q 308 152 279 159 q 345 134 337 144 q 353 97 353 124 q 345 38 353 68 q 327 1 337 8 z "},"¿":{"ha":642,"x_min":68,"x_max":523,"o":"m 315 741 q 355 748 324 748 q 411 742 384 748 q 447 724 438 735 q 456 684 456 713 q 448 626 456 655 q 431 590 441 597 q 391 582 420 582 q 334 589 363 582 q 297 607 304 597 q 289 644 289 617 q 297 703 289 673 q 315 741 304 733 m 436 302 q 434 288 437 292 q 422 279 432 284 q 257 162 307 221 q 206 40 206 103 q 237 -63 206 -17 q 309 -136 267 -109 q 378 -164 351 -163 l 402 -67 q 443 -57 422 -57 q 479 -70 460 -57 q 510 -102 498 -82 q 523 -141 523 -121 q 477 -202 523 -184 q 376 -220 431 -220 q 232 -189 303 -220 q 114 -101 160 -157 q 68 24 68 -45 q 125 181 68 118 q 304 292 182 245 q 325 371 309 315 q 352 467 340 427 l 431 437 l 436 302 z "},"\"":{"ha":463,"x_min":77,"x_max":383,"o":"m 77 950 l 191 950 q 184 776 189 867 q 172 611 179 684 l 77 650 l 77 950 m 269 950 l 383 950 q 377 776 382 867 q 364 611 372 684 l 269 650 l 269 950 z "},"'":{"ha":270,"x_min":77,"x_max":191,"o":"m 77 950 l 191 950 q 184 776 189 867 q 172 611 179 684 l 77 650 l 77 950 z "},";":{"ha":389,"x_min":104,"x_max":296,"o":"m 132 40 q 126 75 126 52 q 131 122 126 104 q 149 149 136 140 q 191 160 164 160 q 248 153 219 160 q 284 136 276 146 q 293 103 290 126 q 296 60 296 80 q 278 -27 296 20 q 227 -120 260 -75 q 152 -200 195 -165 l 104 -189 l 198 8 q 157 22 176 13 q 132 40 138 31 m 263 405 q 222 397 254 397 q 167 404 194 397 q 131 421 140 410 q 122 462 122 432 q 130 519 122 490 q 147 555 137 549 q 187 564 158 564 q 244 556 215 564 q 281 538 273 549 q 289 501 289 528 q 281 443 289 473 q 263 405 273 412 z "},"/":{"ha":580,"x_min":43,"x_max":537,"o":"m 537 980 l 139 -149 l 43 -116 l 444 1015 l 537 980 z "},"_":{"ha":695,"x_min":-38,"x_max":733,"o":"m 733 -124 l 713 -220 l -38 -220 l -15 -124 l 733 -124 z "},"{":{"ha":442,"x_min":45,"x_max":418,"o":"m 145 386 q 187 370 161 382 q 238 324 213 357 q 264 237 264 292 l 264 -111 l 418 -173 l 408 -220 q 236 -208 290 -220 q 167 -168 182 -195 q 152 -84 152 -140 l 152 264 q 121 320 152 293 q 59 364 90 347 q 49 373 54 368 q 45 386 45 378 q 50 399 45 393 q 59 408 54 406 q 121 456 91 427 q 152 513 152 486 l 152 862 q 168 945 152 918 q 239 985 183 972 q 418 998 295 998 l 409 950 l 264 889 l 264 534 q 238 448 264 480 q 187 402 213 415 q 145 386 161 389 z "},"}":{"ha":442,"x_min":24,"x_max":397,"o":"m 297 392 q 255 408 281 395 q 204 454 229 421 q 178 541 178 486 l 178 889 l 24 951 l 34 998 q 206 985 153 998 q 275 945 260 972 q 290 862 290 918 l 290 513 q 321 458 290 485 q 383 414 352 431 q 393 405 389 410 q 397 392 397 399 q 393 378 397 385 q 383 370 388 372 q 321 321 351 351 q 290 264 290 292 l 290 -84 q 275 -168 290 -140 q 203 -208 259 -195 q 24 -220 147 -220 l 33 -172 l 178 -111 l 178 244 q 204 330 178 298 q 255 376 229 363 q 297 392 281 389 z "},"[":{"ha":422,"x_min":123,"x_max":402,"o":"m 397 998 l 385 948 l 241 912 l 241 -127 l 402 -167 l 389 -214 l 123 -214 l 123 998 l 397 998 z "},"]":{"ha":420,"x_min":22,"x_max":297,"o":"m 297 -214 l 24 -214 l 34 -165 l 178 -127 l 178 912 l 22 949 l 37 998 l 297 998 l 297 -214 z "},"(":{"ha":421,"x_min":64,"x_max":393,"o":"m 64 392 q 135 748 64 598 q 358 1009 205 899 l 393 974 q 287 816 334 915 q 213 604 240 717 q 186 392 186 491 q 213 180 186 292 q 286 -32 239 67 q 393 -189 334 -130 l 357 -224 q 135 37 205 -112 q 64 392 64 186 z "}}}
